<?xml version="1.0" encoding="UTF-8" standalone="no"?>
<!-- Generator: Adobe Illustrator 27.5.0, SVG Export Plug-In . SVG Version: 6.00 Build 0)  -->

<svg
   version="1.1"
   x="0px"
   y="0px"
   viewBox="0 0 500 500"
   style="enable-background:new 0 0 500 500;"
   xml:space="preserve"
   id="svg9278"
   sodipodi:docname="considerations.svg"
   inkscape:version="1.2.2 (b0a8486541, 2022-12-01)"
   xmlns:inkscape="http://www.inkscape.org/namespaces/inkscape"
   xmlns:sodipodi="http://sodipodi.sourceforge.net/DTD/sodipodi-0.dtd"
   xmlns="http://www.w3.org/2000/svg"
   xmlns:svg="http://www.w3.org/2000/svg"><defs
   id="defs9282" /><sodipodi:namedview
   id="namedview9280"
   pagecolor="#ffffff"
   bordercolor="#666666"
   borderopacity="1.0"
   inkscape:showpageshadow="2"
   inkscape:pageopacity="0.0"
   inkscape:pagecheckerboard="0"
   inkscape:deskcolor="#d1d1d1"
   showgrid="false"
   inkscape:zoom="0.98480985"
   inkscape:cx="131.49747"
   inkscape:cy="304.11962"
   inkscape:window-width="1728"
   inkscape:window-height="1048"
   inkscape:window-x="0"
   inkscape:window-y="32"
   inkscape:window-maximized="1"
   inkscape:current-layer="svg9278" />
<g
   id="Background_Complete"
   transform="matrix(-1,0,0,1,500,0)">
	<g
   id="g8838">
		<rect
   y="382.39801"
   style="fill:#ebebeb"
   width="500"
   height="0.25"
   id="rect8820"
   x="0" />
		<rect
   x="416.77899"
   y="398.49399"
   style="fill:#ebebeb"
   width="33.122002"
   height="0.25"
   id="rect8822" />
		<rect
   x="322.52701"
   y="401.20801"
   style="fill:#ebebeb"
   width="8.6929998"
   height="0.25"
   id="rect8824" />
		<rect
   x="396.586"
   y="389.20801"
   style="fill:#ebebeb"
   width="19.191999"
   height="0.25"
   id="rect8826" />
		<rect
   x="52.459"
   y="390.888"
   style="fill:#ebebeb"
   width="43.193001"
   height="0.25"
   id="rect8828" />
		<rect
   x="104.556"
   y="390.888"
   style="fill:#ebebeb"
   width="6.3330002"
   height="0.25"
   id="rect8830" />
		<rect
   x="131.47099"
   y="395.11099"
   style="fill:#ebebeb"
   width="93.676003"
   height="0.25"
   id="rect8832" />
		<path
   style="fill:#ebebeb"
   d="M 237.014,337.8 H 43.915 c -3.147,0 -5.708,-2.561 -5.708,-5.708 V 60.66 c 0,-3.147 2.561,-5.708 5.708,-5.708 h 193.099 c 3.146,0 5.707,2.561 5.707,5.708 v 271.432 c 0,3.147 -2.561,5.708 -5.707,5.708 z M 43.915,55.203 c -3.01,0 -5.458,2.448 -5.458,5.458 v 271.432 c 0,3.01 2.448,5.458 5.458,5.458 h 193.099 c 3.009,0 5.457,-2.448 5.457,-5.458 V 60.66 c 0,-3.009 -2.448,-5.458 -5.457,-5.458 H 43.915 Z"
   id="path8834" />
		<path
   style="fill:#ebebeb"
   d="M 453.31,337.8 H 260.212 c -3.147,0 -5.707,-2.561 -5.707,-5.708 V 60.66 c 0,-3.147 2.561,-5.708 5.707,-5.708 H 453.31 c 3.148,0 5.708,2.561 5.708,5.708 v 271.432 c 0.001,3.147 -2.56,5.708 -5.708,5.708 z M 260.212,55.203 c -3.009,0 -5.457,2.448 -5.457,5.458 v 271.432 c 0,3.01 2.448,5.458 5.457,5.458 H 453.31 c 3.01,0 5.458,-2.448 5.458,-5.458 V 60.66 c 0,-3.009 -2.448,-5.458 -5.458,-5.458 H 260.212 Z"
   id="path8836" />
	</g>
	<g
   id="g8934">
		<g
   id="g8874">
			<polygon
   style="fill:#e0e0e0"
   points="299.549,308.216 305.115,308.216 289.529,321.113 286.666,321.113 284.121,321.113 287.757,315.587 277.139,321.113 274.578,321.113 271.556,321.113 291.119,308.216 "
   id="polygon8840" />
			<g
   id="g8846">
				<polygon
   style="fill:#e0e0e0"
   points="396.022,321.113 383.633,314.664 389.04,321.113 383.633,321.113 368.046,308.216 382.042,308.216 401.605,321.113 "
   id="polygon8842" />
				<polygon
   style="fill:#f0f0f0"
   points="373.613,308.216 382.042,308.216 401.605,321.113 398.583,321.113 383.633,312.893 389.04,321.113 386.496,321.113 "
   id="polygon8844" />
			</g>
			<path
   style="fill:#e0e0e0"
   d="m 241.67,321.113 v 61.183 h 188.421 v -61.183 z m 3.08,3.964 h 151.272 v 19.997 H 244.75 Z"
   id="path8848" />
			<path
   style="fill:#ebebeb"
   d="m 241.67,321.113 v 61.183 h 158.469 v -61.183 z m 3.08,3.964 h 151.272 v 19.997 H 244.75 Z"
   id="path8850" />
			
				<rect
   x="244.74699"
   y="325.08099"
   transform="rotate(-180,258.5384,335.0778)"
   style="fill:#e0e0e0"
   width="27.582001"
   height="19.993"
   id="rect8852" />
			
				<rect
   x="356.082"
   y="335.078"
   transform="rotate(-180,376.05195,340.076)"
   style="fill:#e0e0e0"
   width="39.939999"
   height="9.9960003"
   id="rect8854" />
			
				<rect
   x="327.87701"
   y="339.13599"
   transform="rotate(-180,340.72145,342.1053)"
   style="fill:#e0e0e0"
   width="25.688"
   height="5.9380002"
   id="rect8856" />
			
				<rect
   x="291.64999"
   y="332.92899"
   transform="rotate(-180,306.79445,339.002)"
   style="fill:#e0e0e0"
   width="30.290001"
   height="12.146"
   id="rect8858" />
			<polygon
   style="fill:#e0e0e0"
   points="366.684,351.818 376.506,351.818 377.239,349.429 396.022,349.429 396.022,375.973 347.167,375.973 347.167,349.429 365.95,349.429 "
   id="polygon8860" />
			<polygon
   style="fill:#e0e0e0"
   points="315.538,351.818 325.36,351.818 326.093,349.429 344.876,349.429 344.876,375.973 296.021,375.973 296.021,349.429 314.805,349.429 "
   id="polygon8862" />
			<polygon
   style="fill:#e0e0e0"
   points="264.392,351.818 274.214,351.818 274.947,349.429 293.731,349.429 293.731,375.973 244.876,375.973 244.876,349.429 263.659,349.429 "
   id="polygon8864" />
			<g
   id="g8872">
				<path
   style="fill:#e0e0e0"
   d="m 274.859,309.923 h 129.79 c 1.95,0 3.53,-1.581 3.53,-3.53 v -75.63 c 0,-1.95 -1.581,-3.53 -3.53,-3.53 h -129.79 c -1.95,0 -3.53,1.581 -3.53,3.53 v 75.63 c 0,1.949 1.581,3.53 3.53,3.53 z"
   id="path8866" />
				<path
   style="fill:#e6e6e6"
   d="m 271.643,309.923 h 129.79 c 1.95,0 3.53,-1.581 3.53,-3.53 v -75.63 c 0,-1.95 -1.581,-3.53 -3.53,-3.53 h -129.79 c -1.95,0 -3.53,1.581 -3.53,3.53 v 75.63 c 0,1.949 1.58,3.53 3.53,3.53 z"
   id="path8868" />
				
					<rect
   x="299.21301"
   y="204.173"
   transform="rotate(90,336.538,268.5775)"
   style="fill:#f0f0f0"
   width="74.650002"
   height="128.81"
   id="rect8870" />
			</g>
		</g>
		<g
   id="g8882">
			
				<circle
   transform="matrix(0.2298,-0.9732,0.9732,0.2298,-9.9227,246.0433)"
   style="fill:#e0e0e0"
   cx="150.483"
   cy="129.291"
   id="ellipse8876"
   r="18.938999" />
			
				<circle
   transform="matrix(0.1891,-0.982,0.982,0.1891,-4.9319,252.6087)"
   style="fill:#f0f0f0"
   cx="150.483"
   cy="129.291"
   id="ellipse8878"
   r="16.103001" />
			
				<polyline
   style="fill:#f0f0f0;stroke:#e0e0e0;stroke-width:2;stroke-linecap:round;stroke-linejoin:round;stroke-miterlimit:10"
   points="     149.724,118.244 149.724,129.501 142.264,125.279    "
   id="polyline8880" />
		</g>
		<g
   id="g8908">
			<path
   style="fill:#e6e6e6"
   d="m 308.367,131.662 c 0,0 -0.914,-6.025 3.481,-9.888 4.395,-3.863 4.008,-6.161 2.753,-6.461 -1.256,-0.3 -2.415,3.564 -4.346,4.626 0,0 -0.061,-5.505 1.901,-7.533 1.962,-2.028 2.992,-7.253 1.125,-7.345 -1.867,-0.092 -2.06,3.103 -2.446,5.369 -0.386,2.266 -2.467,5.453 -2.467,5.453 0,0 -0.406,-4.926 -1.674,-6.954 -1.268,-2.028 2.112,-6.664 0.809,-8.692 -1.304,-2.028 -3.622,1.835 -3.429,6.181 0.193,4.346 3.091,8.982 2.415,13.521 0,0 -1.278,-3.187 -2.426,-3.477 -1.148,-0.29 -2.307,-2.398 -3.079,-3.179 -0.773,-0.781 -1.738,1.923 0,4.434 1.738,2.511 6.181,9.229 5.505,14.659 z"
   id="path8884" />
			<path
   style="fill:#e6e6e6"
   d="m 310.994,128.921 1.439,9.03 c 0.444,2.789 -1.71,5.314 -4.535,5.314 h -1.535 c -2.824,0 -4.979,-2.525 -4.534,-5.314 l 1.439,-9.03 z"
   id="path8886" />
			
				<rect
   x="289.229"
   y="139.933"
   transform="rotate(-180,340.08935,142.5464)"
   style="fill:#e0e0e0"
   width="101.721"
   height="5.2259998"
   id="rect8888" />
			
				<rect
   x="381.78601"
   y="120.668"
   transform="rotate(-180,384.02715,130.3007)"
   style="fill:#ebebeb"
   width="4.4809999"
   height="19.264999"
   id="rect8890" />
			
				<rect
   x="360.117"
   y="120.668"
   transform="rotate(-180,362.358,130.3007)"
   style="fill:#ebebeb"
   width="4.4809999"
   height="19.264999"
   id="rect8892" />
			
				<rect
   x="333.849"
   y="120.428"
   transform="matrix(-0.9855,-0.1698,0.1698,-0.9855,645.208,315.3105)"
   style="fill:#ebebeb"
   width="4.4809999"
   height="19.264999"
   id="rect8894" />
			
				<rect
   x="376.23401"
   y="123.207"
   transform="rotate(-180,378.47435,131.57005)"
   style="fill:#ebebeb"
   width="4.4819999"
   height="16.726"
   id="rect8896" />
			
				<rect
   x="365.93301"
   y="123.207"
   transform="rotate(-180,368.17385,131.57005)"
   style="fill:#ebebeb"
   width="4.4809999"
   height="16.726"
   id="rect8898" />
			
				<rect
   x="339.93399"
   y="123.207"
   transform="rotate(-180,342.17445,131.57005)"
   style="fill:#ebebeb"
   width="4.4819999"
   height="16.726"
   id="rect8900" />
			
				<rect
   x="352.36401"
   y="122.92"
   transform="matrix(-0.9762,-0.2169,0.2169,-0.9762,672.2925,336.3538)"
   style="fill:#ebebeb"
   width="4.4809999"
   height="16.726"
   id="rect8902" />
			
				<rect
   x="372.35901"
   y="119.712"
   transform="rotate(-180,373.479,129.82245)"
   style="fill:#ebebeb"
   width="2.2409999"
   height="20.222"
   id="rect8904" />
			
				<rect
   x="345.703"
   y="119.712"
   transform="rotate(-180,346.8237,129.82245)"
   style="fill:#ebebeb"
   width="2.2409999"
   height="20.222"
   id="rect8906" />
		</g>
		<g
   id="g8932">
			<rect
   x="289.229"
   y="178.95"
   style="fill:#e0e0e0"
   width="101.721"
   height="5.2259998"
   id="rect8910" />
			<rect
   x="293.91101"
   y="159.685"
   style="fill:#ebebeb"
   width="4.4809999"
   height="19.264999"
   id="rect8912" />
			<rect
   x="315.57999"
   y="159.685"
   style="fill:#ebebeb"
   width="4.4809999"
   height="19.264999"
   id="rect8914" />
			
				<rect
   x="341.84799"
   y="159.444"
   transform="matrix(0.9855,-0.1698,0.1698,0.9855,-23.7168,60.8961)"
   style="fill:#ebebeb"
   width="4.4809999"
   height="19.264999"
   id="rect8916" />
			<rect
   x="299.46399"
   y="162.22301"
   style="fill:#ebebeb"
   width="4.4809999"
   height="16.726"
   id="rect8918" />
			<rect
   x="309.76401"
   y="162.22301"
   style="fill:#ebebeb"
   width="4.4809999"
   height="16.726"
   id="rect8920" />
			<rect
   x="335.763"
   y="162.22301"
   style="fill:#ebebeb"
   width="4.4809999"
   height="16.726"
   id="rect8922" />
			
				<rect
   x="323.33301"
   y="161.936"
   transform="matrix(0.9762,-0.2169,0.2169,0.9762,-29.1866,74.6686)"
   style="fill:#ebebeb"
   width="4.4809999"
   height="16.726"
   id="rect8924" />
			<rect
   x="305.57901"
   y="158.728"
   style="fill:#ebebeb"
   width="2.2409999"
   height="20.222"
   id="rect8926" />
			<rect
   x="332.23499"
   y="158.728"
   style="fill:#ebebeb"
   width="2.2409999"
   height="20.222"
   id="rect8928" />
			<rect
   x="359.354"
   y="163.702"
   style="fill:#ebebeb"
   width="21.836"
   height="15.075"
   id="rect8930" />
		</g>
	</g>
</g>
<g
   id="Background_Simple"
   style="display:none;">
	<g
   style="display:inline;"
   id="g8941">
		<path
   style="fill:#407BFF;"
   d="M84.543,123.639c27.919-59.449,127.059-51.062,165.317-9.255    c38.258,41.806,50.696,68.599,85.208,52.983c34.512-15.616,78.518-11.44,81.043,38.164s-37.913,108.263-102.09,125.615    c-64.177,17.352-64.161,78.759-149.1,66.368c-46.31-6.756-47.365-56.86-40.825-98.301S52.165,192.583,84.543,123.639z"
   id="path8937" />
		<path
   style="opacity:0.9;fill:#FFFFFF;"
   d="M84.543,123.639c27.919-59.449,127.059-51.062,165.317-9.255    c38.258,41.806,50.696,68.599,85.208,52.983c34.512-15.616,78.518-11.44,81.043,38.164s-37.913,108.263-102.09,125.615    c-64.177,17.352-64.161,78.759-149.1,66.368c-46.31-6.756-47.365-56.86-40.825-98.301S52.165,192.583,84.543,123.639z"
   id="path8939" />
	</g>
</g>
<g
   id="Shadow_1_"
   transform="matrix(-1,0,0,1,500,0)">
	<ellipse
   id="_x3C_Path_x3E__359_"
   style="fill:#f5f5f5"
   cx="250"
   cy="416.23801"
   rx="193.88901"
   ry="11.323" />
</g>
<g
   id="Plant"
   transform="matrix(-1,0,0,1,500,0)">
	<g
   id="g9012">
		<path
   style="fill:#263238"
   d="m 104.322,393.127 c 0,0 1.388,-10.175 7.895,-11.288 6.506,-1.113 4.545,-6.033 6.239,-7.937 1.695,-1.904 6.122,3.714 2.33,9.156 -3.793,5.443 -0.692,3.732 -2.33,8.793 -1.637,5.061 -14.728,9.71 -14.134,1.276 z"
   id="path8946" />
		<path
   style="opacity:0.2;fill:#ffffff;enable-background:new"
   d="m 104.322,393.127 c 0,0 1.388,-10.175 7.895,-11.288 6.506,-1.113 4.545,-6.033 6.239,-7.937 1.695,-1.904 6.122,3.714 2.33,9.156 -3.793,5.443 -0.692,3.732 -2.33,8.793 -1.637,5.061 -14.728,9.71 -14.134,1.276 z"
   id="path8948" />
		
			<path
   style="fill:none;stroke:#263238;stroke-width:0.9024;stroke-linecap:round;stroke-linejoin:round;stroke-miterlimit:10"
   d="m 105.439,399.117 c 0,0 3.256,-11.031 -2.046,-27.306 -5.302,-16.274 -16.063,-21.173 -10.619,-40.917 5.444,-19.744 12.951,-34.413 6.007,-46.663"
   id="path8950" />
		<path
   style="fill:#263238"
   d="m 108.349,397.699 c 0,0 4.206,-6.338 -1.864,-9.596 -6.07,-3.258 -7.286,-0.635 -11.042,-2.978 -3.756,-2.343 -6.601,-8.021 -7.242,-4.388 -0.64,3.632 3.698,5.705 2.163,7.366 -1.534,1.662 10.21,12.453 17.985,9.596 z"
   id="path8952" />
		<g
   id="g8992">
			<path
   style="fill:#263238"
   d="m 101.39,289.169 c 0,0 2.043,-12.951 -7.196,-11.71 -9.239,1.24 2.771,11.086 7.196,11.71 z"
   id="path8954" />
			<path
   style="fill:#263238"
   d="m 94.941,299.92 c 0,0 -4.561,-10.73 -10.706,-7.31 -6.145,3.421 4.232,8.576 10.706,7.31 z"
   id="path8956" />
			<path
   style="fill:#263238"
   d="m 106.174,299.085 c 0,0 -2.437,-8.759 4.462,-10.064 6.898,-1.305 5.091,7.03 -4.462,10.064 z"
   id="path8958" />
			<path
   style="fill:#263238"
   d="m 104.528,318.03 c 0,0 7.948,-9.802 12.296,-4.179 4.347,5.624 -5.8,8.596 -12.296,4.179 z"
   id="path8960" />
			<path
   style="fill:#263238"
   d="m 87.839,319.238 c 0,0 -3.99,-13.481 -10.797,-7.94 -6.806,5.541 4.479,10.382 10.797,7.94 z"
   id="path8962" />
			<path
   style="fill:#263238"
   d="m 84.441,340.023 c 0,0 3.278,-14.811 -6.768,-11.567 -10.045,3.244 -1.053,9.375 6.768,11.567 z"
   id="path8964" />
			<path
   style="fill:#263238"
   d="m 101.056,342.411 c 0,0 7.032,-11.667 14.21,-9.499 7.179,2.168 3.404,13.243 -14.21,9.499 z"
   id="path8966" />
			<path
   style="fill:#263238"
   d="m 96.859,366.407 c 0,0 -10.093,-15.252 -15.78,-8.631 -5.687,6.62 6.458,13.155 15.78,8.631 z"
   id="path8968" />
			<path
   style="fill:#263238"
   d="m 107.474,363.69 c 0,0 -4.038,-12.449 3.468,-12.618 7.505,-0.168 6.849,7.956 -3.468,12.618 z"
   id="path8970" />
			<g
   style="opacity:0.2;enable-background:new"
   id="g8990">
				<path
   style="fill:#ffffff"
   d="m 101.39,289.169 c 0,0 2.043,-12.951 -7.196,-11.71 -9.239,1.24 2.771,11.086 7.196,11.71 z"
   id="path8972" />
				<path
   style="fill:#ffffff"
   d="m 94.941,299.92 c 0,0 -4.561,-10.73 -10.706,-7.31 -6.145,3.421 4.232,8.576 10.706,7.31 z"
   id="path8974" />
				<path
   style="fill:#ffffff"
   d="m 106.174,299.085 c 0,0 -2.437,-8.759 4.462,-10.064 6.898,-1.305 5.091,7.03 -4.462,10.064 z"
   id="path8976" />
				<path
   style="fill:#ffffff"
   d="m 104.528,318.03 c 0,0 7.948,-9.802 12.296,-4.179 4.347,5.624 -5.8,8.596 -12.296,4.179 z"
   id="path8978" />
				<path
   style="fill:#ffffff"
   d="m 87.839,319.238 c 0,0 -3.99,-13.481 -10.797,-7.94 -6.806,5.541 4.479,10.382 10.797,7.94 z"
   id="path8980" />
				<path
   style="fill:#ffffff"
   d="m 84.441,340.023 c 0,0 3.278,-14.811 -6.768,-11.567 -10.045,3.244 -1.053,9.375 6.768,11.567 z"
   id="path8982" />
				<path
   style="fill:#ffffff"
   d="m 101.056,342.411 c 0,0 7.032,-11.667 14.21,-9.499 7.179,2.168 3.404,13.243 -14.21,9.499 z"
   id="path8984" />
				<path
   style="fill:#ffffff"
   d="m 96.859,366.407 c 0,0 -10.093,-15.252 -15.78,-8.631 -5.687,6.62 6.458,13.155 15.78,8.631 z"
   id="path8986" />
				<path
   style="fill:#ffffff"
   d="m 107.474,363.69 c 0,0 -4.038,-12.449 3.468,-12.618 7.505,-0.168 6.849,7.956 -3.468,12.618 z"
   id="path8988" />
			</g>
		</g>
		
			<path
   style="fill:none;stroke:#263238;stroke-width:0.9024;stroke-linecap:round;stroke-linejoin:round;stroke-miterlimit:10"
   d="m 108.003,295.785 c 0,0 -2.999,6.523 -7.919,10.436 0,0 -4.706,-6.326 -7.772,-7.546"
   id="path8994" />
		
			<path
   style="fill:none;stroke:#263238;stroke-width:0.9024;stroke-linecap:round;stroke-linejoin:round;stroke-miterlimit:10"
   d="m 111.532,316.044 c 0,0 -10.114,1.314 -17.098,8.632 0,0 -5.642,-6.775 -12.001,-9.247"
   id="path8996" />
		
			<path
   style="fill:none;stroke:#263238;stroke-width:0.9024;stroke-linecap:round;stroke-linejoin:round;stroke-miterlimit:10"
   d="m 80.335,333.931 c 0,0 6.17,10.664 12.406,14.189 0,0 10.35,-8.487 18.717,-10.019"
   id="path8998" />
		
			<path
   style="fill:none;stroke:#263238;stroke-width:0.9024;stroke-linecap:round;stroke-linejoin:round;stroke-miterlimit:10"
   d="m 110.767,355.352 c 0,0 -3.852,11.944 -7.673,15.039 0,0 -4.841,-4.912 -13.776,-6.082"
   id="path9000" />
		<path
   style="fill:#263238"
   d="m 107.704,396.188 c 0,0 3.606,-5.74 7.68,-6.557 4.073,-0.817 5.828,-5.508 7.331,-2.687 1.502,2.821 -2.643,12.175 -15.011,9.244 z"
   id="path9002" />
		<g
   id="g9010">
			<polygon
   style="fill:#407bff"
   points="87.041,418.719 84.406,394.429 129.054,394.429 126.419,418.719 "
   id="polygon9004" />
			<polygon
   style="fill:#407bff"
   points="83.487,399.031 82.892,393.884 130.568,393.884 129.973,399.031 "
   id="polygon9006" />
			<polygon
   style="opacity:0.3;fill:#ffffff"
   points="83.487,399.031 82.892,393.884 130.568,393.884 129.973,399.031 "
   id="polygon9008" />
		</g>
	</g>
</g>
<g
   id="Table"
   transform="matrix(-1,0,0,1,500,0)">
	<g
   id="g9043">
		<g
   id="g9021">
			<path
   style="fill:#407bff"
   d="m 314.427,319.648 v 0 H 415.11 v 0 c 0,4.411 -2.909,8.032 -6.602,8.231 -10.82,0.582 -27.465,2.625 -32.744,9.769 -9.84,13.316 -8.887,60.095 2.9,70.929 3.695,3.397 14.469,10.142 14.469,10.142 h -56.728 c 0,0 10.067,-6.881 13.565,-10.142 11.719,-10.923 12.06,-57.674 2.175,-70.929 -5.072,-6.801 -20.674,-8.998 -31.142,-9.691 -3.693,-0.245 -6.576,-3.896 -6.576,-8.309 z"
   id="path9015" />
			<path
   style="opacity:0.6;fill:#ffffff;enable-background:new"
   d="m 314.427,319.648 v 0 H 415.11 v 0 c 0,4.411 -2.909,8.032 -6.602,8.231 -10.82,0.582 -27.465,2.625 -32.744,9.769 -9.84,13.316 -8.887,60.095 2.9,70.929 3.695,3.397 14.469,10.142 14.469,10.142 h -56.728 c 0,0 10.067,-6.881 13.565,-10.142 11.719,-10.923 12.06,-57.674 2.175,-70.929 -5.072,-6.801 -20.674,-8.998 -31.142,-9.691 -3.693,-0.245 -6.576,-3.896 -6.576,-8.309 z"
   id="path9017" />
			<path
   style="opacity:0.1"
   d="m 402.638,328.315 c -10.227,0.978 -22.483,3.39 -26.874,9.333 -1.3,1.759 -2.406,4.114 -3.328,6.88 h -16.91 c -0.948,-2.769 -2.072,-5.125 -3.381,-6.88 -4.408,-5.91 -16.766,-8.342 -26.798,-9.333 z"
   id="path9019" />
		</g>
		<g
   id="g9031">
			<polygon
   style="fill:#407bff"
   points="393.097,319.727 383.734,319.727 385.58,306.18 "
   id="polygon9023" />
			<polygon
   style="opacity:0.2;enable-background:new"
   points="393.097,319.727 383.734,319.727 385.58,306.18 "
   id="polygon9025" />
			<polygon
   style="fill:#407bff"
   points="370.389,319.727 375.927,296.799 393.624,296.799 388.086,319.727 "
   id="polygon9027" />
			<polygon
   style="opacity:0.5;fill:#ffffff;enable-background:new"
   points="377.487,298.619 391.184,298.619 386.525,317.907 372.828,317.907 "
   id="polygon9029" />
		</g>
		<g
   id="g9041">
			<polygon
   style="fill:#407bff"
   points="331.91,319.727 343.65,319.727 336.302,309.288 "
   id="polygon9033" />
			<polygon
   style="fill:#407bff"
   points="337.785,319.727 332.511,303.436 354.998,303.436 360.272,319.727 "
   id="polygon9035" />
			<polygon
   style="opacity:0.2;fill:#ffffff;enable-background:new"
   points="337.785,319.727 332.511,303.436 354.998,303.436 360.272,319.727 "
   id="polygon9037" />
			<polygon
   style="opacity:0.5;fill:#ffffff;enable-background:new"
   points="335.272,305.786 353.759,305.786 357.512,317.378 339.025,317.378 "
   id="polygon9039" />
		</g>
	</g>
</g>
<g
   id="thought_bubble"
   transform="matrix(-1,0,0,1,500,0)">
	<g
   id="g9116">
		<path
   style="fill:#407bff"
   d="m 377.025,240.587 c 0,-7.668 -4.005,-14.597 -10.455,-19.574 0.209,-0.999 0.323,-2.024 0.323,-3.07 0,-10.217 -10.382,-18.52 -23.3,-18.756 -3.904,-9.875 -15.616,-17.046 -29.457,-17.046 -11.035,0 -20.71,4.561 -26.161,11.413 -1.355,-0.188 -2.747,-0.292 -4.171,-0.292 -13.179,0 -23.863,8.402 -23.863,18.768 0,1.79 0.325,3.518 0.92,5.158 -8.395,4.409 -13.927,11.926 -13.927,20.461 0,8.221 5.135,15.495 13.015,19.959 -0.002,0.088 -0.008,0.175 -0.008,0.263 0,10.06 10.065,18.27 22.708,18.744 6.972,6.808 17.651,11.168 29.632,11.168 8.41,0 16.178,-2.151 22.476,-5.786 1.061,0.113 2.142,0.177 3.242,0.177 13.179,0 23.863,-8.402 23.863,-18.767 0,-0.064 -0.005,-0.128 -0.006,-0.192 9.158,-4.943 15.169,-13.232 15.169,-22.628 z"
   id="path9046" />
		<path
   style="fill:#407bff"
   d="m 288.608,145.375 c 0,-7.178 -5.086,-13.342 -12.373,-16.092 0.239,-1.069 0.378,-2.168 0.378,-3.296 0,-8.585 -7.268,-15.729 -16.888,-17.3 -6.572,-8.828 -18.016,-14.678 -31.046,-14.678 -12.91,0 -24.265,5.742 -30.865,14.434 -10.583,0.855 -18.861,8.381 -18.861,17.544 0,1.691 0.298,3.321 0.825,4.869 -5.46,3.18 -9.043,8.493 -9.043,14.519 0,8.449 7.041,15.502 16.434,17.222 1.435,8.554 10.113,15.139 20.635,15.141 6.421,4.677 14.703,7.499 23.749,7.499 9.189,0 17.588,-2.914 24.049,-7.725 9.132,-1.182 16.303,-7.347 17.498,-15.116 8.922,-2.002 15.508,-8.853 15.508,-17.021 z"
   id="path9048" />
		<ellipse
   style="fill:#407bff"
   cx="207.181"
   cy="192.735"
   rx="10.154"
   ry="7.4980001"
   id="ellipse9050" />
		<path
   style="fill:#407bff"
   d="m 195.421,203.354 c 0,1.309 -1.518,2.37 -3.391,2.37 -1.873,0 -3.391,-1.061 -3.391,-2.37 0,-1.309 1.518,-2.37 3.391,-2.37 1.873,0 3.391,1.061 3.391,2.37 z"
   id="path9052" />
		<path
   style="fill:#407bff"
   d="m 212.66,213.848 c 0,1.309 -1.518,2.37 -3.391,2.37 -1.873,0 -3.391,-1.061 -3.391,-2.37 0,-1.309 1.518,-2.37 3.391,-2.37 1.872,-0.001 3.391,1.061 3.391,2.37 z"
   id="path9054" />
		<ellipse
   style="fill:#407bff"
   cx="234.58701"
   cy="212.649"
   rx="13.412"
   ry="9.3430004"
   id="ellipse9056" />
		<path
   style="opacity:0.7;fill:#ffffff;enable-background:new"
   d="m 377.025,240.587 c 0,-7.668 -4.005,-14.597 -10.455,-19.574 0.209,-0.999 0.323,-2.024 0.323,-3.07 0,-10.217 -10.382,-18.52 -23.3,-18.756 -3.904,-9.875 -15.616,-17.046 -29.457,-17.046 -11.035,0 -20.71,4.561 -26.161,11.413 -1.355,-0.188 -2.747,-0.292 -4.171,-0.292 -13.179,0 -23.863,8.402 -23.863,18.768 0,1.79 0.325,3.518 0.92,5.158 -8.395,4.409 -13.927,11.926 -13.927,20.461 0,8.221 5.135,15.495 13.015,19.959 -0.002,0.088 -0.008,0.175 -0.008,0.263 0,10.06 10.065,18.27 22.708,18.744 6.972,6.808 17.651,11.168 29.632,11.168 8.41,0 16.178,-2.151 22.476,-5.786 1.061,0.113 2.142,0.177 3.242,0.177 13.179,0 23.863,-8.402 23.863,-18.767 0,-0.064 -0.005,-0.128 -0.006,-0.192 9.158,-4.943 15.169,-13.232 15.169,-22.628 z"
   id="path9058" />
		<path
   style="opacity:0.7;fill:#ffffff;enable-background:new"
   d="m 288.608,145.375 c 0,-7.178 -5.086,-13.342 -12.373,-16.092 0.239,-1.069 0.378,-2.168 0.378,-3.296 0,-8.585 -7.268,-15.729 -16.888,-17.3 -6.572,-8.828 -18.016,-14.678 -31.046,-14.678 -12.91,0 -24.265,5.742 -30.865,14.434 -10.583,0.855 -18.861,8.381 -18.861,17.544 0,1.691 0.298,3.321 0.825,4.869 -5.46,3.18 -9.043,8.493 -9.043,14.519 0,8.449 7.041,15.502 16.434,17.222 1.435,8.554 10.113,15.139 20.635,15.141 6.421,4.677 14.703,7.499 23.749,7.499 9.189,0 17.588,-2.914 24.049,-7.725 9.132,-1.182 16.303,-7.347 17.498,-15.116 8.922,-2.002 15.508,-8.853 15.508,-17.021 z"
   id="path9060" />
		<ellipse
   style="opacity:0.7;fill:#ffffff;enable-background:new"
   cx="207.181"
   cy="192.735"
   rx="10.154"
   ry="7.4980001"
   id="ellipse9062" />
		<path
   style="opacity:0.7;fill:#ffffff;enable-background:new"
   d="m 195.421,203.354 c 0,1.309 -1.518,2.37 -3.391,2.37 -1.873,0 -3.391,-1.061 -3.391,-2.37 0,-1.309 1.518,-2.37 3.391,-2.37 1.873,0 3.391,1.061 3.391,2.37 z"
   id="path9064" />
		<path
   style="opacity:0.7;fill:#ffffff;enable-background:new"
   d="m 212.66,213.848 c 0,1.309 -1.518,2.37 -3.391,2.37 -1.873,0 -3.391,-1.061 -3.391,-2.37 0,-1.309 1.518,-2.37 3.391,-2.37 1.872,-0.001 3.391,1.061 3.391,2.37 z"
   id="path9066" />
		<ellipse
   style="opacity:0.7;fill:#ffffff;enable-background:new"
   cx="234.58701"
   cy="212.649"
   rx="13.412"
   ry="9.3430004"
   id="ellipse9068" />
		<ellipse
   style="fill:#407bff"
   cx="156.14"
   cy="192.20599"
   rx="8.1610003"
   ry="6.027"
   id="ellipse9070" />
		<path
   style="fill:#407bff"
   d="m 172.407,201.352 c 0,1.309 -1.518,2.37 -3.391,2.37 -1.873,0 -3.391,-1.061 -3.391,-2.37 0,-1.309 1.518,-2.37 3.391,-2.37 1.873,0 3.391,1.061 3.391,2.37 z"
   id="path9072" />
		<ellipse
   style="opacity:0.7;fill:#ffffff;enable-background:new"
   cx="156.14"
   cy="192.20599"
   rx="8.1610003"
   ry="6.027"
   id="ellipse9074" />
		<path
   style="opacity:0.7;fill:#ffffff;enable-background:new"
   d="m 172.407,201.352 c 0,1.309 -1.518,2.37 -3.391,2.37 -1.873,0 -3.391,-1.061 -3.391,-2.37 0,-1.309 1.518,-2.37 3.391,-2.37 1.873,0 3.391,1.061 3.391,2.37 z"
   id="path9076" />
		<path
   style="fill:#407bff"
   d="m 149.049,167.468 c -0.455,-4.383 -3.156,-8.107 -7.138,-10.569 0.06,-0.584 0.065,-1.176 0.003,-1.774 -0.606,-5.84 -7.034,-9.971 -14.432,-9.34 -2.818,-5.413 -9.938,-8.818 -17.85,-7.997 -6.308,0.655 -11.568,3.836 -14.278,8.076 -0.786,-0.027 -1.588,-0.004 -2.402,0.081 -7.534,0.782 -13.143,6.219 -12.528,12.144 0.106,1.023 0.395,1.992 0.832,2.894 -4.537,3.018 -7.254,7.644 -6.747,12.523 0.488,4.7 3.855,8.553 8.624,10.637 0.004,0.05 0.006,0.1 0.011,0.151 0.597,5.751 6.838,9.847 14.093,9.368 4.389,3.478 10.753,5.337 17.601,4.626 4.808,-0.499 9.121,-2.189 12.505,-4.641 0.613,0.002 1.235,-0.026 1.864,-0.091 7.534,-0.782 13.143,-6.219 12.528,-12.144 -0.004,-0.037 -0.011,-0.073 -0.015,-0.11 4.942,-3.368 7.886,-8.463 7.329,-13.834 z"
   id="path9078" />
		<path
   style="opacity:0.7;fill:#ffffff;enable-background:new"
   d="m 149.049,167.468 c -0.455,-4.383 -3.156,-8.107 -7.138,-10.569 0.06,-0.584 0.065,-1.176 0.003,-1.774 -0.606,-5.84 -7.034,-9.971 -14.432,-9.34 -2.818,-5.413 -9.938,-8.818 -17.85,-7.997 -6.308,0.655 -11.568,3.836 -14.278,8.076 -0.786,-0.027 -1.588,-0.004 -2.402,0.081 -7.534,0.782 -13.143,6.219 -12.528,12.144 0.106,1.023 0.395,1.992 0.832,2.894 -4.537,3.018 -7.254,7.644 -6.747,12.523 0.488,4.7 3.855,8.553 8.624,10.637 0.004,0.05 0.006,0.1 0.011,0.151 0.597,5.751 6.838,9.847 14.093,9.368 4.389,3.478 10.753,5.337 17.601,4.626 4.808,-0.499 9.121,-2.189 12.505,-4.641 0.613,0.002 1.235,-0.026 1.864,-0.091 7.534,-0.782 13.143,-6.219 12.528,-12.144 -0.004,-0.037 -0.011,-0.073 -0.015,-0.11 4.942,-3.368 7.886,-8.463 7.329,-13.834 z"
   id="path9080" />
		<g
   id="g9102">
			<g
   id="g9096">
				<path
   style="fill:#263238"
   d="m 314.599,265.695 c -0.806,3.041 -5.632,4.4 -10.778,3.036 -5.146,-1.364 -8.665,-4.935 -7.858,-7.976 0.806,-3.041 5.632,-4.4 10.778,-3.036 5.146,1.364 8.664,4.935 7.858,7.976 z"
   id="path9082" />
				<path
   style="fill:#263238"
   d="m 321.3,256.669 c 0.683,-0.427 1.15,-0.956 1.319,-1.594 0.791,-2.986 -4.916,-7.089 -12.748,-9.166 -7.832,-2.076 -14.823,-1.339 -15.614,1.647 -0.169,0.638 -0.026,1.329 0.356,2.038 -0.233,0.269 -0.406,0.564 -0.492,0.89 -0.167,0.631 -0.016,1.316 0.378,2.019 -0.25,0.272 -0.426,0.575 -0.514,0.909 -0.166,0.627 -0.006,1.309 0.406,2.01 -0.264,0.273 -0.451,0.578 -0.542,0.918 -0.165,0.625 0.002,1.306 0.436,2.005 -0.279,0.272 -0.48,0.577 -0.572,0.923 -0.658,2.482 4.087,5.894 10.598,7.62 6.511,1.726 12.323,1.113 12.981,-1.369 0.092,-0.346 0.069,-0.71 -0.039,-1.085 0.722,-0.393 1.206,-0.901 1.371,-1.526 0.09,-0.341 0.079,-0.698 -0.016,-1.066 0.705,-0.404 1.182,-0.918 1.348,-1.545 0.089,-0.335 0.086,-0.685 0.003,-1.044 0.691,-0.416 1.161,-0.935 1.329,-1.566 0.085,-0.328 0.081,-0.669 0.012,-1.018 z"
   id="path9084" />
				<path
   style="opacity:0.3;fill:#ffffff"
   d="m 321.3,256.669 c 0.683,-0.427 1.15,-0.956 1.319,-1.594 0.791,-2.986 -4.916,-7.089 -12.748,-9.166 -7.832,-2.076 -14.823,-1.339 -15.614,1.647 -0.169,0.638 -0.026,1.329 0.356,2.038 -0.233,0.269 -0.406,0.564 -0.492,0.89 -0.167,0.631 -0.016,1.316 0.378,2.019 -0.25,0.272 -0.426,0.575 -0.514,0.909 -0.166,0.627 -0.006,1.309 0.406,2.01 -0.264,0.273 -0.451,0.578 -0.542,0.918 -0.165,0.625 0.002,1.306 0.436,2.005 -0.279,0.272 -0.48,0.577 -0.572,0.923 -0.658,2.482 4.087,5.894 10.598,7.62 6.511,1.726 12.323,1.113 12.981,-1.369 0.092,-0.346 0.069,-0.71 -0.039,-1.085 0.722,-0.393 1.206,-0.901 1.371,-1.526 0.09,-0.341 0.079,-0.698 -0.016,-1.066 0.705,-0.404 1.182,-0.918 1.348,-1.545 0.089,-0.335 0.086,-0.685 0.003,-1.044 0.691,-0.416 1.161,-0.935 1.329,-1.566 0.085,-0.328 0.081,-0.669 0.012,-1.018 z"
   id="path9086" />
				<path
   style="fill:#407bff"
   d="m 340.077,233.283 c 3.83,-14.449 -5.306,-29.283 -20.24,-32.159 -12.884,-2.481 -25.785,5.284 -29.655,17.821 -2.515,8.148 -0.834,16.509 3.745,22.864 0.831,1.153 1.073,2.636 0.577,3.968 -0.024,0.065 -0.045,0.131 -0.063,0.198 -0.804,3.032 4.992,7.199 12.946,9.307 7.953,2.108 15.052,1.36 15.856,-1.673 0.017,-0.065 0.031,-0.131 0.042,-0.197 0.235,-1.418 1.2,-2.586 2.507,-3.185 6.805,-3.119 12.216,-9.141 14.285,-16.944 z"
   id="path9088" />
				<path
   style="opacity:0.3;fill:#ffffff"
   d="m 340.077,233.283 c 3.83,-14.449 -5.306,-29.283 -20.24,-32.159 -12.884,-2.481 -25.785,5.284 -29.655,17.821 -2.515,8.148 -0.834,16.509 3.745,22.864 0.831,1.153 1.073,2.636 0.577,3.968 -0.024,0.065 -0.045,0.131 -0.063,0.198 -0.804,3.032 4.992,7.199 12.946,9.307 7.953,2.108 15.052,1.36 15.856,-1.673 0.017,-0.065 0.031,-0.131 0.042,-0.197 0.235,-1.418 1.2,-2.586 2.507,-3.185 6.805,-3.119 12.216,-9.141 14.285,-16.944 z"
   id="path9090" />
				<g
   id="g9094">
					<path
   style="fill:#263238"
   d="m 312.921,252.351 c -0.04,0 -0.082,-0.008 -0.121,-0.024 -0.159,-0.067 -0.233,-0.25 -0.166,-0.408 0.198,-0.468 4.716,-10.992 11.558,-13.727 l -3.724,-0.987 c -0.121,-0.031 -0.211,-0.133 -0.229,-0.256 l -0.472,-3.27 -4.396,5.161 c -0.078,0.091 -0.201,0.134 -0.317,0.099 -0.116,-0.03 -0.204,-0.125 -0.227,-0.243 l -1.277,-6.738 -4.22,4.47 c -0.078,0.084 -0.194,0.12 -0.306,0.087 -0.111,-0.029 -0.196,-0.116 -0.223,-0.228 l -1.443,-5.939 -2.056,2.641 c -0.077,0.099 -0.205,0.144 -0.325,0.109 l -4.008,-1.062 c 1.201,2.229 4.778,9.801 2.722,17.557 -0.044,0.167 -0.217,0.27 -0.381,0.221 -0.167,-0.044 -0.266,-0.214 -0.222,-0.381 2.366,-8.926 -2.966,-17.636 -3.02,-17.723 -0.068,-0.108 -0.063,-0.247 0.014,-0.351 0.076,-0.102 0.207,-0.15 0.33,-0.115 l 4.524,1.199 2.326,-2.988 c 0.073,-0.094 0.192,-0.138 0.311,-0.113 0.117,0.025 0.209,0.115 0.237,0.231 l 1.46,6.009 4.245,-4.496 c 0.08,-0.085 0.202,-0.118 0.314,-0.085 0.112,0.033 0.197,0.126 0.219,0.241 l 1.27,6.698 4.421,-5.19 c 0.08,-0.093 0.208,-0.133 0.324,-0.097 0.118,0.033 0.205,0.133 0.222,0.254 l 0.541,3.748 4.524,1.199 c 0.136,0.036 0.231,0.158 0.232,0.299 0.001,0.141 -0.093,0.265 -0.228,0.302 -7.106,1.962 -12.097,13.588 -12.146,13.705 -0.05,0.119 -0.166,0.191 -0.287,0.191 z"
   id="path9092" />
				</g>
			</g>
			<path
   style="opacity:0.4;fill:#ffffff"
   d="m 326.832,210.611 c 1.137,5.594 -4.437,11.449 -12.449,13.077 -8.013,1.629 -15.43,-1.586 -16.567,-7.179 -1.137,-5.594 4.437,-11.449 12.449,-13.077 8.012,-1.629 15.43,1.586 16.567,7.179 z"
   id="path9098" />
			<path
   style="opacity:0.4;fill:#ffffff"
   d="m 320.538,228.463 c 0.457,2.246 -1.781,4.596 -4.998,5.25 -3.217,0.654 -6.194,-0.637 -6.651,-2.882 -0.456,-2.246 1.781,-4.596 4.998,-5.25 3.217,-0.654 6.195,0.636 6.651,2.882 z"
   id="path9100" />
		</g>
		<g
   id="g9110">
			<path
   style="fill:#407bff"
   d="m 205.878,132.196 -2.07,1.731 2.949,4.286 2.356,-1.315 c 1.244,1.191 2.713,2.165 4.363,2.838 l -0.239,2.68 5.116,0.945 0.735,-2.588 c 1.781,-0.039 3.501,-0.424 5.088,-1.092 l 1.731,2.07 4.286,-2.949 -1.314,-2.356 c 1.191,-1.245 2.165,-2.713 2.838,-4.363 l 2.68,0.238 0.945,-5.116 -2.589,-0.735 c -0.039,-1.781 -0.424,-3.501 -1.091,-5.089 l 2.07,-1.731 -2.949,-4.286 -2.357,1.314 c -1.245,-1.191 -2.713,-2.165 -4.363,-2.838 l 0.239,-2.68 -5.116,-0.945 -0.735,2.589 c -1.78,0.039 -3.501,0.424 -5.088,1.091 l -1.731,-2.07 -4.286,2.949 1.314,2.357 c -1.191,1.244 -2.165,2.713 -2.838,4.362 l -2.68,-0.239 -0.945,5.116 2.589,0.735 c 0.039,1.783 0.424,3.503 1.092,5.091 z m 5.966,-6.687 c 0.707,-3.825 4.381,-6.353 8.205,-5.646 3.825,0.707 6.353,4.38 5.646,8.205 -0.707,3.825 -4.38,6.353 -8.206,5.646 -3.824,-0.706 -6.352,-4.38 -5.645,-8.205 z"
   id="path9104" />
			<path
   style="opacity:0.6;fill:#407bff"
   d="m 243.794,150.022 3.676,0.679 0.528,-1.86 c 1.28,-0.028 2.515,-0.305 3.656,-0.784 l 1.244,1.488 3.079,-2.119 -0.944,-1.693 c 0.856,-0.894 1.556,-1.95 2.039,-3.135 l 1.925,0.172 0.679,-3.676 -1.86,-0.528 c -0.028,-1.28 -0.305,-2.516 -0.785,-3.656 l 1.487,-1.244 -2.119,-3.08 -1.693,0.944 c -0.894,-0.855 -1.949,-1.556 -3.135,-2.039 l 0.172,-1.925 -3.676,-0.68 -0.528,1.86 c -1.28,0.028 -2.515,0.305 -3.656,0.784 l -1.244,-1.487 -3.079,2.119 0.944,1.693 c -0.856,0.894 -1.556,1.949 -2.039,3.134 l -1.926,-0.171 -0.679,3.676 1.86,0.528 c 0.028,1.279 0.304,2.515 0.784,3.656 l -1.487,1.244 2.119,3.08 1.693,-0.945 c 0.894,0.856 1.95,1.556 3.135,2.039 z m -1.001,-12.148 c 0.508,-2.748 3.147,-4.564 5.895,-4.057 2.749,0.508 4.565,3.147 4.057,5.895 -0.508,2.748 -3.147,4.565 -5.896,4.057 -2.747,-0.507 -4.564,-3.147 -4.056,-5.895 z"
   id="path9106" />
			<path
   style="opacity:0.5;fill:#407bff"
   d="m 215.535,158.377 c 0.033,1.523 0.362,2.995 0.934,4.353 l -1.771,1.481 2.523,3.666 2.016,-1.124 c 1.065,1.019 2.321,1.852 3.732,2.427 l -0.204,2.293 4.376,0.808 0.628,-2.214 c 1.523,-0.033 2.995,-0.363 4.353,-0.934 l 1.481,1.771 3.667,-2.523 -1.124,-2.016 c 1.019,-1.064 1.852,-2.321 2.427,-3.732 l 2.292,0.204 0.809,-4.376 -2.214,-0.628 c -0.033,-1.523 -0.362,-2.995 -0.933,-4.353 l 1.77,-1.481 -2.523,-3.666 -2.016,1.124 c -1.065,-1.019 -2.321,-1.852 -3.732,-2.428 l 0.204,-2.292 -4.376,-0.809 -0.628,2.214 c -1.523,0.033 -2.994,0.363 -4.353,0.934 l -1.481,-1.77 -3.666,2.522 1.125,2.016 c -1.019,1.065 -1.852,2.321 -2.428,3.732 l -2.293,-0.204 -0.808,4.376 z m 6.037,-1.367 c 0.605,-3.272 3.747,-5.434 7.02,-4.83 3.272,0.604 5.434,3.747 4.83,7.019 -0.605,3.272 -3.747,5.434 -7.019,4.83 -3.273,-0.604 -5.435,-3.747 -4.831,-7.019 z"
   id="path9108" />
		</g>
		<g
   id="g9114">
			<path
   style="fill:#407bff"
   d="m 115.723,162.048 c -0.219,-2.11 -2.177,-3.356 -5.08,-3.055 -2.79,0.29 -4.716,1.557 -5.844,3.541 l -3.903,-1.995 c 1.813,-3.085 5.027,-5.171 9.739,-5.66 5.542,-0.575 9.499,1.567 9.949,5.903 0.638,6.145 -5.75,7.379 -5.289,11.828 l -4.788,0.497 c -0.579,-5.58 5.608,-7.289 5.216,-11.059 z m -5.189,17.191 c -0.169,-1.621 0.942,-3.032 2.715,-3.216 1.734,-0.18 3.111,0.973 3.279,2.594 0.169,1.621 -0.939,3.069 -2.673,3.249 -1.772,0.185 -3.152,-1.006 -3.321,-2.627 z"
   id="path9112" />
		</g>
	</g>
</g>
<g
   id="Character"
   transform="matrix(-1,0,0,1,500,0)">
	<g
   id="g9153">
		<g
   id="g9135">
			<polygon
   style="fill:#263238"
   points="287.113,383.513 289.114,418.719 282.986,418.719 274.981,383.513 "
   id="polygon9119" />
			<polygon
   style="fill:#263238"
   points="225.074,383.513 227.075,418.719 220.947,418.719 212.942,383.513 "
   id="polygon9121" />
			<polygon
   style="fill:#263238"
   points="137.895,383.513 135.894,418.719 142.022,418.719 150.027,383.513 "
   id="polygon9123" />
			<polygon
   style="fill:#263238"
   points="199.934,383.513 197.933,418.719 204.061,418.719 212.066,383.513 "
   id="polygon9125" />
			<polygon
   style="opacity:0.3;fill:#ffffff;enable-background:new"
   points="287.113,383.513 289.114,418.719 282.986,418.719 274.981,383.513 "
   id="polygon9127" />
			<polygon
   style="opacity:0.2;fill:#ffffff;enable-background:new"
   points="199.934,383.513 197.933,418.719 204.061,418.719 212.066,383.513 "
   id="polygon9129" />
			<polygon
   style="opacity:0.3;fill:#ffffff;enable-background:new"
   points="225.074,383.513 227.075,418.719 220.947,418.719 212.942,383.513 "
   id="polygon9131" />
			<polygon
   style="opacity:0.2;fill:#ffffff;enable-background:new"
   points="137.895,383.513 135.894,418.719 142.022,418.719 150.027,383.513 "
   id="polygon9133" />
		</g>
		<g
   id="g9143">
			<path
   style="fill:#407bff"
   d="m 220.631,290.272 6.663,60.304 c 0.791,7.158 -4.457,12.966 -11.717,12.966 h -76.87 c -3.65,0 -6.932,-2.918 -7.33,-6.517 l -8.088,-73.201 c -0.398,-3.599 2.24,-6.518 5.89,-6.518 h 76.87 c 7.26,0 13.791,5.807 14.582,12.966 z"
   id="path9137" />
			<path
   style="opacity:0.6;fill:#ffffff;enable-background:new"
   d="m 220.631,290.272 6.663,60.304 c 0.791,7.158 -4.457,12.966 -11.717,12.966 h -76.87 c -3.65,0 -6.932,-2.918 -7.33,-6.517 l -8.088,-73.201 c -0.398,-3.599 2.24,-6.518 5.89,-6.518 h 76.87 c 7.26,0 13.791,5.807 14.582,12.966 z"
   id="path9139" />
			<path
   style="opacity:0.1"
   d="m 150.591,290.272 6.663,60.304 c 0.791,7.158 -4.457,12.966 -11.717,12.966 h -6.83 c -3.65,0 -6.932,-2.918 -7.33,-6.517 l -8.088,-73.201 c -0.398,-3.599 2.24,-6.518 5.89,-6.518 h 6.83 c 7.26,0 13.791,5.807 14.582,12.966 z"
   id="path9141" />
		</g>
		<g
   id="g9151">
			<path
   style="fill:#407bff"
   d="m 295.068,362.93 v 19.67 c 0,2.74 -2.23,4.97 -4.97,4.97 H 138.24 c -2.74,0 -4.97,-2.23 -4.97,-4.97 v -19.67 c 0,-2.75 2.23,-4.97 4.97,-4.97 h 151.858 c 2.74,0 4.97,2.22 4.97,4.97 z"
   id="path9145" />
			<path
   style="opacity:0.6;fill:#ffffff;enable-background:new"
   d="m 295.068,362.93 v 19.67 c 0,2.74 -2.23,4.97 -4.97,4.97 H 138.24 c -2.74,0 -4.97,-2.23 -4.97,-4.97 v -19.67 c 0,-2.75 2.23,-4.97 4.97,-4.97 h 151.858 c 2.74,0 4.97,2.22 4.97,4.97 z"
   id="path9147" />
			<path
   style="opacity:0.1"
   d="m 205.008,362.93 v 19.67 c 0,2.74 -2.23,4.97 -4.97,4.97 H 138.24 c -2.74,0 -4.97,-2.23 -4.97,-4.97 v -19.67 c 0,-2.75 2.23,-4.97 4.97,-4.97 h 61.798 c 2.74,0 4.97,2.22 4.97,4.97 z"
   id="path9149" />
		</g>
	</g>
	<g
   id="g9275">
		<polygon
   style="fill:#ebb376"
   points="235.975,406.261 238.545,396.667 240.916,387.87 249.235,389.711 245.703,399.863 242.555,408.883 "
   id="polygon9155" />
		<polygon
   style="opacity:0.2;enable-background:new"
   points="238.473,396.848 240.881,387.96 249.217,389.756 245.621,400.066 "
   id="polygon9157" />
		<path
   style="fill:#263238"
   d="m 192.763,322.468 c 0,0 54.984,-7.414 70.281,2.344 15.297,9.758 -14.312,69.201 -14.312,69.201 l -9.259,-2.046 c 0,0 6.939,-47.116 6.42,-49.091 -0.519,-1.975 -26.415,10.885 -61.863,12.103 z"
   id="path9159" />
		<path
   style="opacity:0.5;fill:#ffffff;enable-background:new"
   d="m 192.763,322.468 c 0,0 54.984,-7.414 70.281,2.344 15.297,9.758 -14.312,69.201 -14.312,69.201 l -9.259,-2.046 c 0,0 6.939,-47.116 6.42,-49.091 -0.519,-1.975 -26.415,10.885 -61.863,12.103 z"
   id="path9161" />
		<polygon
   style="fill:#ebb376"
   points="296.745,410.858 289.056,404.572 282.012,398.793 287.11,391.967 294.912,399.36 301.841,405.938 "
   id="polygon9163" />
		<path
   style="fill:#2e353a"
   d="m 292.033,407.723 c -0.257,-0.738 8.943,-3.531 8.943,-3.531 0,0 7.634,3.553 13.477,2.805 5.843,-0.747 4.049,3.598 -1.953,5.847 -6.002,2.248 -10.582,3.963 -14.846,5.56 -4.265,1.597 -2.96,-3.034 -5.621,-10.681 z"
   id="path9165" />
		
			<path
   style="fill:none;stroke:#577afa;stroke-width:0.4831;stroke-linecap:round;stroke-linejoin:round;stroke-miterlimit:10"
   d="m 302.436,404.727 c 0,0 -0.067,-3.757 1.897,-3.592 2.26,0.19 -1.897,3.592 -1.897,3.592 0,0 3.612,-2.677 4.491,-1.413 1.331,1.916 -4.491,1.413 -4.491,1.413 z"
   id="path9167" />
		<polygon
   style="opacity:0.2;enable-background:new"
   points="289.191,404.711 282.079,398.862 287.144,392.002 295.064,399.518 "
   id="polygon9169" />
		<path
   style="fill:#263238"
   d="m 208.363,329.579 c 0,0 -0.792,-10.88 -1.158,-13.1 -0.377,-2.356 -0.874,-5.111 -1.345,-6.515 -2.419,-7.257 -34.749,1.275 -34.749,1.275 l -0.918,4.972 c 0,0 -14.588,27.506 -4.84,37.415 2.963,3.013 8.772,4.368 14.706,4.32 0,0 18.13,0.877 51.842,-0.694 0,0 11.868,17.67 53.011,45.767 l 6.709,-7.026 c 0,0 -46.508,-53.452 -48.05,-54.697 -13.445,-10.86 -35.208,-11.717 -35.208,-11.717 z"
   id="path9171" />
		<path
   style="opacity:0.6;fill:#ffffff;enable-background:new"
   d="m 208.363,329.579 c 0,0 -0.792,-10.88 -1.158,-13.1 -0.377,-2.356 -0.874,-5.111 -1.345,-6.515 -2.419,-7.257 -34.749,1.275 -34.749,1.275 l -0.918,4.972 c 0,0 -14.764,27.327 -4.84,37.415 2.963,3.013 8.772,4.368 14.706,4.32 0,0 18.13,0.877 51.842,-0.694 0,0 11.868,17.67 53.011,45.767 l 6.709,-7.026 c 0,0 -46.508,-53.452 -48.05,-54.697 -13.445,-10.86 -35.208,-11.717 -35.208,-11.717 z"
   id="path9173" />
		<polygon
   style="fill:#263238"
   points="290.07,392.884 294.055,396.974 286.334,405.236 281.834,401.955 "
   id="polygon9175" />
		<polygon
   style="fill:#263238"
   points="250.615,392.787 248.526,398.1 237.82,394.459 238.961,389.008 "
   id="polygon9177" />
		<g
   id="g9183">
			
				<path
   style="fill:none;stroke:#577afa;stroke-width:0.4831;stroke-linecap:round;stroke-linejoin:round;stroke-miterlimit:10"
   d="m 245.893,408.603 c 0,0 1.374,-3.497 3.126,-2.594 2.016,1.04 -3.126,2.594 -3.126,2.594 0,0 4.362,-1.093 4.69,0.412 0.497,2.279 -4.69,-0.412 -4.69,-0.412 z"
   id="path9179" />
			<path
   style="fill:#2e353a"
   d="m 234.631,406.084 c 0.045,-0.781 9.614,0.157 9.614,0.157 0,0 5.695,6.202 11.38,7.745 5.685,1.544 2.365,4.873 -4.04,4.656 -6.405,-0.218 -11.293,-0.385 -15.844,-0.539 -4.552,-0.155 -1.576,-3.935 -1.11,-12.019 z"
   id="path9181" />
		</g>
		<g
   id="g9197">
			<g
   id="g9187">
				<path
   style="fill:#ebc0bb"
   d="m 200.095,255.264 c 4.167,2.25 8.457,4.597 12.598,6.719 1.04,0.52 2.065,1.039 3.065,1.491 0.978,0.449 2.01,0.858 2.658,1.079 0.148,0.051 0.258,0.081 0.241,0.095 l -0.055,0.009 c -0.055,-10e-4 -0.091,0.005 -0.16,0.012 -0.192,0.02 -0.395,0.023 -0.972,0.207 -0.157,0.054 -0.238,0.093 -0.444,0.186 -0.2,0.093 -0.393,0.205 -0.572,0.332 -0.44,0.294 -0.867,0.711 -1.228,1.252 -0.354,0.558 -0.548,1.077 -0.645,1.595 -0.097,0.409 -0.083,0.949 -0.07,1.098 0.008,0.119 0.025,0.237 0.048,0.353 l 0.034,0.174 0.049,0.165 0.022,0.068 c 0.05,0.119 0.04,0.085 0.051,0.091 -0.029,-0.12 -0.235,-0.534 -0.477,-0.932 -0.246,-0.411 -0.531,-0.864 -0.837,-1.318 -1.233,-1.839 -2.726,-3.719 -4.192,-5.61 -1.483,-1.887 -3.023,-3.762 -4.556,-5.654 l -9.285,-11.37 -0.006,-0.008 c -0.973,-1.191 -0.796,-2.946 0.395,-3.919 1.037,-0.847 2.503,-0.821 3.506,-0.014 3.896,3.13 7.64,6.368 11.288,9.774 1.831,1.694 3.622,3.437 5.396,5.234 1.786,1.797 3.497,3.652 5.227,5.738 0.431,0.53 0.865,1.075 1.3,1.687 0.435,0.627 0.875,1.264 1.365,2.259 0.13,0.288 0.249,0.535 0.387,0.949 l 0.094,0.287 0.1,0.39 0.085,0.399 c 0.03,0.192 0.053,0.387 0.068,0.582 0.039,0.302 0.024,0.995 -0.086,1.557 -0.055,0.301 -0.168,0.682 -0.296,1.006 -0.121,0.324 -0.303,0.674 -0.524,1.01 -0.435,0.678 -0.991,1.188 -1.549,1.577 -0.246,0.164 -0.507,0.314 -0.773,0.444 -0.273,0.132 -0.431,0.185 -0.659,0.267 -0.868,0.286 -1.381,0.315 -1.879,0.354 -0.223,0.01 -0.413,0.011 -0.621,0.009 l -0.515,-0.025 c -0.629,-0.049 -1.123,-0.131 -1.575,-0.217 -1.745,-0.35 -3.023,-0.808 -4.327,-1.27 -1.279,-0.47 -2.502,-0.949 -3.691,-1.466 -4.763,-2.055 -9.147,-4.357 -13.542,-6.942 -2.663,-1.566 -3.553,-4.994 -1.986,-7.658 1.53,-2.601 4.836,-3.51 7.47,-2.092 z"
   id="path9185" />
			</g>
			<path
   style="fill:#407bff"
   d="m 198.74,254.556 2.907,10.705 1.603,5.921 c 0,0 2.085,0.896 5.146,1.83 3.686,1.131 8.775,2.34 13.337,2.129 l -1.802,-3.697 c 0,0 -6.064,-5.62 -14.711,-13.982 -0.002,0.001 -5.379,-2.546 -6.48,-2.906 z"
   id="path9189" />
			<polygon
   style="fill:#407bff"
   points="218.509,276.096 222.816,275.079 219.93,271.445 214.833,266.661 "
   id="polygon9191" />
			<polygon
   style="opacity:0.6;fill:#ffffff;enable-background:new"
   points="218.509,276.096 222.816,275.079 219.93,271.445 214.833,266.661 "
   id="polygon9193" />
			<path
   style="opacity:0.2"
   d="m 201.647,265.261 1.603,5.921 c 0,0 2.085,0.896 5.146,1.83 -0.956,-5.535 -6.507,-9.057 -6.507,-9.057 -0.136,0.4 -0.216,0.839 -0.242,1.306 z"
   id="path9195" />
		</g>
		<path
   style="fill:#407bff"
   d="m 206.125,309.765 -35.7,2.07 c -0.31,-9.09 -1.22,-17.57 -2.36,-25 -0.03,-0.22 -0.07,-0.45 -0.1,-0.67 -0.3,-1.92 -0.62,-3.78 -0.94,-5.55 -0.31,-1.74 -0.63,-3.4 -0.96,-4.98 -0.44,-2.19 -0.9,-4.22 -1.33,-6.06 -0.33,-1.41 -0.65,-2.71 -0.96,-3.89 -1.29,-5.06 -2.26,-7.97 -2.26,-7.97 18.94,-10.53 37.74,-2.97 37.74,-2.97 10.09,12.93 6.87,55.02 6.87,55.02 z"
   id="path9199" />
		<path
   style="fill:#407bff"
   d="m 179.59,249.802 c -11.199,0.641 -12.075,9.943 -12.075,9.943 l 5.106,-2.557 15.983,9.4 3.18,-10.608 4.796,0.607 c 10e-4,0 -7.261,-7.341 -16.99,-6.785 z"
   id="path9201" />
		<path
   style="opacity:0.6;fill:#ffffff;enable-background:new"
   d="m 179.59,249.802 c -11.199,0.641 -12.075,9.943 -12.075,9.943 l 5.106,-2.557 15.983,9.4 3.18,-10.608 4.796,0.607 c 10e-4,0 -7.261,-7.341 -16.99,-6.785 z"
   id="path9203" />
		<path
   style="fill:#eec1bb"
   d="m 188.069,265.996 -15.168,-11.721 c 3.299,-3.804 0.934,-13.588 -0.839,-18.9 l 11.46,8.157 c -0.493,4.235 -0.057,8.69 6.151,9.772 0,0 -1.62,12.66 -1.604,12.692 z"
   id="path9205" />
		<path
   style="opacity:0.2"
   d="m 176.734,238.704 6.782,4.824 c -0.12,1.003 -0.183,2.016 -0.123,2.994 -2.343,-0.198 -5.835,-2.527 -6.398,-4.91 -0.28,-1.189 -0.382,-2.341 -0.261,-2.908 z"
   id="path9207" />
		<g
   id="g9239">
			<path
   style="fill:#263238"
   d="m 173.513,207.884 c -4.097,0.615 -13.728,6.049 -11.552,18.724 2.176,12.675 14.835,15.048 20.769,10.894 5.934,-4.154 -2.313,-30.653 -9.217,-29.618 z"
   id="path9209" />
			<path
   style="fill:#263238"
   d="m 178.51,208.303 c 5.649,-1.187 17.275,5.759 11.664,15.016 -7.023,11.59 -31.46,-10.857 -11.664,-15.016 z"
   id="path9211" />
			<path
   style="fill:#eec1bb"
   d="m 193.325,232.555 c 0.01,0.49 -0.01,0.98 -0.03,1.44 -0.17,3.28 -1.63,5.88 -3.81,7.58 -3.75,2.92 -9.62,3.13 -14.58,-0.57 -5.21,-3.89 -5.94,-7.58 -8.08,-16.19 -2.14,-8.62 5.17,-16.29 14.18,-13.96 8.61,2.22 12.28,13.66 12.32,21.7 z"
   id="path9213" />
			<path
   style="fill:#263238"
   d="m 173.955,218.082 c -4.45,6.483 5.84,13.047 -4.06,13.206 -9.9,0.158 -6.695,-14.02 -1.015,-17.529 5.679,-3.51 5.075,4.323 5.075,4.323 z"
   id="path9215" />
			<path
   style="fill:#263238"
   d="m 179.602,224.585 c 0.148,0.731 0.65,1.273 1.12,1.211 0.47,-0.062 0.731,-0.705 0.582,-1.436 -0.148,-0.731 -0.65,-1.273 -1.12,-1.211 -0.469,0.062 -0.73,0.705 -0.582,1.436 z"
   id="path9217" />
			<path
   style="fill:#263238"
   d="m 188.472,223.545 c 0.149,0.731 0.65,1.274 1.12,1.211 0.47,-0.062 0.731,-0.705 0.582,-1.436 -0.148,-0.731 -0.65,-1.273 -1.12,-1.211 -0.47,0.062 -0.73,0.705 -0.582,1.436 z"
   id="path9219" />
			<path
   style="fill:#263238"
   d="m 188.855,222.177 1.624,-0.735 c 0,0 -0.607,1.489 -1.624,0.735 z"
   id="path9221" />
			<path
   style="fill:#d4827d"
   d="m 186.675,225.25 c 0,0 1.859,2.986 3.511,4.327 -0.766,1.026 -2.464,0.828 -2.464,0.828 z"
   id="path9223" />
			<path
   style="fill:#eec1bb"
   d="m 166.467,233.263 c 0.996,1.735 2.524,2.751 3.893,3.031 2.059,0.421 2.804,-1.955 1.994,-4.238 -0.729,-2.055 -2.678,-4.749 -4.63,-4.13 -1.923,0.611 -2.396,3.353 -1.257,5.337 z"
   id="path9225" />
			<path
   style="fill:#263238"
   d="m 177.999,221.645 c 0.113,-0.005 0.221,-0.055 0.296,-0.147 1.155,-1.454 2.739,-1.248 2.757,-1.246 0.235,0.031 0.443,-0.131 0.459,-0.368 0.016,-0.237 -0.164,-0.455 -0.402,-0.49 -0.083,-0.011 -2.071,-0.271 -3.504,1.534 -0.143,0.18 -0.104,0.453 0.086,0.611 0.092,0.075 0.202,0.11 0.308,0.106 z"
   id="path9227" />
			<path
   style="fill:#263238"
   d="m 191.339,220.073 c 0.108,0.002 0.213,-0.035 0.292,-0.114 0.163,-0.161 0.154,-0.434 -0.02,-0.609 -1.751,-1.751 -3.7,-1.444 -3.783,-1.429 -0.233,0.04 -0.375,0.262 -0.317,0.496 0.057,0.234 0.291,0.392 0.523,0.354 0.076,-0.013 1.592,-0.23 2.984,1.163 0.091,0.09 0.207,0.137 0.321,0.139 z"
   id="path9229" />
			<path
   style="fill:#263238"
   d="m 179.985,223.217 1.624,-0.735 c 0.001,0 -0.607,1.489 -1.624,0.735 z"
   id="path9231" />
			<path
   style="fill:none;stroke:#263238;stroke-width:0.5;stroke-linecap:round;stroke-linejoin:round;stroke-miterlimit:10"
   d="m 183.363,232.089 c 0,0 1.467,1.592 4.153,1.746"
   id="path9233" />
			<path
   style="fill:#263238"
   d="m 183.063,211.598 c 0,0 -1.401,8.304 -12.075,8.911 l -7.165,6.594 c 0,0 -3.378,-9.415 6.512,-17.327 9.89,-7.912 20.875,3.631 11.012,8.115 -0.001,0 3.72,-3.724 1.716,-6.293 z"
   id="path9235" />
			<path
   style="fill:#263238"
   d="m 165.276,215.587 c 0,0 -3.574,-6.62 -10.041,-3.799 -7.028,3.066 -8.901,17.436 -5.835,26.916 3.066,9.48 9.593,9.381 9.593,9.381 0,0 -3.066,-3.74 -3.066,-15.123 0,0 0.396,5.035 1.385,7.507 0,0 -0.593,-12.576 0.692,-17.513 1.286,-4.938 5.511,-2.069 5.511,-2.069 z"
   id="path9237" />
		</g>
		<g
   id="g9247">
			<polygon
   style="fill:#263238"
   points="181.638,311.923 181.638,315.083 169.828,315.733 170.528,312.603 "
   id="polygon9241" />
			<polygon
   style="fill:#263238"
   points="182.978,315.003 182.978,311.843 206.618,310.393 207.058,313.673 "
   id="polygon9243" />
			<path
   style="fill:none;stroke:#ffffff;stroke-miterlimit:10"
   d="m 193.587,311.747 0.177,2.038 c 0.041,0.472 0.451,0.826 0.924,0.798 l 3.049,-0.183 c 0.48,-0.029 0.847,-0.44 0.821,-0.919 l -0.111,-2.077 c -0.026,-0.488 -0.447,-0.861 -0.935,-0.826 l -3.115,0.221 c -0.488,0.035 -0.852,0.461 -0.81,0.948 z"
   id="path9245" />
		</g>
		<polygon
   style="opacity:0.5;fill:#ffffff;enable-background:new"
   points="290.07,392.884 294.055,396.974 286.334,405.236 281.834,401.955 "
   id="polygon9249" />
		<polygon
   style="opacity:0.4;fill:#ffffff;enable-background:new"
   points="250.615,392.787 248.526,398.1 237.82,394.459 238.961,389.008 "
   id="polygon9251" />
		<path
   style="opacity:0.2"
   d="m 193.325,232.555 c 0.01,0.49 -0.01,0.98 -0.03,1.44 -0.17,3.28 -1.63,5.88 -3.81,7.58 -1.055,-5.769 0.701,-6.956 3.84,-9.02 z"
   id="path9253" />
		<path
   style="fill:#eec1bb"
   d="m 196.989,232.605 2.318,1.5 c 0.872,0.564 1.417,1.514 1.464,2.551 l 0.219,4.847 c 0.087,1.938 -0.769,3.797 -2.298,4.991 l -0.947,0.739 c -4.014,-2.224 -6.713,-7.585 -6.713,-7.585 l -0.939,-1.443 c -0.836,-1.285 -0.531,-2.912 0.7,-3.736 l 2.835,-1.897 c 0.98,-0.656 2.317,-0.642 3.361,0.033 z"
   id="path9255" />
		<path
   style="opacity:0.2"
   d="m 214.833,274.598 c 0,0 3.335,-3.791 6.039,-3.797 1.385,-0.003 3.108,0.94 3.108,0.94 0,0 -1.334,2.636 -3.743,2.987 -1.781,0.259 -5.404,-0.13 -5.404,-0.13 z"
   id="path9257" />
		<path
   style="fill:#eec1bb"
   d="m 224.804,278.526 -1.376,2.393 c -0.518,0.9 -1.438,1.494 -2.471,1.595 l -4.828,0.472 c -1.93,0.189 -3.832,-0.569 -5.104,-2.033 l -0.787,-0.907 c 2.011,-4.125 7.224,-7.1 7.224,-7.1 l 1.392,-1.013 c 1.24,-0.901 2.88,-0.683 3.767,0.504 l 2.043,2.732 c 0.704,0.943 0.76,2.279 0.14,3.357 z"
   id="path9259" />
		<path
   style="opacity:0.2"
   d="m 183.515,289.835 c -4.56,0.83 -10.92,-1.51 -15.55,-3.67 -0.3,-1.92 -0.62,-3.78 -0.94,-5.55 -0.31,-1.74 -0.63,-3.4 -0.96,-4.98 -0.44,-2.19 -0.9,-4.22 -1.33,-6.06 -0.33,-1.41 -0.65,-2.71 -0.96,-3.89 1.3,-1.47 3.22,-2.15 6.05,-1.41 11.86,3.11 21.67,24.1 13.69,25.56 z"
   id="path9261" />
		<path
   style="opacity:0.2"
   d="m 164.734,269.58 c 0.434,1.838 0.891,3.866 1.335,6.053 0.324,1.58 0.643,3.245 0.955,4.984 0.943,-4.004 1.278,-10.111 -1.052,-16.34 z"
   id="path9263" />
		<g
   id="g9267">
			<path
   style="fill:#ebc0bb"
   d="m 168.918,262.875 9.814,10.707 c 1.638,1.751 3.25,3.534 4.876,5.139 0.395,0.381 0.805,0.82 1.182,1.163 0.377,0.351 0.781,0.741 1.066,0.966 l 0.233,0.203 0.058,0.051 c 0.006,0.006 -0.014,-0.009 -0.02,-0.011 -0.019,-0.01 -0.039,-0.018 -0.061,-0.023 -0.044,-0.018 -0.06,0.002 0.002,0.03 0.106,0.061 0.393,0.151 0.752,0.21 0.73,0.136 1.721,0.182 2.756,0.145 1.039,-0.028 2.141,-0.139 3.262,-0.27 2.249,-0.252 4.563,-0.7 6.895,-1.159 4.645,-0.975 9.411,-2.145 14.063,-3.375 l 0.068,-0.018 c 1.487,-0.393 3.01,0.493 3.403,1.98 0.338,1.28 -0.273,2.587 -1.398,3.177 -4.518,2.371 -9.082,4.411 -13.916,6.126 -2.411,0.871 -4.883,1.617 -7.481,2.25 -1.302,0.311 -2.64,0.564 -4.054,0.753 -1.417,0.183 -2.9,0.309 -4.622,0.198 -0.865,-0.069 -1.797,-0.197 -2.863,-0.519 -0.526,-0.156 -1.106,-0.387 -1.697,-0.689 l -0.457,-0.26 -0.217,-0.131 -0.128,-0.085 -0.512,-0.343 c -0.729,-0.478 -1.253,-0.899 -1.824,-1.335 -0.575,-0.438 -1.054,-0.854 -1.583,-1.287 -2,-1.73 -3.866,-3.44 -5.668,-5.215 -3.63,-3.52 -7.002,-7.144 -10.296,-10.955 -2.021,-2.337 -1.764,-5.87 0.573,-7.891 2.294,-1.983 5.74,-1.773 7.777,0.445 z"
   id="path9265" />
		</g>
		<path
   style="fill:#407bff"
   d="m 175.696,287.129 7.848,-8.356 -10.41,-14.306 c 0,0 -7.333,-10.794 -11.617,-6.749 -7.567,7.143 -0.605,17.159 14.179,29.411 z"
   id="path9269" />
		<polygon
   style="fill:#407bff"
   points="173.686,287.826 178.366,289.832 185.355,279.843 183.111,277.474 "
   id="polygon9271" />
		<polygon
   style="opacity:0.6;fill:#ffffff;enable-background:new"
   points="173.686,287.826 178.366,289.832 185.355,279.843 183.111,277.474 "
   id="polygon9273" />
	</g>
</g>
</svg>
