<?xml version="1.0" encoding="UTF-8" standalone="no"?>
<!-- Created with Inkscape (http://www.inkscape.org/) -->

<svg
   version="1.1"
   id="svg7080"
   width="666.66669"
   height="666.66669"
   viewBox="0 0 666.66669 666.66669"
   sodipodi:docname="ethics.svg"
   inkscape:version="1.2.2 (b0a8486541, 2022-12-01)"
   xmlns:inkscape="http://www.inkscape.org/namespaces/inkscape"
   xmlns:sodipodi="http://sodipodi.sourceforge.net/DTD/sodipodi-0.dtd"
   xmlns="http://www.w3.org/2000/svg"
   xmlns:svg="http://www.w3.org/2000/svg">
  <defs
     id="defs7084" />
  <sodipodi:namedview
     id="namedview7082"
     pagecolor="#ffffff"
     bordercolor="#666666"
     borderopacity="1.0"
     inkscape:showpageshadow="2"
     inkscape:pageopacity="0.0"
     inkscape:pagecheckerboard="0"
     inkscape:deskcolor="#d1d1d1"
     showgrid="false"
     inkscape:zoom="0.8549205"
     inkscape:cx="240.37323"
     inkscape:cy="298.8582"
     inkscape:window-width="1728"
     inkscape:window-height="1048"
     inkscape:window-x="0"
     inkscape:window-y="32"
     inkscape:window-maximized="1"
     inkscape:current-layer="g7090">
    <inkscape:page
       x="0"
       y="0"
       id="page7086"
       width="666.66669"
       height="666.66669" />
  </sodipodi:namedview>
  <g
     id="g7088"
     inkscape:groupmode="layer"
     inkscape:label="Page 1"
     transform="matrix(1.3333333,0,0,-1.3333333,0,666.66667)">
    <g
       id="g7090"
       transform="scale(0.1)">
      <path
         d="M 1253.86,1034.05 C 1639.4,748.219 2120.05,593.039 2599.95,599.5 c 312.85,4.199 628.24,77.301 897,237.512 537.58,320.428 822.62,941.158 965.3,1550.518 72.4,309.23 116.58,629.73 74.68,944.55 -41.91,314.81 -176.94,625.39 -416.51,833.89 -239.57,208.5 -591.22,298.87 -887.78,185.19 -445.4,-170.75 -668.92,-730.84 -1131.08,-848.95 -116.47,-29.77 -237.02,-27.66 -357.85,-25.55 -68.9,1.2 -137.89,2.4 -206.27,-2.31 C 1226.97,3452.99 927.305,3303.21 723.852,3067.72 386.16,2676.86 364.016,2197.12 620.191,1758.01 779.051,1485.72 1000.25,1222.08 1253.86,1034.05"
         style="fill:#fde6e9;fill-opacity:1;fill-rule:nonzero;stroke:none"
         id="path7094" />
      <path
         d="m 3819.45,4269.1 271.45,354.52 132.47,-452.52 c 1.46,-5.02 4.47,-9.26 8.4,-12.28 3.95,-3.02 8.82,-4.81 14.05,-4.92 l 471.4,-9.86 -271.45,-354.51 z m 872.89,-76.7 -428,8.96 -120.26,410.84 z m 87.1,-6.45 -664.3,508.65 c -10.49,8.03 -25.49,6.04 -33.53,-4.45 l -314.67,-410.96 c -8.03,-10.49 -6.04,-25.5 4.44,-33.53 l 664.3,-508.65 c 10.49,-8.03 25.5,-6.04 33.53,4.45 l 314.67,410.97 c 8.03,10.48 6.04,25.49 -4.44,33.52"
         style="fill:#fabdbe;fill-opacity:1;fill-rule:nonzero;stroke:none"
         id="path7096" />
      <path
         d="m 3257.1,3854.78 57.29,14.09 -4.47,49.04 c -0.54,5.92 2.52,11.59 7.77,14.4 16.24,8.66 31.18,19.66 44.4,32.68 4.24,4.18 10.56,5.4 16.06,3.12 l 45.52,-18.91 30.55,50.47 -37.88,31.55 c -4.56,3.81 -6.4,9.99 -4.67,15.68 5.4,17.76 8.21,36.09 8.36,54.5 0.04,5.95 3.65,11.28 9.15,13.56 l 45.51,18.79 -14.09,57.29 -49.04,-4.47 c -5.93,-0.53 -11.59,2.52 -14.4,7.77 -8.66,16.24 -19.65,31.18 -32.68,44.4 -4.17,4.24 -5.4,10.57 -3.13,16.06 l 18.92,45.52 -50.48,30.55 -31.54,-37.87 c -3.81,-4.57 -9.98,-6.42 -15.68,-4.69 -17.76,5.41 -36.09,8.23 -54.5,8.36 -5.94,0.05 -11.3,3.65 -13.56,9.16 l -18.78,45.51 -57.31,-14.09 4.48,-49.04 c 0.53,-5.93 -2.52,-11.6 -7.78,-14.4 -16.24,-8.66 -31.17,-19.66 -44.4,-32.68 -4.24,-4.17 -10.57,-5.41 -16.06,-3.13 l -45.51,18.92 -30.55,-50.48 37.87,-31.55 c 4.57,-3.8 6.42,-9.98 4.69,-15.68 -5.41,-17.75 -8.22,-36.08 -8.36,-54.49 -0.05,-5.94 -3.65,-11.29 -9.15,-13.56 l -45.52,-18.78 14.09,-57.31 49.05,4.47 c 5.91,0.55 11.59,-2.52 14.39,-7.77 8.65,-16.24 19.65,-31.17 32.68,-44.39 4.18,-4.24 5.41,-10.57 3.12,-16.06 l -18.91,-45.52 50.47,-30.55 31.55,37.87 c 3.82,4.57 10,6.41 15.68,4.68 17.75,-5.4 36.09,-8.21 54.49,-8.35 5.95,-0.05 11.29,-3.66 13.57,-9.16 z m 76.72,-11.6 -82.01,-20.18 c -7.11,-1.74 -14.42,1.96 -17.21,8.73 l -19.99,48.42 c -14.63,0.78 -29.17,3.01 -43.43,6.66 l -33.57,-40.28 c -4.69,-5.62 -12.77,-6.97 -19.02,-3.18 l -72.26,43.72 c -6.25,3.79 -8.79,11.58 -6,18.34 l 20.14,48.41 c -9.87,10.94 -18.6,22.78 -26.06,35.38 l -52.18,-4.75 c -7.28,-0.66 -13.96,4.1 -15.71,11.2 l -20.17,82.01 c -1.74,7.1 1.96,14.42 8.72,17.21 l 48.43,20 c 0.77,14.62 3.01,29.16 6.67,43.42 l -40.29,33.56 c -5.62,4.69 -6.97,12.77 -3.18,19.03 l 43.72,72.25 c 3.79,6.25 11.57,8.8 18.34,6 l 48.41,-20.12 c 10.94,9.85 22.79,18.58 35.39,26.05 l -4.76,52.17 c -0.65,7.29 4.1,13.96 11.2,15.71 l 82.01,20.17 c 7.11,1.75 14.42,-1.96 17.22,-8.72 l 19.99,-48.42 c 14.62,-0.78 29.17,-3.01 43.42,-6.67 l 33.56,40.29 c 4.69,5.63 12.77,6.97 19.03,3.18 l 72.24,-43.72 c 6.26,-3.79 8.81,-11.58 6.01,-18.34 l -20.12,-48.42 c 9.85,-10.93 18.58,-22.78 26.05,-35.37 l 52.18,4.75 c 7.29,0.66 13.96,-4.1 15.71,-11.21 l 20.17,-82 c 1.75,-7.1 -1.96,-14.42 -8.72,-17.21 l -48.43,-19.99 c -0.78,-14.63 -3.01,-29.17 -6.67,-43.43 l 40.29,-33.56 c 5.61,-4.69 6.97,-12.77 3.18,-19.03 l -43.72,-72.25 c -3.78,-6.26 -11.56,-8.81 -18.34,-6.01 l -48.42,20.13 c -10.93,-9.86 -22.77,-18.58 -35.37,-26.05 l 4.75,-52.17 c 0.66,-7.29 -4.1,-13.97 -11.2,-15.71"
         style="fill:#fabdbe;fill-opacity:1;fill-rule:nonzero;stroke:none"
         id="path7098" />
      <path
         d="m 3210.55,4167.5 c -35.52,-8.74 -57.32,-44.75 -48.58,-80.29 8.74,-35.54 44.76,-57.33 80.29,-48.6 35.53,8.75 57.34,44.77 48.6,80.3 -8.74,35.54 -44.77,57.33 -80.31,48.59 z m 38.77,-157.62 c -51.37,-12.64 -103.45,18.88 -116.09,70.26 -12.64,51.38 18.89,103.46 70.26,116.1 51.38,12.64 103.46,-18.88 116.11,-70.26 12.63,-51.38 -18.89,-103.46 -70.28,-116.1"
         style="fill:#fabdbe;fill-opacity:1;fill-rule:nonzero;stroke:none"
         id="path7100" />
      <path
         d="m 1489.85,4163.33 391.61,-41.82 4.04,37.81 c 11.53,107.97 -66.93,205.18 -174.9,216.72 -107.97,11.53 -205.18,-66.93 -216.71,-174.9 z m 406.99,-83.02 -430.72,46 c -10.8,1.15 -18.61,10.85 -17.46,21.64 l 6.12,57.36 c 13.83,129.54 130.47,223.67 260,209.83 129.53,-13.83 223.66,-130.46 209.83,-260 l -6.13,-57.36 c -1.15,-10.8 -10.84,-18.62 -21.64,-17.47"
         style="fill:#fabdbe;fill-opacity:1;fill-rule:nonzero;stroke:none"
         id="path7102" />
      <path
         d="m 1743.53,4684.39 c -65.24,6.97 -123.99,-40.44 -130.96,-105.68 -6.96,-65.25 40.45,-123.99 105.69,-130.95 65.24,-6.97 123.98,40.44 130.95,105.67 6.97,65.25 -40.44,124 -105.68,130.96 z m -29.45,-275.75 c -86.81,9.28 -149.88,87.44 -140.61,174.24 9.27,86.81 87.42,149.89 174.24,140.62 86.8,-9.27 149.88,-87.43 140.61,-174.24 -9.27,-86.81 -87.43,-149.88 -174.24,-140.62"
         style="fill:#fabdbe;fill-opacity:1;fill-rule:nonzero;stroke:none"
         id="path7104" />
      <path
         d="m 4434.58,3505.13 c -91.5,12.77 -176.33,-51.27 -189.1,-142.77 -12.77,-91.49 51.27,-176.32 142.77,-189.1 91.49,-12.77 176.33,51.28 189.1,142.78 12.77,91.49 -51.28,176.32 -142.77,189.09 z m -49.14,-352.06 c -102.63,14.33 -174.48,109.48 -160.15,212.11 14.33,102.63 109.48,174.47 212.11,160.14 102.63,-14.32 174.46,-109.47 160.14,-212.11 -14.33,-102.62 -109.48,-174.46 -212.1,-160.14"
         style="fill:#fabdbe;fill-opacity:1;fill-rule:nonzero;stroke:none"
         id="path7106" />
      <path
         d="m 4422.64,3419.54 c -47.26,6.6 -90.83,24.72 -126,52.43 l 12.61,16.01 c 32.34,-25.46 72.52,-42.15 116.22,-48.25 43.66,-6.1 86.86,-1.05 124.93,14.59 l 7.75,-18.86 c -41.42,-17.01 -88.27,-22.51 -135.51,-15.92"
         style="fill:#fabdbe;fill-opacity:1;fill-rule:nonzero;stroke:none"
         id="path7108" />
      <path
         d="m 4513.55,3190.4 c -32.32,25.46 -72.5,42.15 -116.16,48.24 -43.68,6.1 -86.91,1.06 -124.97,-14.58 l -7.76,18.86 c 41.42,17.01 88.29,22.51 135.55,15.91 47.24,-6.59 90.79,-24.72 125.96,-52.42 l -12.62,-16.01"
         style="fill:#fabdbe;fill-opacity:1;fill-rule:nonzero;stroke:none"
         id="path7110" />
      <path
         d="m 4434.58,3505.13 c -59.63,8.32 -118.52,-59.34 -131.29,-150.84 -12.78,-91.5 25.34,-172.7 84.96,-181.03 59.63,-8.32 118.52,59.34 131.3,150.84 12.77,91.5 -25.34,172.71 -84.97,181.03 z m -49.14,-352.06 c -70.77,9.88 -116.67,101.41 -102.35,204.04 14.33,102.63 83.55,178.09 154.31,168.21 70.75,-9.87 116.66,-101.41 102.33,-204.03 -14.32,-102.64 -83.54,-178.09 -154.29,-168.22"
         style="fill:#fabdbe;fill-opacity:1;fill-rule:nonzero;stroke:none"
         id="path7112" />
      <path
         d="m 4434.58,3505.13 c -24.64,3.44 -62.1,-63.68 -75.36,-158.64 -13.26,-94.97 4.39,-169.78 29.03,-173.23 24.64,-3.43 62.1,63.68 75.36,158.65 13.25,94.97 -4.39,169.78 -29.03,173.22 z m -49.14,-352.06 c -47.03,6.57 -59.01,106 -46.41,196.23 12.59,90.23 51.35,182.59 98.37,176.02 47.01,-6.56 58.99,-106 46.4,-196.23 -12.59,-90.23 -51.35,-182.58 -98.36,-176.02"
         style="fill:#fabdbe;fill-opacity:1;fill-rule:nonzero;stroke:none"
         id="path7114" />
      <path
         d="m 4396.94,3161.76 -20.2,2.82 49.16,352.06 20.18,-2.82 -49.14,-352.06"
         style="fill:#fabdbe;fill-opacity:1;fill-rule:nonzero;stroke:none"
         id="path7116" />
      <path
         d="m 4586.03,3304.53 -355.05,49.56 2.83,20.19 355.04,-49.56 -2.82,-20.19"
         style="fill:#fabdbe;fill-opacity:1;fill-rule:nonzero;stroke:none"
         id="path7118" />
      <path
         d="m 378.867,1924.33 c -91.492,12.78 -176.32,-51.28 -189.094,-142.77 -12.777,-91.49 51.274,-176.32 142.766,-189.09 91.5,-12.78 176.328,51.27 189.098,142.76 12.773,91.51 -51.27,176.33 -142.77,189.1 z m -49.144,-352.06 c -102.625,14.33 -174.469,109.48 -160.141,212.11 14.324,102.63 109.477,174.46 212.106,160.14 102.625,-14.33 174.472,-109.47 160.14,-212.1 C 527.5,1629.78 432.352,1557.95 329.723,1572.27"
         style="fill:#fabdbe;fill-opacity:1;fill-rule:nonzero;stroke:none"
         id="path7120" />
      <path
         d="m 366.934,1838.74 c -47.258,6.6 -90.829,24.72 -126,52.43 l 12.617,16.01 c 32.328,-25.46 72.515,-42.15 116.207,-48.25 43.66,-6.09 86.863,-1.05 124.93,14.59 l 7.753,-18.86 c -41.414,-17.01 -88.269,-22.51 -135.507,-15.92"
         style="fill:#fabdbe;fill-opacity:1;fill-rule:nonzero;stroke:none"
         id="path7122" />
      <path
         d="m 457.848,1609.6 c -32.328,25.47 -72.5,42.14 -116.16,48.24 -43.692,6.1 -86.911,1.05 -124.977,-14.58 l -7.75,18.86 c 41.41,17.01 88.281,22.51 135.543,15.91 47.234,-6.59 90.789,-24.72 125.961,-52.42 l -12.617,-16.01"
         style="fill:#fabdbe;fill-opacity:1;fill-rule:nonzero;stroke:none"
         id="path7124" />
      <path
         d="m 378.867,1924.33 c -59.621,8.32 -118.515,-59.34 -131.289,-150.84 -12.773,-91.49 25.336,-172.7 84.961,-181.02 59.625,-8.33 118.527,59.33 131.301,150.84 12.773,91.49 -25.348,172.69 -84.973,181.02 z m -49.144,-352.06 c -70.75,9.89 -116.66,101.41 -102.332,204.04 14.324,102.63 83.543,178.09 154.297,168.21 70.761,-9.87 116.667,-101.41 102.343,-204.03 -14.328,-102.63 -83.547,-178.09 -154.308,-168.22"
         style="fill:#fabdbe;fill-opacity:1;fill-rule:nonzero;stroke:none"
         id="path7126" />
      <path
         d="m 378.867,1924.33 c -24.637,3.44 -62.097,-63.68 -75.355,-158.65 -13.258,-94.97 4.39,-169.77 29.027,-173.21 24.645,-3.45 62.106,63.67 75.363,158.64 13.258,94.97 -4.39,169.79 -29.035,173.22 z m -49.144,-352.06 c -47.012,6.56 -59,106.01 -46.403,196.23 12.594,90.23 51.356,182.58 98.368,176.02 47.015,-6.56 59.003,-106 46.406,-196.23 -12.598,-90.23 -51.356,-182.58 -98.371,-176.02"
         style="fill:#fabdbe;fill-opacity:1;fill-rule:nonzero;stroke:none"
         id="path7128" />
      <path
         d="m 341.227,1580.96 -20.192,2.82 49.149,352.06 20.187,-2.83 -49.144,-352.05"
         style="fill:#fabdbe;fill-opacity:1;fill-rule:nonzero;stroke:none"
         id="path7130" />
      <path
         d="m 530.324,1723.73 -355.051,49.57 2.825,20.18 355.047,-49.56 -2.821,-20.19"
         style="fill:#fabdbe;fill-opacity:1;fill-rule:nonzero;stroke:none"
         id="path7132" />
      <path
         d="m 773.551,3765.87 c -28.387,-14.19 -250.828,55.75 -321.973,183.41 -51.512,92.45 -18.207,209.58 74.238,261.09 92.446,51.51 209.571,18.21 261.086,-74.23 73.051,-131.1 14.203,-353.16 -13.351,-370.27 z m -263.149,472.17 c -107.711,-60.02 -146.504,-196.47 -86.488,-304.17 77.504,-139.09 318.734,-221.48 365.02,-195.69 47.55,26.5 105.14,270.7 25.632,413.37 -60.015,107.7 -196.461,146.5 -304.164,86.49"
         style="fill:#fabdbe;fill-opacity:1;fill-rule:nonzero;stroke:none"
         id="path7134" />
      <path
         d="m 665.523,3959.65 c -42.691,-23.79 -96.777,-8.41 -120.562,34.28 -23.793,42.7 -8.41,96.78 34.277,120.57 42.692,23.79 96.778,8.41 120.567,-34.29 23.789,-42.69 8.41,-96.78 -34.282,-120.56 z M 563.82,4142.16 c -57.949,-32.28 -78.82,-105.7 -46.527,-163.65 32.289,-57.95 105.703,-78.82 163.652,-46.53 57.95,32.29 78.817,105.7 46.528,163.65 -32.289,57.95 -105.703,78.83 -163.653,46.53"
         style="fill:#fabdbe;fill-opacity:1;fill-rule:nonzero;stroke:none"
         id="path7136" />
      <path
         d="m 1896.22,1691.99 c -9.08,31.11 -27.86,68.51 -60.19,66.32 -23.06,-1.57 -38.69,-23.41 -50.55,-43.25 C 1574.92,1362.41 1473.57,953.281 1499.73,543.391 l 433.46,-1.719 c 63.45,381.668 71.44,778.908 -36.97,1150.318"
         style="fill:#0799a7;fill-opacity:1;fill-rule:nonzero;stroke:none"
         id="path7138" />
      <path
         d="m 1927.78,1416.62 c 7,10.84 -10.31,20.88 -17.27,10.1 -36.76,-56.96 -89.94,-102.65 -151.61,-130.69 7.59,54.46 16.2,108.8 26.13,162.95 14.72,80.3 32.33,160.06 53.36,238.96 3.33,12.45 -15.96,17.76 -19.28,5.32 -21.13,-79.26 -38.57,-159.27 -53.31,-239.79 -1.16,0.77 -2.34,1.49 -3.48,2.27 -1.41,0.97 -2.81,1.96 -4.18,2.97 l -1.88,1.39 -0.44,0.33 -0.12,0.09 c -5.01,3.95 -9.83,8.12 -14.41,12.56 -4.46,4.33 -8.7,8.89 -12.69,13.66 -1,1.2 -1.97,2.41 -2.94,3.62 l -0.42,0.53 -0.3,0.4 -1.4,1.86 c -1.94,2.63 -3.8,5.31 -5.59,8.04 -2.88,4.36 -8.98,6.62 -13.69,3.59 -4.35,-2.81 -6.67,-9.01 -3.58,-13.68 15.37,-23.32 35.59,-43.05 59.36,-57.71 l 1.94,-0.67 c -9.39,-53.06 -17.6,-106.34 -24.84,-159.76 -0.53,-1.44 -0.69,-2.92 -0.62,-4.43 -11.17,-82.94 -19.99,-166.23 -27.36,-249.63 -50.1,28.06 -91.34,69.9 -118.28,120.75 -6.03,11.37 -23.3,1.28 -17.27,-10.1 29.87,-56.39 76.97,-103.12 133.6,-132.53 -4.6,-53.84 -8.61,-107.711 -12.26,-161.54 -5.54,-81.679 -10.26,-163.41 -14.97,-245.14 -0.74,-12.86 19.26,-12.82 20,0 2.96,51.351 5.92,102.73 9.09,154.121 83.06,39.289 156.8,97.027 214.8,168.289 8.06,9.898 -6.01,24.141 -14.14,14.148 -54.35,-66.777 -122.29,-120.906 -199.22,-159.316 10.41,165.566 23.3,331.088 45.31,495.438 70.31,29.55 130.51,79.38 171.96,143.6"
         style="fill:#0f4046;fill-opacity:1;fill-rule:nonzero;stroke:none"
         id="path7140" />
      <path
         d="m 1435.84,1440.64 c -54.05,75.08 -115.19,146.35 -190.4,200.22 -75.2,53.86 -165.79,89.56 -258.276,87.77 -92.496,-1.79 -186.141,-44.53 -237.996,-121.14 -64.875,-95.83 -54.469,-228.21 0,-330.32 54.465,-102.1 146.133,-179 240.77,-245.6 94.642,-66.609 195.182,-126.191 278.812,-206.199 83.61,-80 150.09,-165.422 154.7,-281.062 h 322.98 c -14.57,319.183 -123.91,637.031 -310.59,896.331"
         style="fill:#106a74;fill-opacity:1;fill-rule:nonzero;stroke:none"
         id="path7142" />
      <path
         d="m 1647.56,671.352 c -28.86,83.886 -59.16,167.539 -93.08,249.628 40.73,31.079 64.99,81.03 62.56,132.48 -0.56,11.87 -19.08,11.94 -18.52,0 2.06,-43.69 -17.19,-87.562 -51.44,-114.948 -29.25,69.468 -61.12,137.778 -97.4,203.928 -6.22,11.34 -12.62,22.6 -19.11,33.81 38.3,46.65 54.36,108.38 43.48,167.9 -2.13,11.7 -19.98,6.75 -17.85,-4.92 9.31,-50.96 -4.11,-104.98 -35.56,-145.94 -64.91,109.16 -142.85,211.06 -236.41,297.11 36.23,33.81 38.93,86.4 38.94,133.76 0.01,11.91 -18.52,11.93 -18.52,0 -0.01,-41.09 -0.28,-92.26 -34.1,-121.43 -1.64,1.46 -3.23,2.96 -4.88,4.41 -63.33,55.57 -133.27,103.52 -209.022,140.55 -10.664,5.22 -20.066,-10.75 -9.347,-15.98 37.179,-18.18 72.769,-39.05 106.869,-62.05 -45.4,-29.98 -98.494,-46.25 -153.084,-46.04 -11.918,0.05 -11.934,-18.47 0,-18.52 60.437,-0.24 120.134,18.43 169.544,53.26 78.33,-55.3 148.21,-122.37 209.51,-196.37 -64.7,-76.65 -174.91,-70.26 -265.71,-62.8 -11.87,0.97 -11.81,-17.54 0,-18.52 94.95,-7.8 209.74,-12.49 277.69,66.66 62.57,-77.92 115.49,-162.9 161.49,-251.54 -49.52,-28.19 -109.23,-16.15 -162.27,-4.66 -11.62,2.52 -16.58,-15.32 -4.92,-17.85 57.54,-12.47 122,-24.47 175.64,5.97 24.06,-47.46 46.25,-95.859 66.92,-144.75 19.73,-46.691 38.09,-93.941 55.67,-141.48 -59.32,-6.821 -119.16,-1.918 -176.52,14.972 -11.45,3.36 -16.34,-14.5 -4.92,-17.871 60.88,-17.922 124.99,-23.101 187.93,-14.941 13.19,-36.129 26.06,-72.391 38.57,-108.758 3.86,-11.203 21.75,-6.383 17.85,4.93"
         style="fill:#0f4046;fill-opacity:1;fill-rule:nonzero;stroke:none"
         id="path7144" />
      <path
         d="m 1251.14,1030.06 c -24.76,55.1 -53.03,109.43 -92.87,154.84 -39.84,45.42 -92.45,81.66 -151.86,92.63 -59.414,10.95 -125.59,-6.45 -165.183,-52.08 -48.973,-56.44 -48.016,-143.34 -17.399,-211.52 30.621,-68.168 85.598,-121.871 139.485,-173.649 43.917,-42.199 88.277,-84.691 122.687,-134.929 34.41,-50.262 58.57,-100.262 57.07,-161.141 l 240.01,-0.781 c -18.08,167.789 -62.79,332.679 -131.94,486.63"
         style="fill:#10b0c2;fill-opacity:1;fill-rule:nonzero;stroke:none"
         id="path7146" />
      <path
         d="m 1308.19,593.629 c -18.17,64.473 -36.85,129.922 -58.94,194.043 l 1,0.68 c 27.58,22.859 45.47,56.636 47.98,92.48 0.33,4.719 -2.35,9.258 -7.33,10.047 -4.38,0.68 -9.72,-2.57 -10.05,-7.34 -2.08,-29.789 -15.61,-58.047 -37.8,-78.039 -22.04,61.781 -47.76,122.02 -79.69,178.719 24.71,20.861 38.08,53.391 34.6,85.631 -1.22,11.25 -18.69,9.27 -17.47,-1.99 2.7,-24.99 -7.13,-50.88 -25.96,-67.969 -24.52,41.459 -52.65,80.839 -85.54,117.269 -7.87,8.71 -15.99,17.18 -24.32,25.42 18.44,13.19 28.72,35.84 24.73,58.88 -0.78,4.52 -4.85,8.52 -9.73,7.74 -4.48,-0.72 -8.58,-4.89 -7.74,-9.74 0.45,-2.62 0.7,-5.22 0.8,-7.87 l 0.03,-0.63 v -0.09 l -0.14,-2.2 c -0.1,-1.32 -0.26,-2.64 -0.47,-3.94 -0.2,-1.31 -0.46,-2.6 -0.76,-3.88 l -0.39,-1.49 -0.31,-0.98 c -0.89,-2.62 -2,-5.17 -3.31,-7.6 l -0.58,-1.05 -0.56,-0.89 c -0.67,-1.01 -1.39,-2.02 -2.13,-2.98 -0.75,-0.97 -1.53,-1.92 -2.34,-2.83 l -1.39,-1.5 -0.24,-0.24 c -1.85,-1.74 -3.82,-3.34 -5.91,-4.79 l -2.43,-1.56 c -23.38,21.8 -48.48,41.69 -75.366,59.14 -9.422,6.11 -20.446,-7.59 -10.946,-13.76 49.93,-32.4 92.472,-72.2 129.152,-116.91 -34.24,-18.95 -74.03,-26.94 -112.952,-22.49 -11.235,1.28 -13.981,-16.09 -2.727,-17.37 44.019,-5.04 88.169,4.29 126.579,25.98 35.52,-45.71 65.31,-96.061 90.7,-148.768 -41.48,-9.532 -85.48,-8.301 -126.26,3.898 -4.58,1.371 -9.46,0.211 -11.59,-4.5 -1.77,-3.898 -0.04,-10.219 4.5,-11.59 46.13,-13.808 94.28,-15.031 140.97,-3.898 23.09,-50.031 42.54,-101.863 59.37,-153.531 4.53,-13.879 8.9,-27.801 13.17,-41.762 -34.12,5.441 -67.19,15.543 -98.52,30.23 -10.28,4.821 -17.34,-11.289 -7.1,-16.089 35.14,-16.469 72.74,-27.559 111.2,-32.79 10.32,-34.449 20.14,-69.05 29.89,-103.66 3.06,-10.859 19.37,-4.25 16.32,6.559"
         style="fill:#0f4046;fill-opacity:1;fill-rule:nonzero;stroke:none"
         id="path7148" />
      <path
         d="m 3795.98,1064.72 c -14.9,42.51 -10.95,92.64 10.35,131.63 21.31,38.98 59.51,65.93 100.28,70.78 26.09,3.09 52.3,-2.37 78.46,-4.5 26.18,-2.13 53.97,-0.44 76.15,15.17 22.17,15.62 40.51,47.43 28.12,73.16 -23.07,47.94 -46.44,96.81 -55.68,150.21 -9.23,53.4 -2.33,113.02 29.7,154.09 32.02,41.08 92.62,55.8 131.5,22.84 19.01,-16.12 33.43,-42.54 57.13,-46.04 18.84,-2.79 36.99,10.98 47.68,28.45 10.7,17.46 15.71,38.32 22.04,58.25 13.85,43.66 35.73,85.61 69.16,113.21 33.43,27.59 79.8,38.5 117.8,19.57 37.99,-18.92 62.18,-71.4 46.94,-114.49 -8.45,-23.89 -26.57,-41.54 -41.21,-61.37 -14.64,-19.84 -26.53,-46.19 -19.18,-70.53 12.55,-41.57 65.56,-42.35 96.46,-69.58 32.43,-28.58 35,-85.58 14.93,-125.84 -20.08,-40.24 -57.17,-66.33 -94.92,-85.16 -37.76,-18.84 -77.86,-32.29 -113.29,-56.09 -13.72,-9.22 -27.82,-22.16 -29.21,-39.95 -1.6,-20.44 14.93,-37.68 32.45,-44.1 17.51,-6.41 36.45,-5.4 54.61,-8.96 39.65,-7.8 74.95,-39.05 90.69,-80.29 15.74,-41.24 11.44,-91.2 -11.06,-128.36 -41.98,-69.3 -127.54,-79.98 -196.9,-112.09 C 4226.35,802.582 4145.05,675.332 4137.77,539.84 H 3842.5 c 22.72,62.152 47.15,137.992 56.54,204.281 9.38,66.277 4.16,137.32 -26.54,195.09 -23.21,43.648 -59.96,78.259 -76.52,125.509"
         style="fill:#106a74;fill-opacity:1;fill-rule:nonzero;stroke:none"
         id="path7150" />
      <path
         d="m 4466.79,1783.5 c 6.72,11.03 -10.56,21.09 -17.26,10.1 -72.63,-119.02 -139.65,-241.42 -200.93,-366.66 -6.96,61.43 -28.13,120.67 -62.24,172.49 -7.04,10.71 -24.37,0.7 -17.26,-10.09 36.87,-56.03 58.33,-120.89 61.6,-187.93 0.12,-2.58 1.16,-4.49 2.53,-6.03 -8.21,-17.12 -16.35,-34.27 -24.34,-51.49 -59.54,-128.3 -113,-259.41 -160.27,-392.718 -13.94,75.548 -40.46,148.118 -79.19,214.768 -6.47,11.13 -23.76,1.07 -17.27,-10.08 42.95,-73.93 71.17,-155.85 82.18,-240.688 0.12,-0.942 0.53,-1.684 0.84,-2.492 -4.45,-12.93 -8.94,-25.84 -13.28,-38.809 -30.43,-91.07 -57.89,-183.121 -82.45,-275.941 -3.29,-12.45 16,-17.77 19.29,-5.321 35.6,134.571 77.49,267.45 125.38,398.141 73.69,61.88 159.53,108.1 251.66,135.81 12.29,3.7 7.06,23.01 -5.32,19.29 -84.29,-25.36 -163.1,-65.76 -232.95,-118.96 5.83,15.5 11.67,30.99 17.67,46.42 30.68,78.87 63.61,156.84 98.71,233.83 1.22,0.43 2.43,1.09 3.56,2.11 63.64,57.87 139.55,100.89 221.84,125.86 12.29,3.73 7.05,23.04 -5.31,19.29 -73.12,-22.19 -141.2,-58.2 -200.77,-105.7 29.42,62.8 60.21,124.96 92.51,186.33 44.36,84.3 91.45,167.15 141.07,248.47"
         style="fill:#0f4046;fill-opacity:1;fill-rule:nonzero;stroke:none"
         id="path7152" />
      <path
         d="m 4354.31,2576.95 c 0,-258.85 -209.83,-468.68 -468.68,-468.68 -258.85,0 -468.69,209.83 -468.69,468.68 0,258.85 209.84,468.69 468.69,468.69 258.85,0 468.68,-209.84 468.68,-468.69"
         style="fill:#da4035;fill-opacity:1;fill-rule:nonzero;stroke:none"
         id="path7154" />
      <path
         d="m 3796.7,2108.27 h 88.9297 v 937.371 H 3796.7 Z"
         style="fill:#da4035;fill-opacity:1;fill-rule:nonzero;stroke:none"
         id="path7156" />
      <path
         d="m 4265.38,2576.95 c 0,-258.85 -209.84,-468.68 -468.68,-468.68 -258.85,0 -468.7,209.83 -468.7,468.68 0,258.85 209.85,468.69 468.7,468.69 258.84,0 468.68,-209.84 468.68,-468.69"
         style="fill:#f3625f;fill-opacity:1;fill-rule:nonzero;stroke:none"
         id="path7158" />
      <path
         d="m 4161.62,2576.95 c 0,-201.54 -163.38,-364.93 -364.92,-364.93 -201.56,0 -364.94,163.39 -364.94,364.93 0,201.54 163.38,364.93 364.94,364.93 201.54,0 364.92,-163.39 364.92,-364.93"
         style="fill:#da4035;fill-opacity:1;fill-rule:nonzero;stroke:none"
         id="path7160" />
      <path
         d="m 3840.78,2484.66 c 0,13.98 -3.46,24.96 -10.35,32.93 -6.92,7.97 -19.04,15.49 -36.39,22.57 -17.35,7.09 -33.38,14.26 -48.08,21.52 -14.69,7.25 -27.35,15.67 -37.97,25.22 -10.62,9.57 -18.77,20.63 -24.43,33.2 -5.67,12.57 -8.5,27.8 -8.5,45.68 0,29.92 10.09,54.57 30.28,73.97 20.17,19.38 47.09,30.67 80.73,33.86 v 56.04 h 42.23 v -57.11 c 32.4,-4.77 57.85,-18.1 76.35,-39.96 18.5,-21.87 27.75,-49.63 27.75,-83.26 h -89.77 c 0,18.41 -3.53,32.57 -10.61,42.49 -7.09,9.91 -17.18,14.87 -30.28,14.87 -11.68,0 -20.76,-3.68 -27.22,-11.02 -6.47,-7.35 -9.7,-17.48 -9.7,-30.41 0,-13.1 3.72,-23.5 11.16,-31.21 7.43,-7.7 19.39,-15.05 35.85,-22.04 16.47,-6.99 32,-14.25 46.61,-21.78 14.6,-7.52 27.22,-16.06 37.85,-25.62 10.62,-9.56 18.94,-20.71 24.96,-33.47 6.01,-12.74 9.03,-28.06 9.03,-45.94 0,-30.28 -9.61,-54.98 -28.82,-74.09 -19.21,-19.12 -45.37,-30.28 -78.48,-33.47 v -53.38 h -42.22 v 53.66 c -38.6,4.07 -68.21,17.29 -88.84,39.69 -20.62,22.4 -30.94,51.93 -30.94,88.57 h 89.51 c 0,-20.19 4.46,-35.55 13.4,-46.08 8.94,-10.53 21.65,-15.8 38.12,-15.8 12.03,0 21.5,3.59 28.42,10.76 6.89,7.17 10.35,17.04 10.35,29.61"
         style="fill:#f3625f;fill-opacity:1;fill-rule:nonzero;stroke:none"
         id="path7162" />
      <path
         d="m 4203.22,2576.95 c 0,-258.85 -209.85,-468.68 -468.69,-468.68 -258.85,0 -468.68,209.83 -468.68,468.68 0,258.85 209.83,468.69 468.68,468.69 258.84,0 468.69,-209.84 468.69,-468.69"
         style="fill:#da4035;fill-opacity:1;fill-rule:nonzero;stroke:none"
         id="path7164" />
      <path
         d="m 3645.59,2108.27 h 88.9414 v 937.371 H 3645.59 Z"
         style="fill:#da4035;fill-opacity:1;fill-rule:nonzero;stroke:none"
         id="path7166" />
      <path
         d="m 4114.28,2576.95 c 0,-258.85 -209.84,-468.68 -468.69,-468.68 -258.85,0 -468.68,209.83 -468.68,468.68 0,258.85 209.83,468.69 468.68,468.69 258.85,0 468.69,-209.84 468.69,-468.69"
         style="fill:#f3625f;fill-opacity:1;fill-rule:nonzero;stroke:none"
         id="path7168" />
      <path
         d="m 4010.52,2576.95 c 0,-201.54 -163.38,-364.93 -364.93,-364.93 -201.54,0 -364.92,163.39 -364.92,364.93 0,201.54 163.38,364.93 364.92,364.93 201.55,0 364.93,-163.39 364.93,-364.93"
         style="fill:#da4035;fill-opacity:1;fill-rule:nonzero;stroke:none"
         id="path7170" />
      <path
         d="m 3689.68,2484.66 c 0,13.98 -3.45,24.96 -10.36,32.93 -6.9,7.97 -19.03,15.49 -36.38,22.57 -17.35,7.09 -33.37,14.26 -48.07,21.52 -14.7,7.25 -27.35,15.67 -37.98,25.22 -10.62,9.57 -18.77,20.63 -24.43,33.2 -5.67,12.57 -8.5,27.8 -8.5,45.68 0,29.92 10.09,54.57 30.28,73.97 20.18,19.38 47.09,30.67 80.74,33.86 v 56.04 h 42.21 v -57.11 c 32.42,-4.77 57.86,-18.1 76.36,-39.96 18.51,-21.87 27.75,-49.63 27.75,-83.26 h -89.76 c 0,18.41 -3.55,32.57 -10.63,42.49 -7.07,9.91 -17.16,14.87 -30.27,14.87 -11.68,0 -20.76,-3.68 -27.23,-11.02 -6.45,-7.35 -9.68,-17.48 -9.68,-30.41 0,-13.1 3.72,-23.5 11.15,-31.21 7.44,-7.7 19.38,-15.05 35.86,-22.04 16.45,-6.99 31.99,-14.25 46.6,-21.78 14.61,-7.52 27.23,-16.06 37.84,-25.62 10.63,-9.56 18.95,-20.71 24.97,-33.47 6.02,-12.74 9.03,-28.06 9.03,-45.94 0,-30.28 -9.6,-54.98 -28.81,-74.09 -19.22,-19.12 -45.37,-30.28 -78.48,-33.47 v -53.38 h -42.23 v 53.66 c -38.6,4.07 -68.21,17.29 -88.83,39.69 -20.63,22.4 -30.94,51.93 -30.94,88.57 h 89.49 c 0,-20.19 4.47,-35.55 13.42,-46.08 8.93,-10.53 21.64,-15.8 38.11,-15.8 12.04,0 21.51,3.59 28.41,10.76 6.91,7.17 10.36,17.04 10.36,29.61"
         style="fill:#f3625f;fill-opacity:1;fill-rule:nonzero;stroke:none"
         id="path7172" />
      <path
         d="m 4033.85,2576.95 c 0,-258.85 -209.83,-468.68 -468.68,-468.68 -258.84,0 -468.69,209.83 -468.69,468.68 0,258.85 209.85,468.69 468.69,468.69 258.85,0 468.68,-209.84 468.68,-468.69"
         style="fill:#da4035;fill-opacity:1;fill-rule:nonzero;stroke:none"
         id="path7174" />
      <path
         d="m 3565.17,2108.27 h -88.93 v 937.37 h 88.93 v -937.37"
         style="fill:#da4035;fill-opacity:1;fill-rule:nonzero;stroke:none"
         id="path7176" />
      <path
         d="m 3944.92,2576.95 c 0,-258.85 -209.84,-468.68 -468.68,-468.68 -258.85,0 -468.69,209.83 -468.69,468.68 0,258.85 209.84,468.69 468.69,468.69 258.84,0 468.68,-209.84 468.68,-468.69"
         style="fill:#f3625f;fill-opacity:1;fill-rule:nonzero;stroke:none"
         id="path7178" />
      <path
         d="m 3841.16,2576.95 c 0,-201.54 -163.38,-364.93 -364.92,-364.93 -201.56,0 -364.93,163.39 -364.93,364.93 0,201.54 163.37,364.93 364.93,364.93 201.54,0 364.92,-163.39 364.92,-364.93"
         style="fill:#da4035;fill-opacity:1;fill-rule:nonzero;stroke:none"
         id="path7180" />
      <path
         d="m 3520.32,2484.66 c 0,13.98 -3.46,24.96 -10.35,32.93 -6.92,7.97 -19.04,15.49 -36.39,22.57 -17.35,7.09 -33.38,14.26 -48.08,21.52 -14.69,7.25 -27.35,15.67 -37.96,25.22 -10.63,9.57 -18.77,20.63 -24.44,33.2 -5.67,12.57 -8.5,27.8 -8.5,45.68 0,29.92 10.09,54.57 30.28,73.97 20.18,19.38 47.09,30.67 80.73,33.86 v 56.04 h 42.23 v -57.11 c 32.4,-4.77 57.85,-18.1 76.36,-39.96 18.49,-21.87 27.74,-49.63 27.74,-83.26 h -89.77 c 0,18.41 -3.53,32.57 -10.61,42.49 -7.09,9.91 -17.18,14.87 -30.27,14.87 -11.69,0 -20.77,-3.68 -27.23,-11.02 -6.47,-7.35 -9.7,-17.48 -9.7,-30.41 0,-13.1 3.72,-23.51 11.16,-31.21 7.44,-7.7 19.39,-15.05 35.85,-22.04 16.47,-6.99 32.01,-14.25 46.61,-21.78 14.6,-7.52 27.22,-16.06 37.85,-25.62 10.62,-9.56 18.94,-20.71 24.96,-33.47 6.01,-12.74 9.03,-28.06 9.03,-45.94 0,-30.28 -9.61,-54.98 -28.82,-74.09 -19.21,-19.12 -45.37,-30.28 -78.47,-33.47 v -53.38 h -42.23 v 53.66 c -38.59,4.07 -68.21,17.29 -88.84,39.69 -20.62,22.4 -30.94,51.93 -30.94,88.57 h 89.51 c 0,-20.19 4.46,-35.55 13.4,-46.08 8.94,-10.53 21.65,-15.8 38.12,-15.8 12.03,0 21.5,3.59 28.42,10.76 6.89,7.17 10.35,17.04 10.35,29.61"
         style="fill:#f3625f;fill-opacity:1;fill-rule:nonzero;stroke:none"
         id="path7182" />
      <path
         d="m 3662.85,2254.85 h 623.418 v 185.449 H 3662.85 Z"
         style="fill:#0aadaa;fill-opacity:1;fill-rule:nonzero;stroke:none"
         id="path7184" />
      <path
         d="m 4286.27,2254.85 h 250.301 v 185.449 H 4286.27 Z"
         style="fill:#106a74;fill-opacity:1;fill-rule:nonzero;stroke:none"
         id="path7186" />
      <path
         d="m 3747.93,2394.34 h 527.48 v 6.6602 h -527.48 z"
         style="fill:#106a74;fill-opacity:1;fill-rule:nonzero;stroke:none"
         id="path7188" />
      <path
         d="m 4228.06,2364.01 h -527.49 v 6.66 h 527.49 v -6.66"
         style="fill:#106a74;fill-opacity:1;fill-rule:nonzero;stroke:none"
         id="path7190" />
      <path
         d="m 4266.53,2347.58 h -527.48 v 6.66 h 527.48 v -6.66"
         style="fill:#106a74;fill-opacity:1;fill-rule:nonzero;stroke:none"
         id="path7192" />
      <path
         d="m 4252.48,2301.87 h -527.49 v 6.66 h 527.49 v -6.66"
         style="fill:#106a74;fill-opacity:1;fill-rule:nonzero;stroke:none"
         id="path7194" />
      <path
         d="m 3887.99,2254.85 h 220.957 v 185.449 H 3887.99 Z"
         style="fill:#c4ebe2;fill-opacity:1;fill-rule:nonzero;stroke:none"
         id="path7196" />
      <path
         d="m 4286.27,2390.38 h -177.32 v 3.96 h 166.46 v 6.66 h -166.46 v 39.3 h 177.32 v -49.92"
         style="fill:#049f96;fill-opacity:1;fill-rule:nonzero;stroke:none"
         id="path7198" />
      <path
         d="m 4108.95,2394.34 h 166.461 v 6.6602 H 4108.95 Z"
         style="fill:#105a5f;fill-opacity:1;fill-rule:nonzero;stroke:none"
         id="path7200" />
      <path
         d="m 3887.99,2390.38 h -225.14 v 49.92 h 225.14 V 2401 h -140.06 v -6.66 h 140.06 v -3.96"
         style="fill:#049f96;fill-opacity:1;fill-rule:nonzero;stroke:none"
         id="path7202" />
      <path
         d="m 3747.93,2394.34 h 140.063 v 6.6602 H 3747.93 Z"
         style="fill:#105a5f;fill-opacity:1;fill-rule:nonzero;stroke:none"
         id="path7204" />
      <path
         d="m 4108.95,2390.38 h -220.96 v 49.92 h 220.96 v -39.3 -6.66 -3.96"
         style="fill:#19b2b2;fill-opacity:1;fill-rule:nonzero;stroke:none"
         id="path7206" />
      <path
         d="m 3835.04,2440.86 h 623.422 v 185.449 H 3835.04 Z"
         style="fill:#0aadaa;fill-opacity:1;fill-rule:nonzero;stroke:none"
         id="path7208" />
      <path
         d="m 4458.46,2440.86 h 250.309 v 185.449 H 4458.46 Z"
         style="fill:#106a74;fill-opacity:1;fill-rule:nonzero;stroke:none"
         id="path7210" />
      <path
         d="m 3920.12,2580.35 h 527.488 v 6.6602 H 3920.12 Z"
         style="fill:#106a74;fill-opacity:1;fill-rule:nonzero;stroke:none"
         id="path7212" />
      <path
         d="m 4400.26,2550.02 h -527.48 v 6.66 h 527.48 v -6.66"
         style="fill:#106a74;fill-opacity:1;fill-rule:nonzero;stroke:none"
         id="path7214" />
      <path
         d="m 4438.74,2533.58 h -527.49 v 6.66 h 527.49 v -6.66"
         style="fill:#106a74;fill-opacity:1;fill-rule:nonzero;stroke:none"
         id="path7216" />
      <path
         d="m 4424.67,2487.88 h -527.48 v 6.66 h 527.48 v -6.66"
         style="fill:#106a74;fill-opacity:1;fill-rule:nonzero;stroke:none"
         id="path7218" />
      <path
         d="m 4060.19,2440.86 h 220.957 v 185.449 H 4060.19 Z"
         style="fill:#c4ebe2;fill-opacity:1;fill-rule:nonzero;stroke:none"
         id="path7220" />
      <path
         d="m 4458.46,2576.95 v 0 49.36 h -82.13 l -0.28,0.56 h 82.41 v -0.56 -49.36"
         style="fill:#1cb3b2;fill-opacity:1;fill-rule:nonzero;stroke:none"
         id="path7222" />
      <path
         d="m 4458.46,2576.95 h -57.31 l -1.71,3.4 h 48.17 v 6.66 h -51.52 l -19.76,39.3 h 82.13 v -49.36"
         style="fill:#049f96;fill-opacity:1;fill-rule:nonzero;stroke:none"
         id="path7224" />
      <path
         d="m 4447.61,2580.35 h -48.17 l -3.35,6.66 h 51.52 v -6.66"
         style="fill:#105a5f;fill-opacity:1;fill-rule:nonzero;stroke:none"
         id="path7226" />
      <path
         d="m 4334.26,2626.31 h -71.45 c -0.02,0.18 -0.04,0.37 -0.06,0.56 h 71.23 l 0.28,-0.56"
         style="fill:#124330;fill-opacity:1;fill-rule:nonzero;stroke:none"
         id="path7228" />
      <path
         d="m 4262.81,2626.31 h -62.16 c -0.02,0.18 -0.04,0.37 -0.06,0.56 h 62.16 c 0.02,-0.19 0.04,-0.38 0.06,-0.56"
         style="fill:#116d54;fill-opacity:1;fill-rule:nonzero;stroke:none"
         id="path7230" />
      <path
         d="m 4200.65,2626.31 h -88.93 c -0.02,0.18 -0.04,0.37 -0.06,0.56 h 88.93 c 0.02,-0.19 0.04,-0.38 0.06,-0.56"
         style="fill:#124330;fill-opacity:1;fill-rule:nonzero;stroke:none"
         id="path7232" />
      <path
         d="m 4111.72,2626.31 h -80.43 c -0.02,0.18 -0.04,0.37 -0.06,0.56 h 80.43 c 0.02,-0.19 0.04,-0.38 0.06,-0.56"
         style="fill:#116d54;fill-opacity:1;fill-rule:nonzero;stroke:none"
         id="path7234" />
      <path
         d="m 4031.29,2626.31 h -88.94 c -0.02,0.18 -0.04,0.37 -0.06,0.56 h 88.94 c 0.02,-0.19 0.04,-0.38 0.06,-0.56"
         style="fill:#124330;fill-opacity:1;fill-rule:nonzero;stroke:none"
         id="path7236" />
      <path
         d="m 3942.35,2626.31 h -104.5 c -0.03,0.19 -0.05,0.37 -0.08,0.56 h 104.52 c 0.02,-0.19 0.04,-0.38 0.06,-0.56"
         style="fill:#116d54;fill-opacity:1;fill-rule:nonzero;stroke:none"
         id="path7238" />
      <path
         d="m 3837.85,2626.31 h -2.81 v 0.56 h 2.73 c 0.03,-0.19 0.05,-0.37 0.08,-0.56"
         style="fill:#124330;fill-opacity:1;fill-rule:nonzero;stroke:none"
         id="path7240" />
      <path
         d="m 4359.08,2576.95 h -77.93 v 3.4 h 76.22 l 1.71,-3.4 m -298.89,0 h -225.15 v 49.36 h 2.81 104.5 88.94 80.43 88.93 62.16 71.45 l 19.76,-39.3 h -72.87 v 39.3 h -220.96 v -39.3 h -140.07 v -6.66 h 140.07 v -3.4"
         style="fill:#049f96;fill-opacity:1;fill-rule:nonzero;stroke:none"
         id="path7242" />
      <path
         d="m 4357.37,2580.35 h -76.22 v 6.66 h 72.87 l 3.35,-6.66 m -297.18,0 h -140.07 v 6.66 h 140.07 v -6.66"
         style="fill:#105a5f;fill-opacity:1;fill-rule:nonzero;stroke:none"
         id="path7244" />
      <path
         d="m 4281.15,2576.95 h -220.96 v 49.36 h 220.96 v -39.3 -6.66 -3.4"
         style="fill:#19b2b2;fill-opacity:1;fill-rule:nonzero;stroke:none"
         id="path7246" />
      <path
         d="m 4234.27,2626.87 h -623.41 v 185.45 h 623.41 v -185.45"
         style="fill:#0aadaa;fill-opacity:1;fill-rule:nonzero;stroke:none"
         id="path7248" />
      <path
         d="m 4484.58,2626.87 h -250.31 v 185.45 h 250.31 v -185.45"
         style="fill:#106a74;fill-opacity:1;fill-rule:nonzero;stroke:none"
         id="path7250" />
      <path
         d="m 4223.42,2766.36 h -527.49 v 6.66 h 527.49 v -6.66"
         style="fill:#106a74;fill-opacity:1;fill-rule:nonzero;stroke:none"
         id="path7252" />
      <path
         d="m 4176.08,2736.03 h -527.49 v 6.66 h 527.49 v -6.66"
         style="fill:#106a74;fill-opacity:1;fill-rule:nonzero;stroke:none"
         id="path7254" />
      <path
         d="m 4214.55,2719.59 h -527.49 v 6.66 h 527.49 v -6.66"
         style="fill:#106a74;fill-opacity:1;fill-rule:nonzero;stroke:none"
         id="path7256" />
      <path
         d="M 4200.49,2673.89 H 3673 v 6.66 h 527.49 v -6.66"
         style="fill:#106a74;fill-opacity:1;fill-rule:nonzero;stroke:none"
         id="path7258" />
      <path
         d="m 4056.97,2626.87 h -220.96 v 185.45 h 220.96 v -185.45"
         style="fill:#c4ebe2;fill-opacity:1;fill-rule:nonzero;stroke:none"
         id="path7260" />
      <path
         d="M 2594.59,842.809 H 2410.33 V 4311.1 h 184.26 V 842.809"
         style="fill:#79d1c0;fill-opacity:1;fill-rule:nonzero;stroke:none"
         id="path7262" />
      <path
         d="m 2807,702.059 h -609.08 v 95.961 c 0,74.199 60.15,134.359 134.36,134.359 h 340.36 c 74.2,0 134.36,-60.16 134.36,-134.359 v -95.961"
         style="fill:#c4ebe2;fill-opacity:1;fill-rule:nonzero;stroke:none"
         id="path7264" />
      <path
         d="m 2775.01,4187.61 c 0,-150.52 -122.03,-272.54 -272.55,-272.54 -150.53,0 -272.55,122.02 -272.55,272.54 0,150.53 122.02,272.55 272.55,272.55 150.52,0 272.55,-122.02 272.55,-272.55"
         style="fill:#da4035;fill-opacity:1;fill-rule:nonzero;stroke:none"
         id="path7266" />
      <path
         d="m 2692.01,4187.61 c 0,-104.68 -84.87,-189.54 -189.55,-189.54 -104.68,0 -189.54,84.86 -189.54,189.54 0,104.69 84.86,189.55 189.54,189.55 104.68,0 189.55,-84.86 189.55,-189.55"
         style="fill:#f3625f;fill-opacity:1;fill-rule:nonzero;stroke:none"
         id="path7268" />
      <path
         d="m 3884.55,3565.04 -2775.45,459.14 11.27,68.17 2775.46,-459.15 -11.28,-68.16"
         style="fill:#c4ebe2;fill-opacity:1;fill-rule:nonzero;stroke:none"
         id="path7270" />
      <path
         d="m 1826.59,2700.74 c -6.88,0 -13.5,3.79 -16.8,10.36 L 1155.8,4011.58 479.227,2710.87 c -4.786,-9.21 -16.145,-12.78 -25.348,-8 -9.203,4.78 -12.789,16.14 -8,25.34 l 693.531,1333.31 c 3.25,6.28 9.66,10.07 16.8,10.13 7.05,-0.05 13.49,-4.04 16.66,-10.35 l 670.5,-1333.32 c 4.66,-9.27 0.93,-20.57 -8.35,-25.23 -2.71,-1.37 -5.59,-2.01 -8.43,-2.01"
         style="fill:#c4ebe2;fill-opacity:1;fill-rule:nonzero;stroke:none"
         id="path7272" />
      <path
         d="m 355.703,2763.68 c 0,-435.67 353.184,-788.85 788.857,-788.85 435.68,0 788.86,353.18 788.86,788.85 H 355.703"
         style="fill:#79d1c0;fill-opacity:1;fill-rule:nonzero;stroke:none"
         id="path7274" />
      <path
         d="m 767.66,2214.56 c -11.969,0 -24.699,3.32 -37.601,10.94 -137.102,80.89 -236.692,208.74 -282.719,360.99 -16.899,55.9 28.973,92.37 74.195,92.37 29.828,0 59.375,-15.87 70.449,-52.49 34.832,-115.24 110.211,-210.24 213.786,-271.35 70.289,-41.48 27.218,-140.48 -38.11,-140.46"
         style="fill:#a4e0d3;fill-opacity:1;fill-rule:nonzero;stroke:none"
         id="path7276" />
      <path
         d="m 1143.84,1974.83 c -0.07,0 -0.14,0 -0.21,0 0.08,0 0.13,0 0.21,0 m -0.75,0 c -0.07,0 -0.14,0 -0.21,0 0.08,0 0.13,0 0.21,0 m -0.8,0 c -0.04,0 -0.08,0 -0.12,0.01 0.05,-0.01 0.07,-0.01 0.12,-0.01"
         style="fill:#efe0da;fill-opacity:1;fill-rule:nonzero;stroke:none"
         id="path7278" />
      <path
         d="m 1144.56,1974.83 v 0 c -0.24,0 -0.48,0 -0.72,0 -0.08,0 -0.13,0 -0.21,0 -0.18,0 -0.36,0 -0.54,0 -0.08,0 -0.13,0 -0.21,0 -0.2,0 -0.39,0 -0.59,0 -0.05,0 -0.07,0 -0.12,0.01 -66.19,0.19 -130.43,8.6 -191.83,24.15 341.74,86.53 594.63,396.06 594.63,764.69 h 388.45 c 0,-435.67 -353.18,-788.85 -788.86,-788.85"
         style="fill:#67cbb9;fill-opacity:1;fill-rule:nonzero;stroke:none"
         id="path7280" />
      <path
         d="m 4537.47,2245.28 c -6.89,0 -13.51,3.8 -16.81,10.36 l -653.99,1300.48 -676.58,-1300.7 c -4.78,-9.22 -16.14,-12.79 -25.34,-8.01 -9.21,4.78 -12.79,16.14 -8,25.34 l 693.53,1333.32 c 3.25,6.27 9.67,10.05 16.8,10.12 7.06,-0.05 13.49,-4.04 16.66,-10.35 l 670.5,-1333.31 c 4.66,-9.27 0.93,-20.57 -8.35,-25.24 -2.71,-1.37 -5.59,-2.01 -8.42,-2.01"
         style="fill:#c4ebe2;fill-opacity:1;fill-rule:nonzero;stroke:none"
         id="path7282" />
      <path
         d="m 3066.58,2308.23 c 0,-435.67 353.18,-788.86 788.86,-788.86 435.67,0 788.85,353.19 788.85,788.86 H 3066.58"
         style="fill:#79d1c0;fill-opacity:1;fill-rule:nonzero;stroke:none"
         id="path7284" />
      <path
         d="m 3523.32,1741.91 c -11.97,0 -24.69,3.32 -37.6,10.94 -137.1,80.9 -236.69,208.74 -282.72,360.99 -16.9,55.89 28.97,92.37 74.2,92.37 29.82,0 59.37,-15.87 70.44,-52.49 34.84,-115.25 110.22,-210.24 213.79,-271.35 70.28,-41.47 27.22,-140.47 -38.11,-140.46"
         style="fill:#a4e0d3;fill-opacity:1;fill-rule:nonzero;stroke:none"
         id="path7286" />
      <path
         d="m 3854.73,1519.37 c -0.06,0 -0.11,0 -0.17,0 0.05,0 0.11,0 0.17,0 m -0.76,0 c -0.03,0 -0.07,0 -0.11,0 0.05,0 0.06,0 0.11,0"
         style="fill:#efe0da;fill-opacity:1;fill-rule:nonzero;stroke:none"
         id="path7288" />
      <path
         d="m 3855.44,1519.37 v 0 c -0.24,0 -0.48,0 -0.71,0 -0.06,0 -0.12,0 -0.17,0 -0.2,0 -0.39,0 -0.59,0 -0.05,0 -0.06,0 -0.11,0 -63.91,0.13 -125.96,8.03 -185.44,22.5 345.38,84 601.85,395.15 601.85,766.36 h 374.02 c 0,-194.41 -70.31,-372.38 -186.91,-509.88 -5.32,-6.29 -10.75,-12.49 -16.27,-18.6 -43.56,-48.25 -93,-91.09 -147.19,-127.39 -32.94,-22.06 -67.64,-41.71 -103.83,-58.69 -6.08,-2.85 -12.23,-5.64 -18.39,-8.34 -45.2,-19.81 -92.58,-35.49 -141.74,-46.59 -56.13,-12.67 -114.56,-19.37 -174.52,-19.37"
         style="fill:#67cbb9;fill-opacity:1;fill-rule:nonzero;stroke:none"
         id="path7290" />
      <path
         d="M 3189.6,543.391 H 1815.33 v 115.16 c 0,76.32 61.87,138.191 138.19,138.191 H 3051.4 c 76.32,0 138.2,-61.871 138.2,-138.191 v -115.16"
         style="fill:#79d1c0;fill-opacity:1;fill-rule:nonzero;stroke:none"
         id="path7292" />
      <path
         d="m 3948.37,3598.78 c 0,-51.32 -41.62,-92.92 -92.93,-92.92 -51.32,0 -92.92,41.6 -92.92,92.92 0,51.32 41.6,92.92 92.92,92.92 51.31,0 92.93,-41.6 92.93,-92.92"
         style="fill:#f3625f;fill-opacity:1;fill-rule:nonzero;stroke:none"
         id="path7294" />
      <path
         d="m 1237.49,4071.65 c 0,-51.32 -41.6,-92.93 -92.92,-92.93 -51.32,0 -92.93,41.61 -92.93,92.93 0,51.31 41.61,92.92 92.93,92.92 51.32,0 92.92,-41.61 92.92,-92.92"
         style="fill:#f3625f;fill-opacity:1;fill-rule:nonzero;stroke:none"
         id="path7296" />
      <path
         d="m 2375.62,571.141 -0.44,-2.911 c -0.44,-4.308 -0.97,-8.449 -1.76,-12.941 -0.88,-3.687 -1.59,-7.738 -2.38,-11.879 h -444.08 c 0,0 -0.7,4.582 -0.7,11.789 0.17,3.703 0.44,8.02 1.23,13.031 0.18,0.891 0.27,1.942 0.62,2.911 4.84,25 23.06,59.5 83.71,70.601 2.9,0.699 5.98,1.047 9.33,1.488 h 0.26 c 4.75,0.7 9.51,1.141 14.61,1.579 1.68,0.089 3.35,0.273 5.02,0.351 121.48,9.512 175.26,50.27 175.26,50.27 0,0 70.42,-14.09 136.43,0 0,0 7.75,-12.848 14.62,-35.211 1.05,-3.789 2.2,-7.84 3.25,-12.149 0.27,-0.789 0.44,-1.668 0.71,-2.64 0.43,-1.668 0.79,-3.61 1.14,-5.539 l 0.27,-1.77 0.26,-0.961 c 1.76,-9.16 3.08,-19.191 3.61,-30.019 0.53,-11.262 0.44,-23.321 -0.97,-36"
         style="fill:#f3625f;fill-opacity:1;fill-rule:nonzero;stroke:none"
         id="path7298" />
      <path
         d="m 2057.94,555.289 c -0.88,-4.75 -6.6,-7.391 -10.82,-6.16 -4.94,1.332 -6.96,6.16 -6.17,10.832 5.02,28.789 -2.29,59.59 -19.54,83.269 4.75,0.7 9.51,1.141 14.61,1.579 1.68,0.089 3.35,0.273 5.02,0.351 16.2,-26.75 22.36,-58.621 16.9,-89.871"
         style="fill:#da4035;fill-opacity:1;fill-rule:nonzero;stroke:none"
         id="path7300" />
      <path
         d="m 2172.21,691.82 c 1.52,1.391 3.5,2.422 5.61,2.328 2.24,-0.097 3.88,-0.937 5.62,-2.328 1.21,-0.961 2.45,-1.922 3.68,-2.871 5.85,-4.519 11.8,-8.898 17.86,-13.14 1.73,-1.2 3.07,-2.661 3.65,-4.739 0.52,-1.898 0.29,-4.429 -0.8,-6.121 -2.17,-3.367 -7.22,-5.39 -10.86,-2.84 -8.44,5.891 -16.69,12.09 -24.75,18.493 -1.49,1.179 -2.33,3.808 -2.33,5.617 0,1.941 0.86,4.273 2.32,5.601"
         style="fill:#ffffff;fill-opacity:1;fill-rule:nonzero;stroke:none"
         id="path7302" />
      <path
         d="m 2140.78,677.68 c 2.97,2.742 8.33,3.371 11.22,0.011 5.81,-6.769 12.3,-12.91 19.32,-18.39 1.13,-0.852 2.26,-1.699 3.41,-2.512 1.72,-1.219 3.07,-2.641 3.65,-4.738 0.52,-1.899 0.28,-4.43 -0.8,-6.121 -2.16,-3.348 -7.24,-5.41 -10.86,-2.848 -9.55,6.75 -18.32,14.508 -25.94,23.379 -1.39,1.621 -2.33,3.418 -2.33,5.621 0,1.938 0.87,4.258 2.33,5.598"
         style="fill:#ffffff;fill-opacity:1;fill-rule:nonzero;stroke:none"
         id="path7304" />
      <path
         d="m 2111.88,667.43 c 1.51,1.39 3.5,2.422 5.61,2.32 1.95,-0.09 4.36,-0.699 5.61,-2.32 l 18,-23.149 c 1.36,-1.73 2.33,-3.312 2.33,-5.609 0,-1.942 -0.86,-4.274 -2.32,-5.613 -1.51,-1.387 -3.5,-2.418 -5.62,-2.329 -1.94,0.09 -4.35,0.711 -5.61,2.321 l -18,23.16 c -1.35,1.738 -2.32,3.309 -2.32,5.598 0,1.961 0.86,4.281 2.32,5.621"
         style="fill:#ffffff;fill-opacity:1;fill-rule:nonzero;stroke:none"
         id="path7306" />
      <path
         d="m 2079.83,659.949 c 3.8,2.012 8.62,0.981 10.86,-2.84 4.01,-6.871 8.02,-13.73 12.03,-20.597 2.1,-3.582 0.94,-8.852 -2.85,-10.864 -3.8,-2 -8.61,-0.976 -10.85,2.852 -4.01,6.871 -8.03,13.719 -12.04,20.59 -2.09,3.582 -0.94,8.859 2.85,10.859"
         style="fill:#ffffff;fill-opacity:1;fill-rule:nonzero;stroke:none"
         id="path7308" />
      <path
         d="m 2375.24,568.172 c -0.52,-4.184 -1.03,-8.461 -1.88,-12.82 -0.78,-3.84 -1.46,-7.864 -2.4,-11.961 h -443.98 c 0,0 -0.77,4.531 -0.77,11.789 0.18,3.761 0.43,8.129 1.29,12.992 h 447.74"
         style="fill:#ffffff;fill-opacity:1;fill-rule:nonzero;stroke:none"
         id="path7310" />
      <path
         d="m 3065.26,640.301 0.02,-2.942 c 0.23,-4.328 0.35,-8.5 0.26,-13.058 -0.3,-3.789 -0.37,-7.899 -0.5,-12.11 L 2626.3,543.43 c 0,0 -1.39,4.422 -2.51,11.55 -0.4,3.68 -0.81,7.981 -0.81,13.051 0.04,0.899 -0.03,1.957 0.17,2.969 0.91,25.449 13.57,62.359 71.77,82.711 2.75,1.141 5.75,1.969 8.98,2.918 l 0.27,0.051 c 4.58,1.422 9.21,2.59 14.19,3.82 1.64,0.352 3.26,0.781 4.9,1.129 118.53,28.203 165.36,76.781 165.36,76.781 0,0 71.75,-3 134.78,21.141 0,0 9.65,-11.512 19.9,-32.531 1.63,-3.579 3.38,-7.391 5.1,-11.5 0.38,-0.739 0.69,-1.579 1.1,-2.5 0.69,-1.579 1.34,-3.43 1.99,-5.301 l 0.53,-1.699 0.41,-0.911 c 3.16,-8.769 6.01,-18.48 8.21,-29.097 2.27,-11.043 4.05,-22.973 4.62,-35.711"
         style="fill:#f3625f;fill-opacity:1;fill-rule:nonzero;stroke:none"
         id="path7312" />
      <path
         d="m 2753.87,575.461 c -0.13,-4.84 -5.38,-8.332 -9.74,-7.77 -5.08,0.539 -7.82,5.008 -7.77,9.739 0.5,29.218 -11.48,58.519 -32.19,79.25 4.58,1.422 9.21,2.59 14.19,3.82 1.64,0.352 3.26,0.781 4.9,1.129 20.14,-23.938 31.16,-54.457 30.61,-86.168"
         style="fill:#da4035;fill-opacity:1;fill-rule:nonzero;stroke:none"
         id="path7314" />
      <path
         d="m 2845.62,728.031 c 1.28,1.61 3.09,2.93 5.19,3.168 2.22,0.242 3.97,-0.328 5.91,-1.429 1.34,-0.758 2.71,-1.52 4.07,-2.27 6.48,-3.559 13.04,-6.969 19.69,-10.219 1.88,-0.922 3.44,-2.152 4.33,-4.121 0.81,-1.801 0.98,-4.328 0.16,-6.16 -1.62,-3.668 -6.3,-6.449 -10.29,-4.488 -9.25,4.519 -18.36,9.347 -27.32,14.437 -1.65,0.93 -2.88,3.403 -3.16,5.18 -0.31,1.922 0.19,4.351 1.42,5.902"
         style="fill:#ffffff;fill-opacity:1;fill-rule:nonzero;stroke:none"
         id="path7316" />
      <path
         d="m 2816.75,709.199 c 2.51,3.153 7.72,4.621 11.09,1.731 6.8,-5.778 14.15,-10.84 21.94,-15.16 1.24,-0.668 2.49,-1.329 3.75,-1.95 1.9,-0.941 3.45,-2.14 4.34,-4.129 0.81,-1.793 0.97,-4.332 0.15,-6.171 -1.61,-3.641 -6.29,-6.461 -10.28,-4.489 -10.47,5.188 -20.34,11.489 -29.25,19.078 -1.62,1.383 -2.82,3.012 -3.16,5.192 -0.3,1.91 0.19,4.34 1.42,5.898"
         style="fill:#ffffff;fill-opacity:1;fill-rule:nonzero;stroke:none"
         id="path7318" />
      <path
         d="m 2789.79,694.59 c 1.28,1.609 3.09,2.93 5.19,3.16 1.94,0.23 4.41,-0.02 5.91,-1.418 l 21.36,-20.082 c 1.6,-1.508 2.82,-2.91 3.17,-5.191 0.3,-1.918 -0.2,-4.348 -1.43,-5.899 -1.28,-1.609 -3.08,-2.941 -5.18,-3.168 -1.94,-0.222 -4.42,0.028 -5.9,1.418 l -21.38,20.09 c -1.6,1.512 -2.8,2.91 -3.16,5.191 -0.31,1.918 0.19,4.34 1.42,5.899"
         style="fill:#ffffff;fill-opacity:1;fill-rule:nonzero;stroke:none"
         id="path7320" />
      <path
         d="m 2759.28,682.23 c 3.45,2.579 8.37,2.321 11.18,-1.121 5.02,-6.16 10.04,-12.32 15.07,-18.488 2.63,-3.211 2.31,-8.59 -1.13,-11.16 -3.45,-2.582 -8.36,-2.301 -11.16,1.129 -5.03,6.16 -10.06,12.32 -15.08,18.48 -2.63,3.211 -2.3,8.602 1.12,11.16"
         style="fill:#ffffff;fill-opacity:1;fill-rule:nonzero;stroke:none"
         id="path7322" />
      <path
         d="m 3065.34,637.309 c 0.14,-4.219 0.3,-8.508 0.14,-12.957 -0.17,-3.911 -0.23,-8 -0.52,-12.192 l -438.63,-68.75 c 0,0 -1.46,4.36 -2.58,11.539 -0.41,3.742 -0.83,8.082 -0.75,13.031 l 442.34,69.329"
         style="fill:#ffffff;fill-opacity:1;fill-rule:nonzero;stroke:none"
         id="path7324" />
      <path
         d="m 2216.29,695.469 c 0,0 -121,637.411 -133.54,852.861 -12.54,215.4 22.6,579.02 39.65,862.16 h 345.51 c 0,0 -124.05,-642.55 -132.86,-858.83 -8.73,-213.92 15.97,-596.648 17.64,-856.191 0,0 -83.96,-28.418 -136.4,0"
         style="fill:#f7917b;fill-opacity:1;fill-rule:nonzero;stroke:none"
         id="path7326" />
      <path
         d="m 2445.01,2410.49 c 0,0 -0.02,-766.1 14.41,-863.82 14.42,-97.73 429.2,-808.26 429.2,-808.26 0,0 88.9,-16.058 134.78,21.141 0,0 -277.52,759.819 -283.07,813.179 -3.13,30.12 47.26,837.76 47.26,837.76 h -342.58"
         style="fill:#f7917b;fill-opacity:1;fill-rule:nonzero;stroke:none"
         id="path7328" />
      <path
         d="m 3023.38,835.379 c -3.05,-3.41 -6.45,-6.738 -10.21,-9.777 -1.88,-1.59 -3.77,-3.114 -5.79,-4.493 -61.39,-44.949 -192.12,-57.179 -192.12,-57.179 0,0 -361.42,723.2 -376.54,782.7 -15.13,59.58 -5.79,615.71 -5.79,615.71 0,0 -72.68,-508.87 -78.83,-570.47 -6.15,-61.6 21.14,-856.89 21.14,-856.89 -10.21,-2.82 -20.2,-5.14 -29.97,-7.101 -2.32,-0.43 -4.71,-0.867 -7.03,-1.297 -90.62,-16 -159.61,4.707 -159.61,4.707 0,0 -112.84,716.391 -118.78,901.271 -5.86,184.79 54,777.92 54,777.92 l 675.14,-15.28 c 0,0 -22.15,-787.33 -24.61,-822.44 -2.46,-35.18 259,-737.381 259,-737.381"
         style="fill:#106a74;fill-opacity:1;fill-rule:nonzero;stroke:none"
         id="path7330" />
      <path
         d="m 3013.17,825.602 c -1.88,-1.59 -3.77,-3.114 -5.79,-4.493 l -1.09,2.18 -138.91,278.891 c -45.23,90.71 -91.78,180.89 -135.14,272.53 -20.34,42.86 -39.24,86.51 -53.85,131.67 -14.85,45.76 -24.47,92.81 -29.11,140.65 -9.4,96.49 0,193.55 10.79,289.47 10.93,96.85 23.38,193.92 20.99,291.49 -33.66,13.46 -61.24,40.61 -74.55,75.86 -1.67,4.35 5.28,6.23 6.94,1.89 18.61,-49.08 67.03,-81.22 119.44,-79.84 4.7,0.14 4.64,-7.1 0,-7.24 -15.42,-0.36 -30.4,2.02 -44.51,6.73 0.21,-10.72 0.36,-21.36 0.28,-32.07 -0.87,-97.36 -14.77,-193.92 -25.04,-290.55 -10.14,-95.84 -17.16,-193.35 -3.05,-289.18 14.19,-96.13 52.84,-184.87 95.33,-271.38 45.03,-91.42 90.85,-182.48 136.24,-273.69 40.32,-80.918 80.71,-161.989 121.03,-242.918"
         style="fill:#0aadaa;fill-opacity:1;fill-rule:nonzero;stroke:none"
         id="path7332" />
      <path
         d="m 2440.46,2322.31 c -6.52,-43.07 -9.56,-86.65 -9.2,-130.29 0,-4.63 -7.24,-4.63 -7.24,0 -0.07,9.7 0.07,19.39 0.29,29.1 -3.47,1.23 -6.88,2.74 -10.06,4.63 -2.82,-11.22 -5.72,-22.51 -8.47,-33.73 -23.52,-95.33 -43.14,-191.53 -58.92,-288.46 -15.93,-97.5 -27.87,-195.58 -35.83,-294.02 -7.89,-97.87 -11.95,-196.03 -12.09,-294.18 -0.14,-98.16 3.62,-196.31 11.29,-294.1 7.75,-98.229 19.4,-196.17 35.04,-293.381 -2.32,-0.43 -4.71,-0.867 -7.03,-1.297 -1.95,11.727 -3.76,23.52 -5.49,35.25 -14.7,97.43 -25.48,195.359 -32.29,293.598 -6.8,98.37 -9.63,197.03 -8.54,295.69 1.08,99.09 6.15,198.12 15.2,296.85 8.9,97.57 21.71,194.79 38.36,291.35 16.87,97.65 37.71,194.64 62.4,290.63 -9.48,7.09 -17.08,16.72 -22.15,27.51 -9.7,20.69 -10.42,44.08 -7.75,66.44 0.59,4.56 7.82,4.56 7.25,0 -2.47,-20.55 -2.4,-42.34 6.22,-61.52 6.58,-14.77 18.02,-27.51 33.15,-33.66 1.16,31.99 4.13,63.91 8.9,95.54 0.73,4.57 7.68,2.61 6.96,-1.95"
         style="fill:#0aadaa;fill-opacity:1;fill-rule:nonzero;stroke:none"
         id="path7334" />
      <path
         d="m 2803.94,2342.98 c -17.34,-23.86 -329.3,-126.24 -707.01,-13.31 -12.14,3.62 89.32,1134.97 89.32,1134.97 l 134.71,37.52 h 133.35 l 138.99,-36.8 c 0,0 224.2,-1104 210.64,-1122.38"
         style="fill:#f3625f;fill-opacity:1;fill-rule:nonzero;stroke:none"
         id="path7336" />
      <path
         d="m 2186.25,3464.64 c -122.33,-35.74 -349.65,-426.92 -360.74,-428.77 -11.09,-1.85 -443.56,372.09 -443.56,372.09 0,0 -79.46,-48.05 -112.73,-125.67 0,0 466.89,-468.18 561.22,-468.2 117.04,-0.02 324.58,295.04 324.58,295.04 l 31.23,355.51"
         style="fill:#0aadaa;fill-opacity:1;fill-rule:nonzero;stroke:none"
         id="path7338" />
      <path
         d="m 2206.26,3275.81 c 0,-118 -33.91,-228.03 -92.54,-320.94 -106.68,-169.04 -295.08,-281.35 -509.75,-281.35 -75.45,0 -147.67,13.86 -214.22,39.23 -213.17,81.13 -368.39,279.89 -386.3,516.97 -1.18,15.23 -1.77,30.59 -1.77,46.09 0,183.67 82.22,348.12 211.85,458.62 105.14,89.59 241.49,143.67 390.44,143.67 129.04,0 248.58,-40.54 346.58,-109.68 133.17,-93.81 226.58,-240.3 249.94,-409.16 3.82,-27.27 5.77,-55.13 5.77,-83.45"
         style="fill:#0aadaa;fill-opacity:1;fill-rule:nonzero;stroke:none"
         id="path7340" />
      <path
         d="m 2200.49,3359.26 c -31.95,-19.86 -75.36,-14.09 -113.13,-5.72 -41.46,9.22 -87.59,19.45 -124.04,-2.23 -26.68,-15.86 -41.68,-45.45 -53.27,-74.27 -11.55,-28.82 -21.64,-59.36 -42.86,-82 -21.28,-22.64 -57.86,-34.59 -83.86,-17.59 -19.59,12.82 -27.5,37.68 -44.23,54.05 -23.18,22.76 -58.63,25.67 -90.95,28.72 -32.31,3.04 -68.27,9.73 -87.04,36.23 -14.5,20.45 -14.73,47.77 -10.41,72.45 4.36,24.68 12.68,48.81 13.36,73.86 0.69,25.04 -8.27,52.5 -30.04,64.86 -16.77,9.54 -37.27,8.27 -56.41,10.91 -19.09,2.63 -40.41,12.59 -43.9,31.54 -4.41,23.86 21.18,41.41 43,52.05 33.08,16.13 68.4,32.68 104.99,28.81 39.82,-4.22 77.95,-32.36 116.59,-21.9 50.36,13.63 63.67,80.9 106.4,110.81 20.45,14.31 45.95,18.86 70.54,22.91 24.59,4.09 50.09,8.36 70.77,22.31 1.64,1.09 3.14,2.23 4.55,3.36 133.17,-93.81 226.58,-240.3 249.94,-409.16"
         style="fill:#106a74;fill-opacity:1;fill-rule:nonzero;stroke:none"
         id="path7342" />
      <path
         d="m 1425.75,3160.54 c -12.63,-32.68 -48.68,-49.9 -82.95,-57.09 -25.68,-5.41 -52.86,-6.86 -77.91,1 -25.04,7.87 -47.72,26.14 -56.27,50.96 -7.54,21.91 -4.49,48.41 -19.86,65.77 -10.91,12.27 -28.63,16.4 -44.99,15.5 -16.42,-0.91 -32.28,-6.05 -48.37,-9.37 -30.32,-6.18 -62.13,-5.59 -91.95,2.41 -1.18,15.23 -1.77,30.59 -1.77,46.09 0,183.67 82.22,348.12 211.85,458.62 15.91,-39.55 24.73,-82.09 23.28,-102.05 -1.51,-21.13 -7.55,-43.04 -0.46,-62.99 8.87,-25.09 35.82,-39.09 61.82,-44.77 25.95,-5.64 53.22,-5.46 78.35,-14.09 25.19,-8.64 49.05,-29.86 48.82,-56.46 -0.23,-30.99 -31.32,-52.35 -42.31,-81.35 -13.28,-34.82 4.36,-73.05 21.5,-106.09 17.18,-33.04 34.68,-71.36 21.22,-106.09"
         style="fill:#106a74;fill-opacity:1;fill-rule:nonzero;stroke:none"
         id="path7344" />
      <path
         d="m 2113.72,2954.87 c -106.68,-169.04 -295.08,-281.35 -509.75,-281.35 -75.45,0 -147.67,13.86 -214.22,39.23 10.82,16.45 17.37,35.54 17.68,55.63 0.59,34.41 -15.18,66.68 -26.54,99.18 -11.36,32.54 -17.95,70.31 -0.5,100.04 15.77,26.82 47.68,40.13 78.5,44.58 30.86,4.41 62.36,1.78 93.22,5.78 30.91,3.95 63.04,16.13 80.04,42.22 10.41,15.91 14.41,35.82 27.28,49.82 19.45,21.23 53.95,21.86 80.08,9.77 26.14,-12.04 46.04,-34.04 66.04,-54.72 20,-20.73 41.91,-41.37 69.54,-49.46 53.41,-15.54 111.68,20.14 165.22,5.1 32.68,-9.18 56.68,-35.55 73.41,-65.82"
         style="fill:#106a74;fill-opacity:1;fill-rule:nonzero;stroke:none"
         id="path7346" />
      <path
         d="m 1959.02,3043.26 c 0,0 -25.69,-44.49 -70.97,-43.87 -44.5,0.61 -65.02,28.68 -65.02,28.68 0,0 -37.71,-57.12 -52.8,-55.57 -15.08,1.54 20.7,70.29 20.7,70.29 0,0 -65.67,-45.95 -73.98,-35.74 -8.31,10.2 58.2,64.38 58.2,64.38 0,0 -86.73,-14.69 -89.77,2.94 -3.05,17.64 104.05,36.13 104.05,36.13 0,0 -64.78,42.45 -56.14,56.33 12.44,19.97 144.87,-43.58 145.38,-41.9 0.52,1.68 -7.52,71.76 21.01,69.92 27.54,-1.78 9.87,-35.66 27.09,-63.75 8,-13.05 45.48,-56.62 32.25,-87.84"
         style="fill:#f7917b;fill-opacity:1;fill-rule:nonzero;stroke:none"
         id="path7348" />
      <path
         d="m 2593.3,3465.36 c 68.67,-15.2 99.73,-146.75 71.26,-291.5 -35.63,-181.11 -138.61,-359.77 -214.33,-395.5 -69.22,-32.66 -565.59,187.28 -565.59,187.28 0,0 18.04,115.14 70.23,154.57 0,0 397.97,-158.26 412.76,-152.11 14.78,6.16 225.67,497.26 225.67,497.26"
         style="fill:#f3625f;fill-opacity:1;fill-rule:nonzero;stroke:none"
         id="path7350" />
      <path
         d="m 2650.69,3115.74 c -30.44,-81.06 -61.41,-163.2 -110.13,-235.4 -12.03,-17.82 -25.08,-34.99 -39.42,-51.03 -13.47,-15.09 -28.49,-29.32 -46.47,-38.89 -43.64,-23.26 -91.47,-3.51 -134.51,10.96 -53.26,17.91 -106.52,35.82 -159.77,53.73 -4.43,1.49 -6.33,-5.5 -1.93,-6.98 48.73,-16.39 97.45,-32.77 146.18,-49.15 23.68,-7.97 47.32,-17.03 71.72,-22.59 22.23,-5.06 45.6,-6.49 67.39,1.31 39.23,14.04 67.75,50.03 91.52,82.55 26.23,35.88 47.68,75.03 66.36,115.28 20.95,45.14 38.55,91.73 56.04,138.29 1.64,4.37 -5.35,6.25 -6.98,1.92"
         style="fill:#da4035;fill-opacity:1;fill-rule:nonzero;stroke:none"
         id="path7352" />
      <path
         d="m 2160.13,3038.62 c 67.52,-23.67 136.12,-44.25 205.54,-61.59 19.75,-4.93 39.57,-9.59 59.44,-14.01 4.53,-1.01 6.47,5.97 1.92,6.98 -16.14,3.59 -32.24,7.39 -48.31,11.32 18.17,32.12 34.03,65.47 49.17,99.12 16.11,35.8 31.85,71.77 47.75,107.67 9.04,20.45 18.09,40.89 27.14,61.33 1.86,4.22 -4.37,7.91 -6.25,3.65 -15.93,-35.98 -31.85,-71.95 -47.78,-107.93 -15.68,-35.42 -31.06,-71.01 -47.92,-105.89 -9.2,-19.02 -18.93,-37.8 -29.38,-56.17 -50.97,12.64 -101.51,26.96 -151.5,43.03 -19.38,6.24 -38.68,12.73 -57.89,19.47 -4.41,1.54 -6.3,-5.45 -1.93,-6.98"
         style="fill:#da4035;fill-opacity:1;fill-rule:nonzero;stroke:none"
         id="path7354" />
      <path
         d="m 2520.01,3758.47 c 37.61,31.31 63.49,77.15 71.31,126.34 2.5,15.73 3.06,32.64 -4,46.89 -7.06,14.24 -23.76,24.44 -38.4,19.21 -4.16,30.44 -24.15,59.55 -47.02,79.43 -22.88,19.87 -50.3,33.3 -77.92,45.16 -30.2,12.97 -61.52,24.43 -94.11,27.04 -32.59,2.61 -66.9,-4.45 -92.43,-25.32 -25.52,-20.88 -40.28,-57.04 -31.21,-89.36 -17.52,-17.28 -27.66,-43.45 -28.14,-68.46 -0.47,-25.01 6.22,-49.67 15.08,-73 8.42,-22.19 19.32,-44.2 36.94,-59.67 28.92,-25.4 69.86,-28.59 107.76,-30.59 44.67,-2.36 89.33,-4.73 133.99,-7.09 16.12,-0.85 35.62,-1.01 48.15,9.42"
         style="fill:#100f0d;fill-opacity:1;fill-rule:nonzero;stroke:none"
         id="path7356" />
      <path
         d="m 2510.4,3714.37 c 0,0 -52.57,-99.76 -58.81,-234.9 -30.43,-60.26 -112.83,-48.04 -131.21,7.69 2.99,51.38 -5.13,75.83 -20.86,94.12 -1.28,1.53 -2.57,2.9 -3.93,4.36 -0.94,1.02 -1.88,1.96 -2.91,2.9 -1.88,1.88 -4.02,3.59 -6.07,5.47 -14.19,12.23 -32.05,23.77 -52.31,43.17 -23.77,22.57 -40.94,53.08 -46.33,100.35 l -0.26,2.05 c -0.08,1.2 -0.17,2.31 -0.25,3.51 l -0.17,1.54 c -3.76,45.22 2.48,105.22 22.99,187.62 21.28,85.48 231.9,110.27 284.9,-1.97 21.8,-46.32 15.22,-215.91 15.22,-215.91"
         style="fill:#f7917b;fill-opacity:1;fill-rule:nonzero;stroke:none"
         id="path7358" />
      <path
         d="m 2199.37,3941.35 c 4.73,-11.75 17.47,-17.93 29.41,-22.16 63.61,-22.6 135.84,-19.85 197.55,7.51 -3.37,-6.4 -2.13,-14.91 2.92,-20.08 5.05,-5.16 13.53,-6.59 19.99,-3.37 -8.69,-55.01 17.36,-114 63.87,-144.63 6.65,33.03 15.99,68.23 16.36,101.91 0.36,33.7 -5.97,68.22 -23.64,96.9 -22.77,36.96 -63.46,61.33 -106.38,67.84 -42.91,6.5 -87.53,-3.98 -125.22,-25.51 -27.27,-15.57 -52.2,-36.67 -74.86,-58.41"
         style="fill:#100f0d;fill-opacity:1;fill-rule:nonzero;stroke:none"
         id="path7360" />
      <path
         d="m 2555.85,3707.79 c -19.13,-20.25 -47.68,-24.37 -63.77,-9.18 -16.08,15.18 -13.61,43.92 5.52,64.18 19.13,20.26 47.68,24.37 63.76,9.19 16.09,-15.19 13.62,-43.92 -5.51,-64.19"
         style="fill:#f7917b;fill-opacity:1;fill-rule:nonzero;stroke:none"
         id="path7362" />
      <path
         d="m 2549.08,3762.23 c -7.36,4.47 -17.51,4.89 -27.13,1.08 -4.8,-1.89 -8.33,-4.33 -10.84,-7.45 -3.31,-4.13 -4.47,-9.5 -3.04,-14 1.28,-4.04 4.28,-6.79 6.93,-9.21 1.91,-1.76 3.73,-3.42 4.69,-5.33 1.49,-2.94 0.83,-6.89 -1.52,-9.19 -2.34,-2.3 -6.3,-2.86 -9.21,-1.3 -1.71,0.91 -3.83,0.26 -4.74,-1.43 -0.91,-1.7 -0.27,-3.83 1.43,-4.74 1.87,-1 3.92,-1.55 6.01,-1.67 4.15,-0.25 8.4,1.19 11.41,4.14 4.51,4.42 5.72,11.72 2.86,17.35 -1.54,3.04 -4.02,5.32 -6.21,7.32 -2.19,2.02 -4.26,3.92 -4.98,6.19 -0.72,2.26 0,5.2 1.84,7.5 0.74,0.92 1.73,1.74 2.8,2.52 3.48,-0.18 7.76,-1.5 9.81,-4.03 2.31,-2.85 3.25,-6.83 2.44,-10.41 -0.42,-1.88 0.76,-3.75 2.64,-4.18 l 0.57,-0.08 c 1.68,-0.1 3.23,1.03 3.61,2.72 1.29,5.7 -0.13,11.82 -3.82,16.37 -1.38,1.68 -3.15,2.88 -5.02,3.87 5.87,1.22 11.55,0.57 15.84,-2.02 5.29,-3.21 8.98,-10.91 5.81,-16.81 -0.91,-1.71 -0.27,-3.83 1.43,-4.75 1.71,-0.9 3.82,-0.27 4.74,1.44 4.61,8.6 0.78,20.56 -8.35,26.1"
         style="fill:#e56246;fill-opacity:1;fill-rule:nonzero;stroke:none"
         id="path7364" />
      <path
         d="m 2359.56,3770.16 c -0.44,-7.48 -6.87,-13.19 -14.35,-12.75 -7.48,0.44 -13.19,6.87 -12.74,14.35 0.44,7.48 6.86,13.19 14.34,12.75 7.48,-0.45 13.19,-6.87 12.75,-14.35"
         style="fill:#100f0d;fill-opacity:1;fill-rule:nonzero;stroke:none"
         id="path7366" />
      <path
         d="m 2346.23,3774.66 c -0.16,-2.73 -2.51,-4.82 -5.25,-4.66 -2.74,0.16 -4.83,2.51 -4.67,5.25 0.16,2.74 2.51,4.83 5.25,4.67 2.74,-0.16 4.83,-2.52 4.67,-5.26"
         style="fill:#ffffff;fill-opacity:1;fill-rule:nonzero;stroke:none"
         id="path7368" />
      <path
         d="m 2254.78,3776.34 c -0.44,-7.48 -6.86,-13.19 -14.34,-12.75 -7.48,0.44 -13.19,6.87 -12.75,14.35 0.44,7.48 6.86,13.18 14.34,12.75 7.48,-0.45 13.19,-6.87 12.75,-14.35"
         style="fill:#100f0d;fill-opacity:1;fill-rule:nonzero;stroke:none"
         id="path7370" />
      <path
         d="m 2241.45,3780.84 c -0.16,-2.74 -2.51,-4.83 -5.25,-4.67 -2.74,0.16 -4.83,2.52 -4.67,5.26 0.16,2.74 2.51,4.83 5.25,4.67 2.74,-0.17 4.83,-2.52 4.67,-5.26"
         style="fill:#ffffff;fill-opacity:1;fill-rule:nonzero;stroke:none"
         id="path7372" />
      <path
         d="m 2266.97,3828.84 c -16.31,12.85 -38.46,13.47 -55.31,0.55 -3.16,-2.42 -3.99,-7.62 -1.91,-11.13 2.13,-3.59 6.52,-4.43 9.68,-2 6.92,5.3 15.45,7.38 23.61,6.29 4.11,-0.55 8.15,-1.9 11.84,-4.01 3.27,-1.88 6.37,-4.98 10.28,-3.04 0.94,0.47 1.76,1.19 2.42,2.07 2.29,3 2.49,8.83 -0.61,11.27"
         style="fill:#100f0d;fill-opacity:1;fill-rule:nonzero;stroke:none"
         id="path7374" />
      <path
         d="m 2319.78,3825.73 c 20.21,10.69 45.51,8.52 63.08,-6.44 3.29,-2.79 3.58,-8.05 0.77,-11.28 -2.88,-3.3 -7.98,-3.57 -11.28,-0.77 -7.21,6.14 -16.68,9.17 -26.09,9.09 -4.76,-0.03 -9.51,-0.84 -14,-2.43 -3.96,-1.4 -7.93,-4.04 -12.11,-1.63 -1,0.57 -1.84,1.39 -2.49,2.35 -2.22,3.26 -1.72,9.08 2.12,11.11"
         style="fill:#100f0d;fill-opacity:1;fill-rule:nonzero;stroke:none"
         id="path7376" />
      <path
         d="m 2319.02,3710.45 c -3.68,6.79 -15.26,0.89 -28.52,0.89 -13.26,0 -24.84,5.9 -28.52,-0.89 -4.65,-8.6 6.8,-29.97 28.52,-29.97 21.72,0 33.17,21.37 28.52,29.97"
         style="fill:#a1312e;fill-opacity:1;fill-rule:nonzero;stroke:none"
         id="path7378" />
      <path
         d="m 2317.16,3696.24 c -4.15,0.52 -8.57,0.86 -13.26,0.86 -15.43,0 -28.64,-3.17 -34.81,-7.72 5.07,-5.03 12.25,-8.9 21.41,-8.9 13.05,0 22.29,7.73 26.66,15.76"
         style="fill:#da554f;fill-opacity:1;fill-rule:nonzero;stroke:none"
         id="path7380" />
      <path
         d="m 2290.5,3703.89 c 11.84,0 21.89,2.81 25.57,9.2 -5.24,2.1 -14.86,-1.75 -25.57,-1.75 -10.71,0 -20.33,3.85 -25.57,1.75 3.67,-6.39 13.73,-9.2 25.57,-9.2"
         style="fill:#ffffff;fill-opacity:1;fill-rule:nonzero;stroke:none"
         id="path7382" />
      <path
         d="m 2269.44,3738.61 -1.62,1.38 c -2.67,11.75 1.49,15.44 5.45,16.47 4.01,1.03 8.67,-0.27 13.85,-3.89 l 0.43,-2.48 -2.48,-0.43 c -4.27,3 -7.94,4.14 -10.91,3.36 -3.55,-0.91 -4.52,-5.03 -2.88,-12.25 0.22,-0.95 -0.38,-1.9 -1.34,-2.12 l -0.5,-0.04"
         style="fill:#e56246;fill-opacity:1;fill-rule:nonzero;stroke:none"
         id="path7384" />
      <path
         d="M 3265.85,539.84 H 4399.46 V 709.461 H 3265.85 Z"
         style="fill:#da4035;fill-opacity:1;fill-rule:nonzero;stroke:none"
         id="path7386" />
      <path
         d="m 3500.87,539.84 h 102.121 V 709.461 H 3500.87 Z"
         style="fill:#f3625f;fill-opacity:1;fill-rule:nonzero;stroke:none"
         id="path7388" />
      <path
         d="m 3641.3,539.84 h 41.4805 V 709.461 H 3641.3 Z"
         style="fill:#f3625f;fill-opacity:1;fill-rule:nonzero;stroke:none"
         id="path7390" />
      <path
         d="m 3728.1,539.84 h 66.3789 V 709.461 H 3728.1 Z"
         style="fill:#f3625f;fill-opacity:1;fill-rule:nonzero;stroke:none"
         id="path7392" />
      <path
         d="M 3161.3,709.461 H 4294.91 V 879.09 H 3161.3 Z"
         style="fill:#da4035;fill-opacity:1;fill-rule:nonzero;stroke:none"
         id="path7394" />
      <path
         d="m 3396.31,709.461 h 102.133 V 879.09 H 3396.31 Z"
         style="fill:#f3625f;fill-opacity:1;fill-rule:nonzero;stroke:none"
         id="path7396" />
      <path
         d="m 3536.74,709.461 h 41.4883 V 879.09 H 3536.74 Z"
         style="fill:#f3625f;fill-opacity:1;fill-rule:nonzero;stroke:none"
         id="path7398" />
      <path
         d="m 3623.54,709.461 h 66.3906 V 879.09 H 3623.54 Z"
         style="fill:#f3625f;fill-opacity:1;fill-rule:nonzero;stroke:none"
         id="path7400" />
      <path
         d="m 3242.99,879.09 h 1133.62 v 169.621 H 3242.99 Z"
         style="fill:#da4035;fill-opacity:1;fill-rule:nonzero;stroke:none"
         id="path7402" />
      <path
         d="m 3478.01,879.09 h 102.129 v 169.621 H 3478.01 Z"
         style="fill:#f3625f;fill-opacity:1;fill-rule:nonzero;stroke:none"
         id="path7404" />
      <path
         d="m 3618.44,879.09 h 41.4883 v 169.621 H 3618.44 Z"
         style="fill:#f3625f;fill-opacity:1;fill-rule:nonzero;stroke:none"
         id="path7406" />
      <path
         d="m 3705.25,879.09 h 66.3789 v 169.621 H 3705.25 Z"
         style="fill:#f3625f;fill-opacity:1;fill-rule:nonzero;stroke:none"
         id="path7408" />
      <path
         d="m 4399.46,663.57 h -604.98 v 45.891 h 604.98 V 663.57 m -671.36,0 h -45.32 v 45.891 h 45.32 V 663.57 m -86.8,0 h -38.31 v 45.891 h 38.31 V 663.57 m -140.43,0 h -235.02 v 45.891 h 235.02 V 663.57"
         style="fill:#dd2c23;fill-opacity:1;fill-rule:nonzero;stroke:none"
         id="path7410" />
      <path
         d="m 3500.87,663.57 h 102.121 v 45.8906 H 3500.87 Z"
         style="fill:#f03f41;fill-opacity:1;fill-rule:nonzero;stroke:none"
         id="path7412" />
      <path
         d="m 3641.3,663.57 h 41.4805 v 45.8906 H 3641.3 Z"
         style="fill:#f03f41;fill-opacity:1;fill-rule:nonzero;stroke:none"
         id="path7414" />
      <path
         d="m 3728.1,663.57 h 66.3789 v 45.8906 H 3728.1 Z"
         style="fill:#f03f41;fill-opacity:1;fill-rule:nonzero;stroke:none"
         id="path7416" />
      <path
         d="m 4294.91,833.191 h -604.98 v 45.899 h 604.98 v -45.899 m -671.37,0 h -45.31 v 45.899 h 45.31 v -45.899 m -86.8,0 h -38.3 v 45.899 h 38.3 v -45.899 m -140.43,0 H 3161.3 v 45.899 h 235.01 v -45.899"
         style="fill:#dd2c23;fill-opacity:1;fill-rule:nonzero;stroke:none"
         id="path7418" />
      <path
         d="m 3396.31,833.191 h 102.133 v 45.8984 H 3396.31 Z"
         style="fill:#f03f41;fill-opacity:1;fill-rule:nonzero;stroke:none"
         id="path7420" />
      <path
         d="m 3536.74,833.191 h 41.4883 v 45.8984 H 3536.74 Z"
         style="fill:#f03f41;fill-opacity:1;fill-rule:nonzero;stroke:none"
         id="path7422" />
      <path
         d="m 3623.54,833.191 h 66.3906 v 45.8984 H 3623.54 Z"
         style="fill:#f03f41;fill-opacity:1;fill-rule:nonzero;stroke:none"
         id="path7424" />
    </g>
  </g>
</svg>
