<?xml version="1.0" encoding="UTF-8" standalone="no"?>
<!-- Created with Inkscape (http://www.inkscape.org/) -->

<svg
   version="1.1"
   id="svg2"
   width="666.84003"
   height="666.84003"
   viewBox="0 0 666.84003 666.84003"
   sodipodi:docname="slow-analysis.svg"
   inkscape:version="1.2.2 (b0a8486541, 2022-12-01)"
   xmlns:inkscape="http://www.inkscape.org/namespaces/inkscape"
   xmlns:sodipodi="http://sodipodi.sourceforge.net/DTD/sodipodi-0.dtd"
   xmlns="http://www.w3.org/2000/svg"
   xmlns:svg="http://www.w3.org/2000/svg">
  <defs
     id="defs6" />
  <sodipodi:namedview
     id="namedview4"
     pagecolor="#ffffff"
     bordercolor="#666666"
     borderopacity="1.0"
     inkscape:showpageshadow="2"
     inkscape:pageopacity="0"
     inkscape:pagecheckerboard="0"
     inkscape:deskcolor="#d1d1d1"
     showgrid="false"
     inkscape:zoom="1.5643244"
     inkscape:cx="474.00656"
     inkscape:cy="245.79302"
     inkscape:window-width="1728"
     inkscape:window-height="1048"
     inkscape:window-x="0"
     inkscape:window-y="32"
     inkscape:window-maximized="1"
     inkscape:current-layer="g12">
    <inkscape:page
       x="0"
       y="0"
       id="page8"
       width="666.84003"
       height="666.84003" />
  </sodipodi:namedview>
  <g
     id="g10"
     inkscape:groupmode="layer"
     inkscape:label="Page 1"
     transform="matrix(1.3333333,0,0,-1.3333333,0,666.84)">
    <g
       id="g12"
       transform="scale(0.1)">
      <path
         d="m 4074.69,767.629 c 82.87,126.793 197.07,511.601 217.13,565.771 187.89,507.27 588.93,1551.25 -85.29,1876.16 -241.23,116.23 -513.02,99.89 -781.37,83.55 -145.23,-8.85 -289.45,-17.69 -427.27,-5.53 -270.06,23.85 -546.63,103.18 -739.44,309.28 -157.19,168.01 -258.43,395.33 -437.13,535.04 -377.6,295.22 -883.629,-7.41 -1122.484,-337.74 -297.113,-410.9 -370.199,-1059.55 -315.914,-1547.52 18.258,-164.1 62.48,-342.68 197.691,-437.43 192.469,-134.88 458.007,-32.24 657.727,91.65 80.66,50.03 164.82,104.96 259.69,107.97 94.88,3.02 199.07,-71.92 187.54,-166.14 -9.37,-76.58 -84.71,-124.84 -152.27,-162.11 -146.92,-81.07 -293.84,-162.13 -440.76,-243.2 C 960.703,1364.64 824.516,1288.13 736.02,1166.31 631.195,1022.02 567.129,810.949 754.359,767.629 c 73.485,-17 171.825,0 247.141,0 262.94,0 525.87,0 788.81,0 599.43,0 1198.86,0 1798.29,0 162.03,0 324.06,0 486.09,0"
         style="fill:#98dcd7;fill-opacity:1;fill-rule:nonzero;stroke:none"
         id="path16" />
      <path
         d="m 1999.78,2708.77 h -403.23 c -166.61,0 -302.93,123.92 -302.93,275.39 0,151.47 136.32,275.4 302.93,275.4 h 403.24 c 166.61,0 302.93,-123.93 302.93,-275.4 v 0 c 0,-151.47 -136.32,-275.39 -302.94,-275.39"
         style="fill:#1a1718;fill-opacity:1;fill-rule:nonzero;stroke:none"
         id="path18" />
      <path
         d="m 2007.22,3262.13 h -401.25 c -58.56,0 -113.5,-14.18 -160.66,-38.76 20.4,-174.87 84,-347.28 148.66,-514.34 3.99,-0.13 7.98,-0.26 12,-0.26 h 401.25 c 173.79,0 315.98,124.5 315.98,276.68 v 0 c 4.6,146.37 -129.98,261.26 -315.98,276.68"
         style="fill:#ac94b5;fill-opacity:1;fill-rule:nonzero;stroke:none"
         id="path20" />
      <path
         d="M 1831.9,2839.91 V 2429 c 0,-5.72 4.64,-10.36 10.35,-10.36 5.72,0 10.36,4.64 10.36,10.36 v 410.91 c 0,5.71 -4.64,10.35 -10.36,10.35 -5.71,0 -10.35,-4.64 -10.35,-10.35"
         style="fill:#1a1718;fill-opacity:1;fill-rule:nonzero;stroke:none"
         id="path22" />
      <path
         d="M 3223.75,776.781 H 1148.38 L 987.898,1154.37 746.59,1722.3 537.637,2213.99 c -80.532,189.54 75.136,392.8 302.336,394.72 l 1371.877,11.47 c 136.79,1.05 259.85,-74.05 308.45,-188.07 l 58.39,-137.25 v -0.16 l 8.33,-19.59 17.41,-40.94 150.61,-354.49 6.15,-14.52 38,-89.37 36.55,-85.85 44.11,-104.02 343.9,-809.139"
         style="fill:#ac94b5;fill-opacity:1;fill-rule:nonzero;stroke:none"
         id="path24" />
      <path
         d="M 848.414,2370.08 C 1056.3,1854.52 1253.03,1331.3 1460.83,816.84 c 1.4,-3.461 5.35,-5.141 8.81,-3.738 3.47,1.398 5.14,5.347 3.74,8.808 -207.72,514.26 -404.45,1037.47 -612.411,1553.23 -1.399,3.47 -5.34,5.15 -8.809,3.75 -3.469,-1.4 -5.144,-5.34 -3.746,-8.81"
         style="fill:#0d0d0e;fill-opacity:1;fill-rule:nonzero;stroke:none"
         id="path26" />
      <path
         d="m 888.777,984.641 0.129,-0.422 -0.129,0.422"
         style="fill:#0d0d0e;fill-opacity:1;fill-rule:nonzero;stroke:none"
         id="path28" />
      <path
         d="m 2162.54,1786.71 c -263.53,-70.19 -539.92,-162.15 -778.84,-293.67 -138.17,-76.05 -274.25,-164.83 -366.84,-292.5 -2.3,-3.18 -14.98,-24.11 -28.962,-46.17 L 746.59,1722.3 c 69.398,121.67 222.305,208.32 318.12,229.96 138.13,31.27 289.36,-20.64 387.18,-123.06 44.62,90.54 158.14,131.47 253.15,165.5 45.83,16.45 93.8,29.47 142.48,28.01 136.88,-4.15 243.7,-119.13 315.02,-236"
         style="fill:#0d0d0e;fill-opacity:1;fill-rule:nonzero;stroke:none"
         id="path30" />
      <path
         d="m 3712.36,879.551 745.1,191.679 -470.09,500.76 -642.13,91.54 367.12,-783.979"
         style="fill:#9ac2c2;fill-opacity:1;fill-rule:nonzero;stroke:none"
         id="path32" />
      <path
         d="m 1425.64,761.09 2341.63,6.219 c -5.16,198.832 -17.98,361.021 -84.43,548.491 -66.45,187.47 -193.46,361.38 -374.43,443.91 -50.65,23.1 -104.6,38.75 -154.09,64.23 -164.02,84.45 -271.95,289.12 -237.03,470.26 h -556.25 c 16.11,-159.55 -68.7,-324.89 -207.68,-404.89 -108.05,-62.19 -238.36,-73.46 -350.99,-126.9 -171.58,-81.4 -285.45,-254.51 -339.46,-436.57 -17.09,-57.63 -28.95,-116.34 -37.27,-175.69 v 0.01 l -0.02,-0.15 c -2.05,-14.61 -3.82,-29.28 -5.46,-43.96 -0.36,-3.18 -0.69,-6.37 -1.03,-9.55 -1.37,-12.89 -2.6,-25.8 -3.7,-38.73 -0.17,-2.03 -0.37,-4.06 -0.53,-6.09 -1.24,-15.18 -2.32,-30.38 -3.24,-45.6 -0.1,-1.66 -0.17,-3.33 -0.27,-4.99 -0.78,-13.352 -1.45,-26.719 -2.03,-40.102 -0.14,-3.297 -0.29,-6.597 -0.42,-9.906 -0.55,-13.773 -1.03,-27.531 -1.42,-41.312 -0.03,-1.051 -0.06,-2.098 -0.1,-3.149 -0.4,-15.141 -0.73,-30.289 -1,-45.441 -0.06,-3.34 -0.1,-6.68 -0.16,-10.008 -0.19,-12.031 -0.36,-24.051 -0.49,-36.063 -0.05,-3.89 -0.09,-7.769 -0.14,-11.66 -0.14,-14.14 -0.27,-28.269 -0.39,-42.39 v -0.02 l 12.36,0.043 8.04,0.008"
         style="fill:#f1c2a6;fill-opacity:1;fill-rule:nonzero;stroke:none"
         id="path34" />
      <path
         d="m 3895.53,1282.58 c 99.01,13.59 198.92,37.19 291.07,77.17 l -199.23,212.24 -642.12,91.54 179.74,-383.84 c 122.91,-15.1 248.4,-13.87 370.54,2.89"
         style="fill:#0d0d0e;fill-opacity:1;fill-rule:nonzero;stroke:none"
         id="path36" />
      <path
         d="m 2831.64,2294.2 c -19.33,-132.48 -16.55,-271.83 5.36,-404.08 24.05,-145.14 72.85,-299.42 177.31,-405.97 48.56,-49.53 111.6,-85.72 175.38,-114.9 68.98,-31.55 143.15,-54.02 217.69,-69.91 95.15,-20.29 193.1,-30.14 290.94,-30.14 -4.85,15.4 -9.91,30.88 -15.48,46.6 -66.45,187.47 -193.46,361.38 -374.43,443.91 -50.65,23.1 -104.6,38.75 -154.09,64.23 -164.02,84.45 -271.95,289.12 -237.03,470.26 h -85.65"
         style="fill:#0d0d0e;fill-opacity:1;fill-rule:nonzero;stroke:none"
         id="path38" />
      <path
         d="m 2226.71,1943.9 h 784.99 c -77.62,99 -117.63,229.83 -94.41,350.3 h -556.25 c 13.04,-129.07 -40.02,-261.89 -134.33,-350.3"
         style="fill:#af4325;fill-opacity:1;fill-rule:nonzero;stroke:none"
         id="path40" />
      <path
         d="m 2976.53,2360.06 c -79.85,-178.88 -289.66,-259.13 -468.54,-179.28 -47.15,21.07 -87.54,51.2 -119.83,87.41 -49.04,54.85 -79.71,123.75 -88.09,196.43 -0.54,5.28 -1.08,10.68 -1.35,15.95 -4.05,56.06 5.41,113.89 29.99,168.74 79.85,179.01 289.66,259.26 468.54,179.28 77.14,-34.45 136.04,-93.09 171.58,-163.07 46.74,-92.14 53.09,-203.73 7.7,-305.46"
         style="fill:#af4325;fill-opacity:1;fill-rule:nonzero;stroke:none"
         id="path42" />
      <path
         d="m 2353.44,2396.58 c -31.5,52.82 -78.68,100 -122.58,112.37 -70.06,19.76 -142.87,-21.02 -162.63,-91.07 -12.83,-45.51 0.19,-95.59 33.64,-129.03 28.32,-28.3 64.48,-30.63 101.28,-38.95 38.87,-8.79 68.54,-41.64 106.96,-46.22 40.78,-4.87 76.92,34.98 79.71,76.02 2.3,33.78 -12.56,76.94 -36.38,116.88"
         style="fill:#af4325;fill-opacity:1;fill-rule:nonzero;stroke:none"
         id="path44" />
      <path
         d="m 2130.1,2380.28 c 14.87,6.27 31.01,9.33 47.22,9.33 29.94,0.01 60.03,-10.47 82.53,-30.05 l 3.33,3.82 -3.52,3.65 c -12.52,-12.09 -19.28,-29.25 -19.3,-46.43 0,-7.03 1.14,-14.07 3.54,-20.77 8.31,-23.04 30.38,-39.94 54.79,-41.96 2.79,-0.23 5.23,1.85 5.46,4.64 0.22,2.79 -1.86,5.23 -4.65,5.46 -20.2,1.55 -39.3,16.17 -46.06,35.28 -1.98,5.53 -2.95,11.42 -2.95,17.35 -0.01,14.52 5.84,29.18 16.2,39.13 1.03,0.99 1.59,2.35 1.55,3.78 -0.04,1.43 -0.66,2.76 -1.74,3.7 -24.55,21.31 -56.9,32.52 -89.18,32.53 -17.48,0 -34.95,-3.29 -51.15,-10.12 -2.58,-1.08 -3.79,-4.06 -2.71,-6.63 1.09,-2.58 4.06,-3.79 6.64,-2.71"
         style="fill:#0d0d0e;fill-opacity:1;fill-rule:nonzero;stroke:none"
         id="path46" />
      <path
         d="M 2063.37,1848.83 C 1934.29,1781.7 1542.03,1722.62 1405.24,1676.27 1230.47,1617.05 996.887,1543.05 821.066,1326.15 689.574,1163.94 608.625,964.832 566.484,760.309 H 2013.39 c -10.63,297.791 245.65,863.781 49.98,1088.521"
         style="fill:#f1c2a6;fill-opacity:1;fill-rule:nonzero;stroke:none"
         id="path48" />
      <path
         d="m 2418.48,2648.99 c 144.7,41.3 293.62,84.73 411.05,178.82 78.42,62.83 138.62,145.11 196.06,227.56 38.3,54.98 76.5,111.97 93.06,176.9 16.57,64.92 7.69,140.26 -38.92,188.4 -43.52,44.94 -110.91,58.09 -173.41,55.47 -92.93,-3.89 -188.63,-41.55 -242.53,-117.36 -56.21,-79.07 -58.21,-182.73 -67.68,-279.28 -9.48,-96.55 -35.69,-203.23 -117.99,-254.6 -88.56,-55.28 -174.24,-75.32 -221.69,-180.3 -36.61,-81 -5.57,-148.74 44.34,-215.43 37.61,-50.25 153.09,-220.36 198.33,-87.28 29.59,87.04 -41,232 -80.62,307.1"
         style="fill:#0d0d0e;fill-opacity:1;fill-rule:nonzero;stroke:none"
         id="path50" />
      <path
         d="m 2736.79,2932.23 c -9.02,-154.9 -18.04,-309.79 -27.06,-464.68 -7.98,-137.03 -10.18,-290.96 83.92,-390.87 43.22,-45.89 101.62,-73.85 158.6,-100.8 95.95,-45.37 191.89,-90.75 287.84,-136.12 102,77.01 221.51,139.19 323.52,216.21 -42.72,18.12 -86.77,35.42 -129.49,53.53 -38.51,16.33 -79.92,35.24 -99.41,72.25 -13.04,24.76 -14.07,53.87 -14.7,81.84 -2.83,125.62 -3.4,251.28 -1.73,376.91 0.33,24.2 0.63,49.03 -7.7,71.74 -8.33,22.72 -27.77,40.73 -51.41,45.88 -69.19,15.07 -91.93,-73.02 -87.85,-96.87 -0.11,89.18 9.44,209.33 9.33,298.51 -0.04,35.74 1.75,132.92 0,139.92 -9.33,37.32 -41.72,61.75 -74.63,55.97 -25.91,-4.54 -46.64,-18.65 -65.3,-55.97 -8.21,33.56 -46.64,55.97 -93.28,55.97 -93.28,0 -74.63,-186.56 -74.63,-186.56 -18.65,18.65 -25.09,34.43 -73.5,25.65 -28.59,-5.19 -60.73,-31.66 -62.52,-62.51"
         style="fill:#af4325;fill-opacity:1;fill-rule:nonzero;stroke:none"
         id="path52" />
      <path
         d="m 2834.71,3000.19 c 17.86,-6.6 31.02,-23.98 37.4,-43.01 6.45,-19.07 7.16,-40.06 7.66,-61.18 1.97,-80.53 2.95,-161.07 2.95,-241.62 0,-51.72 -0.4,-103.44 -1.21,-155.15 -0.05,-2.8 2.18,-5.1 4.98,-5.14 2.8,-0.05 5.1,2.19 5.15,4.98 0.81,51.77 1.21,103.54 1.21,155.31 0,80.63 -0.98,161.26 -2.95,241.86 -0.54,21.15 -1.13,43.18 -8.18,64.18 -7.12,21.05 -21.71,41.08 -43.47,49.26 -2.62,0.98 -5.54,-0.35 -6.52,-2.97 -0.97,-2.62 0.36,-5.54 2.98,-6.52"
         style="fill:#0d0d0e;fill-opacity:1;fill-rule:nonzero;stroke:none"
         id="path54" />
      <path
         d="m 3039.3,2513.93 v 610.7 c 0,2.8 -2.27,5.06 -5.07,5.06 -2.8,0 -5.06,-2.26 -5.06,-5.06 v -610.7 c 0,-2.79 2.26,-5.06 5.06,-5.06 2.8,0 5.07,2.27 5.07,5.06"
         style="fill:#0d0d0e;fill-opacity:1;fill-rule:nonzero;stroke:none"
         id="path56" />
      <path
         d="m 3181.08,2513.89 3.67,470.09 c 0.02,2.8 -2.23,5.09 -5.03,5.11 -2.8,0.02 -5.08,-2.23 -5.11,-5.03 l -3.66,-470.09 c -0.03,-2.79 2.22,-5.08 5.02,-5.1 2.8,-0.02 5.09,2.23 5.11,5.02"
         style="fill:#0d0d0e;fill-opacity:1;fill-rule:nonzero;stroke:none"
         id="path58" />
      <path
         d="m 3334.71,2181.75 c 0,0 -250.52,25.21 -286.25,-251.37"
         style="fill:#af4325;fill-opacity:1;fill-rule:nonzero;stroke:none"
         id="path60" />
      <path
         d="m 3434.12,2109.5 1052,-399.26 c 226.58,-85.99 289.96,-376.52 119.79,-549.06 v 0 C 4453.19,1006.33 4208.28,991.602 4038.1,1127.02 l -1026.77,819.52 422.79,162.96"
         style="fill:#af4325;fill-opacity:1;fill-rule:nonzero;stroke:none"
         id="path62" />
      <path
         d="m 2431.16,2221.64 c 0.25,-0.42 19.22,-32.56 63.56,-64.69 44.33,-32.13 114.12,-64.14 215.31,-64.12 28.67,0 59.85,2.56 93.68,8.4 2.76,0.47 4.61,3.09 4.13,5.85 -0.47,2.76 -3.09,4.61 -5.85,4.13 -33.3,-5.74 -63.9,-8.25 -91.96,-8.25 -99.04,0.02 -166.5,31.17 -209.36,62.2 -21.43,15.52 -36.68,31.02 -46.55,42.6 -4.94,5.79 -8.52,10.6 -10.86,13.93 -1.17,1.67 -2.03,2.97 -2.58,3.84 l -0.61,0.97 -0.17,0.28 c -1.42,2.41 -4.53,3.22 -6.94,1.8 -2.41,-1.42 -3.22,-4.52 -1.8,-6.94"
         style="fill:#0d0d0e;fill-opacity:1;fill-rule:nonzero;stroke:none"
         id="path64" />
      <path
         d="m 2535.62,2464.26 c 15.11,-21.51 39.02,-36.39 65,-40.43 4.83,-0.75 9.72,-1.12 14.59,-1.12 21.33,0.01 42.58,7 59.6,19.96 2.22,1.69 2.65,4.87 0.95,7.1 -1.69,2.22 -4.87,2.65 -7.1,0.96 -15.15,-11.57 -34.34,-17.9 -53.45,-17.89 -4.37,0 -8.73,0.33 -13.04,1 -23.16,3.58 -44.81,17.05 -58.25,36.24 -1.61,2.29 -4.77,2.85 -7.06,1.24 -2.29,-1.61 -2.85,-4.77 -1.24,-7.06"
         style="fill:#0d0d0e;fill-opacity:1;fill-rule:nonzero;stroke:none"
         id="path66" />
      <path
         d="m 2525.7,2519.24 c 54.73,18.8 97.77,65.97 111.48,122.19 1.82,7.52 -2.8,15.08 -10.31,16.89 -7.51,1.82 -15.07,-2.8 -16.89,-10.31 -11.13,-46.49 -48.04,-86.95 -93.32,-102.29 -7.32,-2.49 -11.22,-10.45 -8.72,-17.76 2.49,-7.31 10.45,-11.22 17.76,-8.72"
         style="fill:#0d0d0e;fill-opacity:1;fill-rule:nonzero;stroke:none"
         id="path68" />
      <path
         d="m 2713.86,2329.94 c -37.52,3.31 -76.11,-16.83 -94.86,-49.5 -15.91,-27.71 -13.88,-15.28 -11.59,-47.15 2.33,-32.58 29.56,-59.54 60.63,-69.61 31.06,-10.08 65.02,-6.03 96.58,2.36 -29.58,53.55 -45.69,102.94 -50.76,163.9"
         style="fill:#0d0d0e;fill-opacity:1;fill-rule:nonzero;stroke:none"
         id="path70" />
      <path
         d="m 2726.58,2257.03 c -6.37,23.02 -10.56,46.91 -12.72,72.91 -37.52,3.3 -76.11,-16.83 -94.86,-49.5 -8.78,-15.3 -12.09,-18.37 -12.92,-23.41 h 120.5"
         style="fill:#ffffff;fill-opacity:1;fill-rule:nonzero;stroke:none"
         id="path72" />
      <path
         d="m 3048.57,1931.62 c -114.64,49.29 -238.26,141.54 -286.5,255.32 -37.7,88.67 -53.3,185.44 -53.3,282.37 0,28.45 1.34,56.91 3.86,85.18 5.46,61.39 16.41,123.22 16.43,185.51 0,13.4 -0.51,26.83 -1.7,40.28 -0.25,2.78 -2.71,4.84 -5.49,4.6 -2.79,-0.25 -4.85,-2.71 -4.6,-5.49 1.15,-13.11 1.65,-26.24 1.65,-39.39 0.02,-61.09 -10.84,-122.64 -16.38,-184.61 -2.54,-28.55 -3.9,-57.31 -3.9,-86.08 0,-98.01 15.76,-196.13 54.1,-286.33 50.13,-117.6 175.56,-210.52 291.83,-260.66 2.57,-1.11 5.55,0.08 6.65,2.65 1.11,2.57 -0.08,5.55 -2.65,6.65"
         style="fill:#0d0d0e;fill-opacity:1;fill-rule:nonzero;stroke:none"
         id="path74" />
      <path
         d="m 3702.27,1388.98 c 22.2,-187.75 120.51,-365.21 267.91,-483.589 2.19,-1.762 5.38,-1.411 7.13,0.769 1.75,2.192 1.4,5.371 -0.78,7.129 -145.28,116.641 -242.35,291.851 -264.19,476.881 -0.33,2.78 -2.85,4.77 -5.63,4.44 -2.78,-0.33 -4.76,-2.85 -4.43,-5.63"
         style="fill:#0d0d0e;fill-opacity:1;fill-rule:nonzero;stroke:none"
         id="path76" />
      <path
         d="m 2159.85,1903.4 c 15.35,-36.9 43.11,-65.19 76.31,-86.54 33.23,-21.37 71.97,-35.9 109.9,-45.41 38.67,-9.69 78.67,-15.81 118.64,-15.81 20,0 39.99,1.53 59.8,4.92 59.43,10.19 117.12,38.06 156.67,84.21 l -3.85,3.29 -3.56,-3.6 c 64.8,-64 158.97,-94.79 252.31,-94.8 45.91,0 91.65,7.45 133.71,22.17 2.65,0.92 4.04,3.81 3.11,6.45 -0.92,2.64 -3.81,4.04 -6.45,3.11 -40.91,-14.31 -85.56,-21.6 -130.37,-21.6 -91.17,-0.01 -182.82,30.19 -245.19,91.88 -1,0.99 -2.36,1.51 -3.77,1.46 -1.41,-0.06 -2.72,-0.7 -3.64,-1.77 -37.63,-43.96 -93.16,-70.97 -150.68,-80.81 -19.19,-3.29 -38.61,-4.78 -58.09,-4.78 -38.94,0 -78.13,5.97 -116.18,15.51 -37.14,9.3 -74.92,23.54 -106.87,44.1 -31.98,20.57 -58.07,47.36 -72.45,81.92 -1.07,2.58 -4.04,3.8 -6.62,2.73 -2.58,-1.08 -3.81,-4.04 -2.73,-6.63"
         style="fill:#0d0d0e;fill-opacity:1;fill-rule:nonzero;stroke:none"
         id="path78" />
      <path
         d="m 2747.23,1562.74 72.96,205.84 -35.12,22.24 c -11.62,6.55 -22.86,13.72 -33.79,21.38 l -66.34,41.99 c -16.86,-19.37 -37.34,-35.93 -58.67,-49.88 -26.45,-17.3 -55.28,-31.42 -85.09,-42.75 l 114.86,-211.85 -291.82,-625.331 362.17,-416.887 304.85,375.199 -284.01,680.049"
         style="fill:#0d0d0e;fill-opacity:1;fill-rule:nonzero;stroke:none"
         id="path80" />
      <path
         d="m 273.516,761.352 c 14.14,0 1095.144,0 2172.624,0 1077.46,0 2151.4,0 2151.4,0 3.47,0 6.28,2.808 6.28,6.277 0,3.473 -2.81,6.281 -6.28,6.281 0,0 -1073.93,0 -2151.4,0 -1077.48,0 -2158.484,0 -2172.624,0 -3.469,0 -6.282,-2.808 -6.282,-6.281 0,-3.469 2.813,-6.277 6.282,-6.277 v 0"
         style="fill:#0d0d0e;fill-opacity:1;fill-rule:nonzero;stroke:none"
         id="path82" />
      <path
         d="m 4671.58,773.77 188.53,634.51 c 19.97,67.22 -30.54,134.68 -100.85,134.68 H 3733.82 c -42.55,0 -80.91,-25.56 -97.19,-64.77 L 3360.01,784.398 4671.58,773.77"
         style="fill:#a096d3;fill-opacity:1;fill-rule:nonzero;stroke:none"
         id="path84" />
      <path
         d="m 4827.94,1324.65 c -72.61,-4.11 -143.96,-30.21 -199.14,-78.18 -58.43,-50.79 -93.84,-121.7 -107.15,-197.37 -0.3,-1.73 -2.35,-3.15 -4.03,-3.07 -42.36,1.81 -83.46,-9.22 -119.69,-31.13 -67.32,-40.689 -113.85,-109.56 -152.11,-176.509 -11.42,-19.981 -22.05,-40.371 -32.43,-60.899 l 458.19,-3.722 163.76,551.14 c -2.47,-0.1 -4.93,-0.12 -7.4,-0.26"
         style="fill:#0d0d0e;fill-opacity:1;fill-rule:nonzero;stroke:none"
         id="path86" />
      <path
         d="M 3636.63,1478.19 3360.01,784.398"
         style="fill:#0d0d0e;fill-opacity:1;fill-rule:nonzero;stroke:none"
         id="path88" />
      <path
         d="m 2877.88,755.961 h 1774.85 c 15.64,0 28.44,12.789 28.44,28.437 v 0 c 0,15.641 -12.8,28.442 -28.44,28.442 H 2877.89 c -15.65,0 -28.45,-12.801 -28.45,-28.442 0,-15.648 12.8,-28.437 28.44,-28.437"
         style="fill:#8d83c9;fill-opacity:1;fill-rule:nonzero;stroke:none"
         id="path90" />
      <path
         d="m 4188.73,958.531 c -5.52,0 -11.01,0.649 -16.43,1.989 -22.05,5.449 -39.5,21.55 -51.25,43.97 -11.79,22.45 -18.09,51.34 -18.1,83.32 0,21.31 2.81,44.01 8.74,67.08 10.77,41.87 29.96,77.88 53.14,103.58 23.17,25.66 50.47,41.21 77.63,41.24 5.52,0 11.02,-0.65 16.43,-1.99 22.05,-5.45 39.5,-21.55 51.26,-43.97 11.78,-22.44 18.08,-51.34 18.09,-83.31 0,-21.32 -2.81,-44.02 -8.74,-67.08 v 0 c -10.77,-41.88 -29.95,-77.89 -53.14,-103.59 -23.17,-25.661 -50.47,-41.211 -77.63,-41.239 m 53.64,333.529 c -24.08,0 -49.66,-14.1 -71.86,-38.72 -22.22,-24.61 -40.93,-59.58 -51.4,-100.36 -5.78,-22.46 -8.51,-44.53 -8.5,-65.17 -0.01,-30.97 6.15,-58.73 17.21,-79.76 11.09,-21.058 26.86,-35.28 46.32,-40.101 4.8,-1.187 9.67,-1.769 14.59,-1.769 0.03,0 0.06,0 0.09,0 24.08,0 49.66,14.101 71.86,38.72 22.22,24.61 40.93,59.58 51.41,100.36 v 0 c 5.77,22.46 8.5,44.53 8.5,65.18 0,30.97 -6.16,58.72 -17.22,79.75 -11.09,21.06 -26.86,35.28 -46.32,40.1 -4.8,1.19 -9.67,1.77 -14.59,1.77 -0.03,0 -0.06,0 -0.09,0"
         style="fill:#e3e1f3;fill-opacity:1;fill-rule:nonzero;stroke:none"
         id="path92" />
      <path
         d="m 3553.57,2567.6 c -24.16,-64.51 -78.95,-116.77 -144.53,-137.85 98.24,-48.58 221.06,-10.15 289.52,75.42 -57.39,-12.1 -107.68,17.17 -144.99,62.43"
         style="fill:#ffffff;fill-opacity:1;fill-rule:nonzero;stroke:none"
         id="path94" />
      <path
         d="m 3852.26,2594.76 c 0,-102.9 -83.42,-186.32 -186.32,-186.32 -102.9,0 -186.32,83.42 -186.32,186.32 0,102.9 83.42,186.32 186.32,186.32 102.9,0 186.32,-83.42 186.32,-186.32"
         style="fill:#ffffff;fill-opacity:1;fill-rule:nonzero;stroke:none"
         id="path96" />
      <path
         d="m 3773.9,2826.66 c 0,-100.76 -81.68,-182.44 -182.43,-182.44 -100.75,0 -182.43,81.68 -182.43,182.44 0,100.75 81.68,182.43 182.43,182.43 100.75,0 182.43,-81.68 182.43,-182.43"
         style="fill:#ffffff;fill-opacity:1;fill-rule:nonzero;stroke:none"
         id="path98" />
      <path
         d="m 3963.01,2839.37 c 0,-82.04 -66.5,-148.54 -148.53,-148.54 -82.04,0 -148.54,66.5 -148.54,148.54 0,82.03 66.5,148.53 148.54,148.53 82.03,0 148.53,-66.5 148.53,-148.53"
         style="fill:#ffffff;fill-opacity:1;fill-rule:nonzero;stroke:none"
         id="path100" />
      <path
         d="m 4115.91,2622.76 c 0,-109.51 -88.78,-198.28 -198.28,-198.28 -109.51,0 -198.28,88.77 -198.28,198.28 0,109.5 88.77,198.27 198.28,198.27 109.5,0 198.28,-88.77 198.28,-198.27"
         style="fill:#ffffff;fill-opacity:1;fill-rule:nonzero;stroke:none"
         id="path102" />
      <path
         d="m 4080.61,2824.53 c 0,-55.38 -44.9,-100.27 -100.28,-100.27 -55.38,0 -100.27,44.89 -100.27,100.27 0,55.38 44.89,100.28 100.27,100.28 55.38,0 100.28,-44.9 100.28,-100.28"
         style="fill:#ffffff;fill-opacity:1;fill-rule:nonzero;stroke:none"
         id="path104" />
      <path
         d="m 3698.02,2901.15 c -19.79,-70.44 -66.62,-133.08 -128.59,-172 -4.09,-2.63 -8.34,-4.66 -11.35,-4.58 l -1.89,0.23 c -2.05,0.58 -2.94,1.35 -3.69,2.47 -0.73,1.13 -1.23,2.89 -1.23,5.22 -0.13,6.51 4.32,16.43 9.7,21.72 24.3,24.64 56,41.98 89.85,49.15 4.4,0.94 8.79,1.64 12.87,1.64 3.3,0 6.38,-0.45 9.19,-1.52 6.27,-2.41 10.35,-7.1 13.19,-13.71 2.79,-6.58 3.98,-14.93 3.97,-23.23 0,-3.62 -0.22,-7.23 -0.6,-10.68 -4.37,-40.15 -27.21,-94.66 -53.64,-138.54 -13.2,-21.96 -27.3,-41.33 -40.22,-55 -6.45,-6.83 -12.62,-12.22 -18.07,-15.79 -5.44,-3.59 -10.13,-5.21 -13.32,-5.17 -1.63,0.01 -2.89,0.34 -4.09,1 l -0.59,0.28 c -2.96,1.22 -4.69,2.78 -5.94,4.85 -1.23,2.08 -1.96,4.91 -1.96,8.64 -0.08,9.68 5.27,24.65 14.66,41.62 28.04,51.14 90.84,121.36 134.59,155.4 34.9,27.23 72.66,51.98 114.91,61.15 3.88,0.85 7.88,1.47 11.53,1.47 4.51,-0.01 8.31,-0.91 11.27,-3.09 2.61,-1.92 4.31,-4.49 5.47,-7.85 1.15,-3.34 1.63,-7.41 1.62,-11.67 0.01,-3.09 -0.24,-6.27 -0.6,-9.34 -5.87,-50.64 -37.7,-124.87 -76.69,-185.72 -19.47,-30.46 -40.74,-57.64 -61.23,-77 -20.45,-19.45 -40.2,-30.63 -55.3,-30.49 -3.94,0.01 -7.6,0.71 -11.08,2.15 l -1.97,-4.74 2.83,4.28 c -2.88,1.92 -4.82,4.18 -6.17,6.97 -1.33,2.79 -2.05,6.2 -2.05,10.29 -0.03,8.01 2.87,18.54 8.49,30.53 19.63,42.16 71.83,101.62 132.61,151.23 60.71,49.74 130.38,89.77 183.63,94.9 3.28,0.33 6.63,0.55 9.91,0.55 4.79,0 9.4,-0.48 13.39,-1.69 4,-1.22 7.32,-3.09 9.97,-5.95 4.88,-5.18 6.54,-13.47 6.51,-22.31 0,-1.15 -0.03,-2.3 -0.07,-3.45 -0.5,-14.3 -9.09,-35.67 -22.78,-58.84 -20.49,-34.84 -52.11,-74.18 -82.98,-104.57 -15.42,-15.2 -30.68,-28.17 -44.13,-37.22 -13.39,-9.1 -25.19,-14.02 -32.34,-13.9 -3.61,0.04 -5.78,0.94 -7.61,2.77 l -3.68,-3.58 4,3.23 -0.56,1.66 c -0.11,1.63 1.46,5.57 5.38,10.25 6.76,8.27 19.65,18.82 35.94,29.59 24.45,16.2 56.65,33.14 88.27,45.94 31.59,12.83 62.79,21.45 84.51,21.41 6.63,0 12.33,-0.8 16.8,-2.34 4.49,-1.55 7.68,-3.75 9.87,-6.64 1.71,-2.26 4.93,-2.71 7.19,-1 2.26,1.71 2.71,4.93 1,7.19 -3.64,4.82 -8.8,8.13 -14.72,10.15 -5.94,2.04 -12.7,2.9 -20.14,2.9 -18.48,-0.02 -41.29,-5.31 -65.46,-13.57 -36.21,-12.42 -75.31,-31.63 -105.61,-50.72 -15.15,-9.55 -28.08,-19.05 -37.44,-27.83 -4.68,-4.39 -8.48,-8.6 -11.24,-12.71 -2.72,-4.11 -4.57,-8.17 -4.61,-12.62 -0.03,-2.84 0.94,-5.82 2.83,-8.11 l 0.31,-0.36 c 3.92,-4.07 9.39,-5.92 14.97,-5.88 7.46,0.04 15.52,2.82 24.34,7.4 30.66,16.07 71.45,55.48 105.54,98.21 17.01,21.36 32.24,43.52 43.46,64.03 11.18,20.55 18.46,39.3 19.14,54.75 0.05,1.27 0.08,2.56 0.08,3.86 -0.02,9.87 -1.59,20.92 -9.23,29.28 -4.1,4.44 -9.22,7.2 -14.54,8.8 -5.34,1.61 -10.91,2.13 -16.36,2.13 -3.73,0 -7.42,-0.25 -10.92,-0.59 -32.71,-3.26 -69.57,-18.15 -106.77,-39.61 -55.76,-32.23 -112.2,-79.4 -154.92,-125.61 -21.36,-23.12 -39.28,-45.98 -51.96,-66.75 -12.65,-20.81 -20.26,-39.37 -20.33,-54.91 -0.01,-5.29 0.93,-10.27 3.06,-14.72 2.11,-4.44 5.43,-8.26 9.76,-11.1 l 0.86,-0.46 c 4.78,-1.99 9.85,-2.93 15.02,-2.93 19.94,0.15 40.96,13.18 62.35,33.29 32.03,30.31 64.77,77.59 90.87,127.26 26.07,49.71 45.46,101.63 50.19,141.73 0.39,3.34 0.68,6.91 0.68,10.53 -0.01,5 -0.53,10.13 -2.18,14.99 -1.64,4.84 -4.53,9.47 -9.11,12.81 -5.31,3.89 -11.51,5.08 -17.34,5.07 -4.78,0 -9.44,-0.77 -13.72,-1.7 -44.77,-9.77 -83.7,-35.56 -119.03,-63.09 -30.13,-23.52 -68.07,-62.58 -98.73,-101.7 -15.32,-19.57 -28.8,-39.13 -38.54,-56.85 -9.71,-17.77 -15.85,-33.51 -15.93,-46.56 0,-5.03 0.98,-9.77 3.38,-13.85 2.38,-4.08 6.21,-7.27 10.94,-9.16 l 1.92,4.76 -2.5,-4.48 c 2.79,-1.57 5.95,-2.31 9.1,-2.3 6.31,0.03 12.53,2.67 18.95,6.85 11.2,7.36 23.23,19.87 35.49,35.72 18.34,23.76 36.97,55.04 51.87,87.36 14.88,32.33 26.03,65.62 29.15,93.71 0.41,3.79 0.66,7.77 0.66,11.8 -0.02,9.24 -1.25,18.8 -4.79,27.22 -3.49,8.38 -9.64,15.79 -19,19.31 -4.25,1.62 -8.61,2.19 -12.83,2.19 -5.23,0 -10.29,-0.86 -15,-1.86 -35.85,-7.61 -69.28,-25.9 -95.02,-51.98 -7.27,-7.51 -12.53,-18.6 -12.66,-28.93 0,-3.71 0.75,-7.46 2.84,-10.74 2.06,-3.3 5.55,-5.82 9.76,-6.88 1.5,-0.39 3.01,-0.56 4.47,-0.56 6.82,0.08 12.32,3.39 16.81,6.15 64.18,40.33 112.49,104.95 133.01,177.92 0.77,2.73 -0.83,5.56 -3.55,6.33 -2.73,0.76 -5.57,-0.83 -6.33,-3.56"
         style="fill:#0d0d0e;fill-opacity:1;fill-rule:nonzero;stroke:none"
         id="path106" />
      <path
         d="m 2028.32,3476.46 c 0,-192.81 -289.89,-349.12 -647.49,-349.12 -357.59,0 -647.482,156.31 -647.482,349.12 0,192.8 289.892,349.11 647.482,349.11 357.6,0 647.49,-156.31 647.49,-349.11"
         style="fill:#ffffff;fill-opacity:1;fill-rule:nonzero;stroke:none"
         id="path108" />
      <path
         d="m 1528.02,3381.7 c -20.96,-107.19 2.49,-222.38 63.7,-312.84 61.2,-90.47 159.4,-155.08 266.7,-175.49 -78.01,34.61 -110.55,135.31 -88.8,217.83 21.75,82.52 85.58,147.78 155.75,196.36"
         style="fill:#ffffff;fill-opacity:1;fill-rule:nonzero;stroke:none"
         id="path110" />
      <path
         d="m 1705.47,3656.6 v 5.75 h -617.26 c -38.33,-0.01 -69.39,-31.07 -69.4,-69.4 v -10.66 h -66.302 c -1.516,0 -2.996,-0.61 -4.067,-1.68 -1.07,-1.07 -1.683,-2.56 -1.683,-4.07 V 3392.4 c 0,-1.51 0.613,-2.99 1.683,-4.06 1.071,-1.07 2.551,-1.69 4.067,-1.69 h 66.302 v -10.66 c 0.01,-38.33 31.07,-69.39 69.4,-69.4 h 617.26 c 38.33,0.01 69.39,31.07 69.39,69.4 v 216.96 c 0,38.33 -31.06,69.39 -69.39,69.4 v -5.75 -5.75 c 16,0 30.44,-6.47 40.94,-16.96 10.49,-10.49 16.96,-24.93 16.96,-40.94 v -216.96 c 0,-16.01 -6.47,-30.44 -16.96,-40.94 -10.5,-10.49 -24.94,-16.96 -40.94,-16.96 h -617.26 c -16.01,0 -30.45,6.47 -40.94,16.96 -10.49,10.5 -16.96,24.93 -16.96,40.94 v 16.41 c 0,1.52 -0.62,3 -1.69,4.07 -1.07,1.07 -2.55,1.68 -4.06,1.68 h -66.306 v 172.64 h 66.306 c 1.51,0 2.99,0.62 4.06,1.69 1.07,1.07 1.69,2.55 1.69,4.06 v 16.41 c 0,16.01 6.47,30.45 16.96,40.94 10.49,10.49 24.93,16.96 40.94,16.96 h 617.26 v 5.75"
         style="fill:#0d0d0e;fill-opacity:1;fill-rule:nonzero;stroke:none"
         id="path112" />
      <path
         d="M 1699.06,3371.69 H 1615 v 225.56 h 84.06 v -225.56"
         style="fill:#b62a22;fill-opacity:1;fill-rule:nonzero;stroke:none"
         id="path114" />
      <path
         d="m 1583.99,3371.69 h -84.06 v 225.56 h 84.06 v -225.56"
         style="fill:#b6b1df;fill-opacity:1;fill-rule:nonzero;stroke:none"
         id="path116" />
      <path
         d="m 1466.9,3371.69 h -84.06 v 225.56 h 84.06 v -225.56"
         style="fill:#b6b1df;fill-opacity:1;fill-rule:nonzero;stroke:none"
         id="path118" />
      <path
         d="m 1347.91,3371.69 h -84.06 v 225.56 h 84.06 v -225.56"
         style="fill:#b6b1df;fill-opacity:1;fill-rule:nonzero;stroke:none"
         id="path120" />
      <path
         d="m 1228.93,3371.69 h -84.07 v 225.56 h 84.07 v -225.56"
         style="fill:#b6b1df;fill-opacity:1;fill-rule:nonzero;stroke:none"
         id="path122" />
      <path
         d="m 875.141,1386.77 c -2.711,5.78 -5.235,11.66 -7.551,17.65 -1.246,3.23 0.359,6.87 3.594,8.12 0.746,0.29 1.507,0.42 2.261,0.42 2.52,0 4.899,-1.53 5.86,-4.01 1.656,-4.29 3.418,-8.52 5.289,-12.7 -3.16,-3.12 -6.317,-6.29 -9.453,-9.48"
         style="fill:#ffffff;fill-opacity:1;fill-rule:nonzero;stroke:none"
         id="path124" />
      <path
         d="m 1841.46,1779.16 c 0.17,1.14 0.34,2.29 0.5,3.43 v 0 c 0.44,3.13 3.13,5.39 6.21,5.39 0.29,0 0.59,-0.02 0.89,-0.06 2.35,-0.34 4.21,-1.94 5,-4.02 -4.22,-1.54 -8.41,-3.12 -12.6,-4.74"
         style="fill:#b6b8b6;fill-opacity:1;fill-rule:nonzero;stroke:none"
         id="path126" />
      <path
         d="m 1841.38,1778.6 c 0.03,0.19 0.06,0.37 0.08,0.56 4.19,1.62 8.38,3.2 12.6,4.74 0.25,-0.67 0.39,-1.39 0.39,-2.13 -4.34,-1.06 -8.68,-2.11 -13.07,-3.17"
         style="fill:#faede5;fill-opacity:1;fill-rule:nonzero;stroke:none"
         id="path128" />
      <path
         d="m 1226.6,1191.95 c -52.53,0 -104.88,7.45 -154.61,24.88 -83.791,29.41 -159.037,89.4 -196.849,169.94 3.136,3.19 6.293,6.36 9.453,9.48 35.367,-78.94 109.039,-138.65 191.556,-167.57 48.17,-16.89 99.1,-24.18 150.45,-24.18 41.32,0 82.9,4.72 123.47,12.93 150.14,30.41 261.94,95.86 341.95,191.45 79.3,94.78 127.41,219.51 149.36,369.72 4.39,1.06 8.73,2.11 13.07,3.17 0.01,-0.31 -0.01,-0.63 -0.06,-0.96 -21.9,-153.55 -70.82,-282.06 -152.73,-379.98 -81.9,-97.94 -196.73,-164.92 -349.1,-195.71 -41.28,-8.35 -83.68,-13.17 -125.96,-13.17"
         style="fill:#faede5;fill-opacity:1;fill-rule:nonzero;stroke:none"
         id="path130" />
      <path
         d="m 1380.83,759.262 c -1.16,0 -2.32,0.32 -3.37,0.988 -0.03,0.02 -0.06,0.039 -0.1,0.059 h 6.95 c -1.04,-0.688 -2.25,-1.047 -3.48,-1.047"
         style="fill:#ffffff;fill-opacity:1;fill-rule:nonzero;stroke:none"
         id="path132" />
      <path
         d="m 3288.79,812.84 h -12.63 c -10.56,69.789 -39.11,127.601 -79.05,175.742 -40.11,48.348 -91.77,86.878 -148.1,117.408 -43.27,23.46 -89.28,42.17 -134.82,56.99 l -6.36,15.21 c 19.48,-6.11 39.11,-12.91 58.64,-20.49 90.06,-34.96 178.16,-86.25 240.3,-161.098 41.42,-49.883 71.18,-110.301 81.95,-182.84 0.05,-0.313 0.07,-0.621 0.07,-0.922 M 2035.74,979.898 c 1.73,9.493 3.54,19.051 5.4,28.712 22.7,32.09 43.51,65.87 61.13,98.26 -15.61,-7.91 -31.04,-16.23 -46.29,-24.99 1.14,5.44 2.29,10.92 3.45,16.39 17.41,9.75 35.04,18.94 52.89,27.6 14.48,28.18 26.22,54.77 34.29,77.6 8.74,24.66 13.98,53.14 13.97,80.46 0.01,24.89 -4.36,48.78 -14.01,68.03 -7,13.9 -16.57,25.38 -29.42,33.54 0.73,4.45 1.45,8.9 2.15,13.34 17.25,-9.59 29.96,-24.13 38.5,-41.26 10.8,-21.61 15.33,-47.32 15.34,-73.65 -0.01,-28.92 -5.49,-58.63 -14.69,-84.65 -6.91,-19.5 -16.32,-41.46 -27.71,-64.7 118.2,54.42 245.12,85.4 375.01,93.08 l -6.05,-12.96 c -131.33,-8.61 -259.37,-41.32 -378.15,-98.32 -14.98,-28.83 -32.69,-59.1 -52.2,-88.72 -10.71,-16.24 -21.96,-32.281 -33.61,-47.762"
         style="fill:#faede5;fill-opacity:1;fill-rule:nonzero;stroke:none"
         id="path134" />
      <path
         d="m 1384.31,760.309 h -6.95 c -0.45,0.3 -0.86,0.652 -1.2,1.043 3.08,0 6.26,0 9.35,0 -0.36,-0.403 -0.76,-0.75 -1.2,-1.043 m 9.36,13.601 c -4.97,0 -9.99,0 -14.94,0 150.76,235.01 350.71,438.27 583.23,592.83 32.73,21.67 71.28,43.73 111.08,43.84 10.63,0 21.34,-1.62 31.88,-5.32 5.1,-1.78 9.89,-3.93 14.38,-6.42 -0.7,-4.44 -1.42,-8.89 -2.15,-13.34 -4.96,3.15 -10.41,5.81 -16.38,7.91 -9.13,3.2 -18.36,4.61 -27.73,4.61 -0.1,0 -0.19,0 -0.29,0 -34.86,0 -71.82,-20.37 -103.83,-41.73 -228.83,-152.1 -425.96,-351.72 -575.25,-582.38 m 446.59,58.731 c -2.66,0 -5.3,0.121 -7.93,0.359 -2.7,0.25 -4.93,2.199 -5.54,4.84 -0.81,3.512 -1.18,7.152 -1.18,10.871 0.05,15.621 6.31,32.828 15.9,50.758 9.62,17.91 22.72,36.5 37.11,54.25 28.81,35.523 62.54,67.541 84.14,83.071 31.31,22.47 63.57,42.96 96.67,61.48 -1.16,-5.47 -2.31,-10.95 -3.45,-16.39 -29.35,-16.85 -58.01,-35.27 -85.9,-55.29 -30.32,-21.64 -90.34,-82.219 -117.51,-133.059 -9.11,-16.902 -14.45,-32.699 -14.4,-44.82 0,-1.199 0.05,-2.359 0.15,-3.492 0.64,-0.008 1.29,-0.02 1.94,-0.02 0.06,0 0.12,0 0.19,0 26.22,0 56.1,13.91 86.55,37.531 30.51,23.629 61.51,56.731 90.39,93.852 8.1,10.398 16.04,21.117 23.75,32.028 -1.86,-9.661 -3.67,-19.219 -5.4,-28.712 -31.67,-42.109 -66.28,-80.136 -101.06,-107.089 -31.72,-24.52 -63.7,-40.098 -94.42,-40.168"
         style="fill:#faede5;fill-opacity:1;fill-rule:nonzero;stroke:none"
         id="path136" />
      <path
         d="m 2914.19,1162.98 c -73.03,23.77 -144.85,37.55 -202.25,44.92 -47.28,6.07 -94.56,9.11 -141.57,9.11 -23.63,0 -47.21,-0.77 -70.67,-2.31 l 6.05,12.96 c 21.46,1.27 43.02,1.91 64.62,1.91 v 0 c 47.55,0 95.36,-3.08 143.17,-9.22 55.36,-7.12 123.89,-20.08 194.29,-42.16 l 6.36,-15.21"
         style="fill:#b6b8b6;fill-opacity:1;fill-rule:nonzero;stroke:none"
         id="path138" />
      <path
         d="m 1385.51,761.352 c -3.09,0 -6.27,0 -9.35,0 -1.84,2.046 -2.17,5.136 -0.62,7.57 1.06,1.66 2.13,3.328 3.19,4.988 4.95,0 9.97,0 14.94,0 -2.53,-3.91 -5.04,-7.82 -7.54,-11.738 -0.19,-0.293 -0.39,-0.57 -0.62,-0.82"
         style="fill:#b6b8b6;fill-opacity:1;fill-rule:nonzero;stroke:none"
         id="path140" />
      <path
         d="m 3282.5,806.559 c -3.06,0 -5.74,2.242 -6.2,5.363 -0.05,0.308 -0.09,0.609 -0.14,0.918 h 12.63 c 0,-3.059 -2.24,-5.75 -5.36,-6.211 -0.31,-0.047 -0.62,-0.07 -0.93,-0.07"
         style="fill:#e3d9ef;fill-opacity:1;fill-rule:nonzero;stroke:none"
         id="path142" />
      <path
         d="m 554.121,942.422 v 0 c -111.941,0 -203.527,91.588 -203.527,203.528 v 396.34 c 0,111.94 91.586,203.53 203.527,203.53 111.942,0 203.527,-91.59 203.527,-203.53 v -396.34 c 0,-111.94 -91.585,-203.528 -203.527,-203.528"
         style="fill:#737c27;fill-opacity:1;fill-rule:nonzero;stroke:none"
         id="path144" />
      <path
         d="M 742.438,632.23 H 371.855 L 209.406,1242.36 H 915.039 L 742.438,632.23"
         style="fill:#0d0d0e;fill-opacity:1;fill-rule:nonzero;stroke:none"
         id="path146" />
      <path
         d="m 229.715,1173.31 h 675.168 c 2.555,0 4.629,2.07 4.629,4.62 0,2.56 -2.074,4.63 -4.629,4.63 H 229.715 c -2.559,0 -4.629,-2.07 -4.629,-4.63 0,-2.55 2.07,-4.62 4.629,-4.62"
         style="fill:#df9879;fill-opacity:1;fill-rule:nonzero;stroke:none"
         id="path148" />
      <path
         d="m 339.664,1721.15 85.699,-99.98 c 1.789,-2.09 4.938,-2.33 7.032,-0.54 2.089,1.79 2.332,4.94 0.539,7.03 l -85.696,99.98 c -1.793,2.09 -4.941,2.34 -7.031,0.54 -2.09,-1.79 -2.332,-4.94 -0.543,-7.03"
         style="fill:#0d0d0e;fill-opacity:1;fill-rule:nonzero;stroke:none"
         id="path150" />
      <path
         d="M 549.137,1802.95 V 1663.7 c 0,-2.76 2.23,-4.99 4.984,-4.99 2.754,0 4.984,2.23 4.984,4.98 v 139.26 c 0,2.75 -2.23,4.99 -4.984,4.99 -2.754,0 -4.984,-2.24 -4.984,-4.99"
         style="fill:#0d0d0e;fill-opacity:1;fill-rule:nonzero;stroke:none"
         id="path152" />
      <path
         d="m 794.082,1710.64 -128.543,-89.27 c -2.262,-1.57 -2.824,-4.68 -1.254,-6.94 1.57,-2.26 4.68,-2.82 6.942,-1.25 l 128.543,89.27 c 2.261,1.57 2.82,4.67 1.25,6.94 -1.571,2.26 -4.676,2.82 -6.938,1.25"
         style="fill:#0d0d0e;fill-opacity:1;fill-rule:nonzero;stroke:none"
         id="path154" />
      <path
         d="M 821.922,1433.02 H 693.375 c -2.75,0 -4.984,-2.23 -4.984,-4.99 0,-2.75 2.234,-4.98 4.984,-4.98 h 128.547 c 2.754,0 4.984,2.23 4.984,4.98 0,2.76 -2.23,4.99 -4.984,4.99"
         style="fill:#0d0d0e;fill-opacity:1;fill-rule:nonzero;stroke:none"
         id="path156" />
      <path
         d="m 322.027,1423.05 h 117.832 c 2.754,0 4.989,2.23 4.989,4.98 0,2.76 -2.235,4.99 -4.989,4.99 H 322.027 c -2.754,0 -4.988,-2.23 -4.988,-4.99 0,-2.75 2.234,-4.98 4.988,-4.98"
         style="fill:#0d0d0e;fill-opacity:1;fill-rule:nonzero;stroke:none"
         id="path158" />
      <path
         d="m 555.535,1220.93 v 321.36 c 0,2.76 -2.23,4.99 -4.984,4.99 -2.754,0 -4.988,-2.23 -4.988,-4.99 v -321.36 c 0,-2.75 2.234,-4.98 4.988,-4.98 2.754,0 4.984,2.23 4.984,4.98"
         style="fill:#0d0d0e;fill-opacity:1;fill-rule:nonzero;stroke:none"
         id="path160" />
      <path
         d="m 1142.29,2358.6 c 4.71,-171.05 7.75,-358.87 -98.98,-480.95 -106.724,-122.09 -236.915,-221.68 -373.279,-309.43 2.809,0 -22.957,-13.1 -20.148,-13.1 h 984.377 c 215.74,213.05 319.29,494.41 301.31,797.09 -0.59,9.76 -6.13,23.06 -15.4,19.94 l -777.88,-13.55"
         style="fill:#e8841e;fill-opacity:1;fill-rule:nonzero;stroke:none"
         id="path162" />
      <path
         d="m 1208.29,2092.59 h 633.96 c 2.94,0 5.31,2.38 5.31,5.31 0,2.93 -2.37,5.31 -5.31,5.31 h -633.96 c -2.94,0 -5.31,-2.38 -5.31,-5.31 0,-2.93 2.37,-5.31 5.31,-5.31"
         style="fill:#0d0d0e;fill-opacity:1;fill-rule:nonzero;stroke:none"
         id="path164" />
      <path
         d="m 1197.46,2017.51 h 633.97 c 2.93,0 5.31,2.38 5.31,5.31 0,2.93 -2.38,5.31 -5.31,5.31 h -633.97 c -2.93,0 -5.31,-2.38 -5.31,-5.31 0,-2.93 2.38,-5.31 5.31,-5.31"
         style="fill:#0d0d0e;fill-opacity:1;fill-rule:nonzero;stroke:none"
         id="path166" />
      <path
         d="m 1197.46,1938.59 h 633.97 c 2.93,0 5.31,2.38 5.31,5.31 0,2.94 -2.38,5.31 -5.31,5.31 h -633.97 c -2.93,0 -5.31,-2.37 -5.31,-5.31 0,-2.93 2.38,-5.31 5.31,-5.31"
         style="fill:#0d0d0e;fill-opacity:1;fill-rule:nonzero;stroke:none"
         id="path168" />
      <path
         d="m 1043.83,1784.6 h 633.97 c 2.93,0 5.3,2.38 5.3,5.31 0,2.93 -2.37,5.31 -5.3,5.31 h -633.97 c -2.94,0 -5.31,-2.38 -5.31,-5.31 0,-2.93 2.37,-5.31 5.31,-5.31"
         style="fill:#0d0d0e;fill-opacity:1;fill-rule:nonzero;stroke:none"
         id="path170" />
      <path
         d="M 976.633,1693.17 H 1610.6 c 2.93,0 5.31,2.38 5.31,5.31 0,2.94 -2.38,5.31 -5.31,5.31 H 976.633 c -2.934,0 -5.309,-2.37 -5.309,-5.31 0,-2.93 2.375,-5.31 5.309,-5.31"
         style="fill:#0d0d0e;fill-opacity:1;fill-rule:nonzero;stroke:none"
         id="path172" />
      <path
         d="m 888.906,1620.03 h 353.274 c 2.93,0 5.31,2.38 5.31,5.31 0,2.93 -2.38,5.31 -5.31,5.31 H 888.906 c -2.933,0 -5.308,-2.38 -5.308,-5.31 0,-2.93 2.375,-5.31 5.308,-5.31"
         style="fill:#0d0d0e;fill-opacity:1;fill-rule:nonzero;stroke:none"
         id="path174" />
      <path
         d="m 1380.83,2230.06 c 0,-54.53 -31.03,-98.74 -69.32,-98.74 -38.29,0 -69.33,44.21 -69.33,98.74 0,54.53 31.04,98.74 69.33,98.74 38.29,0 69.32,-44.21 69.32,-98.74"
         style="fill:#0d0d0e;fill-opacity:1;fill-rule:nonzero;stroke:none"
         id="path176" />
      <path
         d="m 1351.85,2227.36 h -5.28 c 0.01,-16.87 -4.34,-32.07 -11.01,-42.69 -3.33,-5.31 -7.22,-9.46 -11.3,-12.21 -4.11,-2.75 -8.34,-4.15 -12.75,-4.15 -4.42,0 -8.65,1.4 -12.75,4.15 -6.13,4.11 -11.8,11.43 -15.84,20.99 -4.05,9.55 -6.47,21.26 -6.47,33.91 -0.01,16.87 4.33,32.08 11.01,42.69 3.33,5.31 7.21,9.46 11.3,12.22 4.1,2.75 8.33,4.14 12.75,4.15 4.41,-0.01 8.64,-1.4 12.75,-4.15 6.13,-4.12 11.8,-11.44 15.83,-21 4.05,-9.54 6.48,-21.25 6.48,-33.91 h 5.28 5.29 c -0.02,18.67 -4.7,35.64 -12.63,48.31 -3.97,6.33 -8.78,11.6 -14.34,15.36 -5.56,3.76 -11.94,5.97 -18.66,5.96 -6.73,0.01 -13.11,-2.2 -18.66,-5.96 -8.35,-5.65 -15,-14.65 -19.66,-25.63 -4.66,-10.99 -7.31,-24.04 -7.31,-38.04 0.01,-18.66 4.7,-35.63 12.62,-48.3 3.97,-6.33 8.78,-11.6 14.35,-15.36 5.55,-3.76 11.93,-5.97 18.66,-5.96 6.72,-0.01 13.1,2.2 18.66,5.96 8.35,5.65 14.99,14.65 19.66,25.63 4.65,10.99 7.3,24.03 7.31,38.03 h -5.29"
         style="fill:#e8841e;fill-opacity:1;fill-rule:nonzero;stroke:none"
         id="path178" />
      <path
         d="m 1387.42,2302.01 h 243.57 c 2.93,0 5.31,2.38 5.31,5.31 0,2.93 -2.38,5.31 -5.31,5.31 h -243.57 c -2.93,0 -5.31,-2.38 -5.31,-5.31 0,-2.93 2.38,-5.31 5.31,-5.31"
         style="fill:#0d0d0e;fill-opacity:1;fill-rule:nonzero;stroke:none"
         id="path180" />
      <path
         d="m 1403.49,2246.58 h 243.56 c 2.93,0 5.31,2.38 5.31,5.31 0,2.93 -2.38,5.31 -5.31,5.31 h -243.56 c -2.93,0 -5.31,-2.38 -5.31,-5.31 0,-2.93 2.38,-5.31 5.31,-5.31"
         style="fill:#0d0d0e;fill-opacity:1;fill-rule:nonzero;stroke:none"
         id="path182" />
      <path
         d="m 4133.77,2417.22 c -55.34,-143.9 -117.89,-301.18 -248.96,-365.74 -131.07,-64.57 -273.86,-102.29 -417.68,-128.03 2.33,-0.97 -23.64,-2.95 -21.3,-3.92 l 818.76,-341.06 c 253.25,102.46 436.87,300.6 526.78,558.58 2.9,8.33 2.89,21.31 -5.9,21.92 l -651.7,258.25"
         style="fill:#e8841e;fill-opacity:1;fill-rule:nonzero;stroke:none"
         id="path184" />
      <path
         d="m 4096.5,2173.1 527.3,-219.66 c 2.44,-1.01 5.24,0.14 6.26,2.58 1.01,2.44 -0.14,5.24 -2.58,6.25 l -527.3,219.66 c -2.44,1.02 -5.24,-0.14 -6.26,-2.58 -1.01,-2.44 0.14,-5.24 2.58,-6.25"
         style="fill:#0d0d0e;fill-opacity:1;fill-rule:nonzero;stroke:none"
         id="path186" />
      <path
         d="m 4061.48,2114.4 527.3,-219.65 c 2.44,-1.02 5.24,0.13 6.26,2.57 1.02,2.44 -0.14,5.24 -2.58,6.26 l -527.3,219.65 c -2.44,1.02 -5.24,-0.13 -6.25,-2.57 -1.02,-2.44 0.13,-5.24 2.57,-6.26"
         style="fill:#0d0d0e;fill-opacity:1;fill-rule:nonzero;stroke:none"
         id="path188" />
      <path
         d="m 4034.14,2048.76 527.3,-219.65 c 2.44,-1.02 5.24,0.14 6.26,2.58 1.01,2.43 -0.14,5.24 -2.58,6.25 l -527.3,219.66 c -2.44,1.01 -5.24,-0.14 -6.26,-2.58 -1.01,-2.44 0.14,-5.24 2.58,-6.26"
         style="fill:#0d0d0e;fill-opacity:1;fill-rule:nonzero;stroke:none"
         id="path190" />
      <path
         d="m 3853,1973.91 527.3,-219.66 c 2.44,-1.01 5.24,0.14 6.26,2.58 1.01,2.44 -0.14,5.24 -2.58,6.26 l -527.3,219.65 c -2.44,1.02 -5.24,-0.14 -6.26,-2.57 -1.01,-2.44 0.14,-5.24 2.58,-6.26"
         style="fill:#0d0d0e;fill-opacity:1;fill-rule:nonzero;stroke:none"
         id="path192" />
      <path
         d="m 3765.43,1921.15 527.31,-219.66 c 2.44,-1.01 5.24,0.14 6.25,2.58 1.02,2.44 -0.14,5.24 -2.57,6.25 l -527.31,219.66 c -2.44,1.02 -5.24,-0.14 -6.25,-2.58 -1.02,-2.44 0.13,-5.24 2.57,-6.25"
         style="fill:#0d0d0e;fill-opacity:1;fill-rule:nonzero;stroke:none"
         id="path194" />
      <path
         d="m 3667.12,1890.7 293.84,-122.4 c 2.44,-1.01 5.24,0.14 6.26,2.58 1.01,2.44 -0.14,5.24 -2.58,6.26 l -293.84,122.4 c -2.44,1.01 -5.24,-0.14 -6.25,-2.58 -1.02,-2.44 0.13,-5.24 2.57,-6.26"
         style="fill:#0d0d0e;fill-opacity:1;fill-rule:nonzero;stroke:none"
         id="path196" />
      <path
         d="m 4287.65,2227.66 c -18.9,-45.36 -60.03,-71.37 -91.88,-58.11 -31.84,13.27 -42.34,60.79 -23.45,106.15 18.9,45.35 60.03,71.36 91.87,58.1 31.85,-13.27 42.35,-60.79 23.46,-106.14"
         style="fill:#0d0d0e;fill-opacity:1;fill-rule:nonzero;stroke:none"
         id="path198" />
      <path
         d="m 4262.61,2235.45 -4.4,1.84 c -4.91,-11.81 -11.97,-21.58 -19.6,-28.25 -7.63,-6.71 -15.75,-10.2 -22.63,-10.17 -2.6,0 -5.06,0.47 -7.39,1.44 -4.61,1.93 -8.28,5.61 -10.94,10.98 -2.64,5.35 -4.13,12.34 -4.13,20.22 0,9.25 2.04,19.69 6.37,30.07 4.91,11.81 11.97,21.57 19.6,28.25 7.63,6.7 15.74,10.19 22.63,10.16 2.6,0 5.05,-0.47 7.39,-1.44 4.61,-1.93 8.28,-5.61 10.94,-10.98 2.64,-5.35 4.13,-12.34 4.13,-20.21 0,-9.25 -2.04,-19.69 -6.37,-30.07 l 4.4,-1.84 4.39,-1.83 c 4.78,11.49 7.1,23.1 7.1,33.74 0,9.05 -1.67,17.43 -5.11,24.42 -3.42,6.98 -8.75,12.63 -15.82,15.56 -3.54,1.48 -7.29,2.18 -11.05,2.18 -10.04,-0.03 -20.05,-4.78 -28.91,-12.53 -8.87,-7.78 -16.67,-18.69 -22.11,-31.75 -4.79,-11.49 -7.1,-23.09 -7.1,-33.73 0,-9.06 1.67,-17.43 5.11,-24.43 3.41,-6.97 8.75,-12.63 15.81,-15.56 3.54,-1.48 7.29,-2.18 11.06,-2.18 10.04,0.03 20.05,4.78 28.91,12.53 8.87,7.78 16.67,18.69 22.11,31.75 l -4.39,1.83"
         style="fill:#e8841e;fill-opacity:1;fill-rule:nonzero;stroke:none"
         id="path200" />
      <path
         d="m 4318.06,2285.22 202.58,-84.39 c 2.44,-1.02 5.24,0.13 6.26,2.57 1.01,2.44 -0.14,5.24 -2.58,6.26 l -202.58,84.39 c -2.44,1.01 -5.24,-0.14 -6.26,-2.58 -1.02,-2.44 0.14,-5.24 2.58,-6.25"
         style="fill:#0d0d0e;fill-opacity:1;fill-rule:nonzero;stroke:none"
         id="path202" />
      <path
         d="m 4312.21,2233.55 202.59,-84.39 c 2.44,-1.02 5.24,0.14 6.25,2.58 1.02,2.44 -0.13,5.24 -2.57,6.25 l -202.59,84.39 c -2.44,1.02 -5.24,-0.14 -6.25,-2.58 -1.02,-2.43 0.14,-5.23 2.57,-6.25"
         style="fill:#0d0d0e;fill-opacity:1;fill-rule:nonzero;stroke:none"
         id="path204" />
      <path
         d="m 298.727,2873.17 c -17.914,-164.96 86.074,-335.59 240.894,-395.29 59.039,-22.76 127.109,-29.96 184.852,-4.08 67.215,30.12 110.824,105.99 103.019,179.23 h 830.048 c -28.1,-70.36 -83.88,-138.6 -150,-175.58 H 738.355"
         style="fill:#e8841e;fill-opacity:1;fill-rule:nonzero;stroke:none"
         id="path206" />
      <path
         d="m 295.531,2873.18 h 847.439 c -14.54,-39.29 -25.98,-89.5 -20.83,-131.09 5.14,-41.58 22.98,-82.11 52.99,-111.35 20.04,-19.52 44.71,-33.49 69.07,-47.24 20.9,-11.8 41.89,-23.63 64.32,-32.15 4.3,-1.63 11.67,-0.55 10.29,3.85 l -69.53,-69.53 c -4.61,8.43 -14.48,12.02 -24.05,11.12 -9.57,-0.9 -18.36,-5.44 -26.88,-9.89 H 577.762 c -70.235,44.18 -127.41,109.18 -171.278,179.61 -43.863,70.43 -78.73,130.21 -110.953,206.67"
         style="fill:#e8841e;fill-opacity:1;fill-rule:nonzero;stroke:none"
         id="path208" />
      <path
         d="m 517.535,2873.18 c -2.242,-34.6 4.981,-69.11 22.891,-99.36 21.027,-35.53 53.66,-62.7 88.746,-83.65 39.226,-23.43 82.332,-39.93 126.164,-52.44 13.695,-3.91 27.516,-7.39 41.41,-10.55 0.059,1.58 0.164,3.18 0.188,4.76 -0.954,5.52 -1.954,11.04 -3.7,16.38 -0.367,1.11 -0.156,2.27 0.368,3.28 -1.067,2.74 0.289,6.52 4.113,6.52 h 354.875 c -16.53,24.95 -26.77,54.18 -30.45,83.97 -5.15,41.58 6.29,91.8 20.83,131.09 H 517.535"
         style="fill:#0d0d0e;fill-opacity:1;fill-rule:nonzero;stroke:none"
         id="path210" />
      <path
         d="m 780.684,2667.34 c 5.586,-16.09 8.246,-33 8.246,-49.99 0.054,-60.78 -34.25,-122.35 -88.477,-150.07 -2.894,-1.49 -4.035,-5.04 -2.551,-7.93 1.485,-2.9 5.036,-4.04 7.93,-2.56 58.664,30.19 94.824,95.48 94.883,160.56 0,18.22 -2.856,36.44 -8.902,53.86 -1.067,3.07 -4.422,4.7 -7.497,3.63 -3.074,-1.06 -4.699,-4.42 -3.632,-7.5"
         style="fill:#0d0d0e;fill-opacity:1;fill-rule:nonzero;stroke:none"
         id="path212" />
      <path
         d="M 583.238,2759.03 H 421.387 c -3.254,0 -5.891,-2.63 -5.891,-5.89 0,-3.25 2.637,-5.89 5.891,-5.89 h 161.851 c 3.254,0 5.895,2.64 5.895,5.89 0,3.26 -2.641,5.89 -5.895,5.89"
         style="fill:#0d0d0e;fill-opacity:1;fill-rule:nonzero;stroke:none"
         id="path214" />
      <path
         d="m 457.621,2698.03 h 197.547 c 3.254,0 5.891,2.64 5.891,5.89 0,3.25 -2.637,5.89 -5.891,5.89 H 457.621 c -3.254,0 -5.894,-2.64 -5.894,-5.89 0,-3.25 2.64,-5.89 5.894,-5.89"
         style="fill:#0d0d0e;fill-opacity:1;fill-rule:nonzero;stroke:none"
         id="path216" />
      <path
         d="m 542.711,2649.33 h 193.102 c 3.253,0 5.89,2.64 5.89,5.89 0,3.25 -2.637,5.89 -5.89,5.89 H 542.711 c -3.258,0 -5.895,-2.64 -5.895,-5.89 0,-3.25 2.637,-5.89 5.895,-5.89"
         style="fill:#0d0d0e;fill-opacity:1;fill-rule:nonzero;stroke:none"
         id="path218" />
      <path
         d="m 592.625,2601.38 h 197.547 c 3.254,0 5.891,2.64 5.891,5.89 0,3.25 -2.637,5.89 -5.891,5.89 H 592.625 c -3.254,0 -5.891,-2.64 -5.891,-5.89 0,-3.25 2.637,-5.89 5.891,-5.89"
         style="fill:#0d0d0e;fill-opacity:1;fill-rule:nonzero;stroke:none"
         id="path220" />
      <path
         d="M 1029.19,2778.05 H 617.242 c -3.797,0 -6.871,-3.08 -6.871,-6.87 0,-3.8 3.074,-6.87 6.871,-6.87 h 411.948 c 3.79,0 6.87,3.07 6.87,6.87 0,3.79 -3.08,6.87 -6.87,6.87"
         style="fill:#0d0d0e;fill-opacity:1;fill-rule:nonzero;stroke:none"
         id="path222" />
      <path
         d="m 574.086,2743.85 h 379.25 c 5.133,0 9.289,4.16 9.289,9.29 0,5.13 -4.156,9.29 -9.289,9.29 h -379.25 c -5.133,0 -9.289,-4.16 -9.289,-9.29 0,-5.13 4.156,-9.29 9.289,-9.29"
         style="fill:#e8841e;fill-opacity:1;fill-rule:nonzero;stroke:none"
         id="path224" />
      <path
         d="m 655.168,2694.63 h 379.252 c 5.13,0 9.29,4.16 9.29,9.29 0,5.13 -4.16,9.29 -9.29,9.29 H 655.168 c -5.133,0 -9.289,-4.16 -9.289,-9.29 0,-5.13 4.156,-9.29 9.289,-9.29"
         style="fill:#e8841e;fill-opacity:1;fill-rule:nonzero;stroke:none"
         id="path226" />
      <path
         d="m 4120.14,3195.15 50.07,-310.89 140.36,178.89 35.02,-577.48 162.38,896.03 -142.23,-186.55 -25.02,394.25 -220.58,-394.25"
         style="fill:#e8841e;fill-opacity:1;fill-rule:nonzero;stroke:none"
         id="path228" />
      <path
         d="m 2164.52,4571.68 600.1,-862.47 38.23,249.63 332.07,-518.55 67.2,268.92 206.92,-349.07 c 0,0 -139.62,324.67 36.64,501.76 l -221.92,252.51 -97.4,-174.43 -460.03,556.27 -13.71,-353.56 -488.1,428.99"
         style="fill:#e8841e;fill-opacity:1;fill-rule:nonzero;stroke:none"
         id="path230" />
      <path
         d="m 3547,3849.8 -57.9,-74.8 -278.79,215.8 57.89,74.8 278.8,-215.8"
         style="fill:#a096d3;fill-opacity:1;fill-rule:nonzero;stroke:none"
         id="path232" />
      <path
         d="m 3183.14,3750.82 c 94.27,133.66 187.51,268.04 279.56,403.22 -49.2,42.21 -114.82,65.12 -184.44,58.35 -135.59,-13.19 -234.82,-133.8 -221.63,-269.39 8.18,-84.12 57.72,-154.21 126.51,-192.18"
         style="fill:#a096d3;fill-opacity:1;fill-rule:nonzero;stroke:none"
         id="path234" />
      <path
         d="m 4054.76,3885.44 -77.58,54.11 201.71,289.16 77.58,-54.12 -201.71,-289.15"
         style="fill:#a096d3;fill-opacity:1;fill-rule:nonzero;stroke:none"
         id="path236" />
      <path
         d="m 3937.86,4243.94 c 138.17,-87.52 277,-173.99 416.59,-259.22 39.71,51.23 59.34,117.91 49.13,187.11 -19.9,134.77 -145.28,227.9 -280.05,208 -83.61,-12.34 -151.16,-65.3 -185.67,-135.89"
         style="fill:#a096d3;fill-opacity:1;fill-rule:nonzero;stroke:none"
         id="path238" />
      <path
         d="m 4357.12,3589.4 c 0,-292.5 -237.12,-529.62 -529.63,-529.62 -292.5,0 -529.62,237.12 -529.62,529.62 0,292.5 237.12,529.62 529.62,529.62 292.51,0 529.63,-237.12 529.63,-529.62"
         style="fill:#a096d3;fill-opacity:1;fill-rule:nonzero;stroke:none"
         id="path240" />
      <path
         d="m 4251.7,3589.4 c 0,-234.28 -189.92,-424.21 -424.21,-424.21 -234.28,0 -424.2,189.93 -424.2,424.21 0,234.28 189.92,424.21 424.2,424.21 234.29,0 424.21,-189.93 424.21,-424.21"
         style="fill:#ffffff;fill-opacity:1;fill-rule:nonzero;stroke:none"
         id="path242" />
      <path
         d="m 3763.74,3860.58 91.4,-299.32 -308.56,11.07 c -2.49,0.09 -4.58,-1.85 -4.67,-4.34 -0.09,-2.49 1.85,-4.58 4.34,-4.67 l 314.89,-11.3 c 1.47,-0.05 2.85,0.6 3.74,1.76 0.89,1.16 1.17,2.67 0.74,4.07 l -93.25,305.36 c -0.73,2.39 -3.25,3.73 -5.63,3 -2.39,-0.73 -3.73,-3.25 -3,-5.63"
         style="fill:#a096d3;fill-opacity:1;fill-rule:nonzero;stroke:none"
         id="path244" />
      <path
         d="m 3708.37,4094.85 -54.82,141.88 c -0.9,2.32 -3.51,3.48 -5.83,2.58 -2.33,-0.9 -3.48,-3.51 -2.59,-5.83 l 54.82,-141.88 c 0.9,-2.33 3.51,-3.48 5.83,-2.58 2.33,0.89 3.49,3.51 2.59,5.83"
         style="fill:#a096d3;fill-opacity:1;fill-rule:nonzero;stroke:none"
         id="path246" />
      <path
         d="m 3541.4,4192.22 216.04,87.07 c 2.31,0.92 3.43,3.55 2.5,5.87 -0.94,2.3 -3.56,3.43 -5.88,2.49 l -216.04,-87.06 c -2.31,-0.93 -3.43,-3.56 -2.49,-5.87 0.93,-2.31 3.56,-3.43 5.87,-2.5"
         style="fill:#a096d3;fill-opacity:1;fill-rule:nonzero;stroke:none"
         id="path248" />
      <path
         d="m 2572.38,3660.24 h -5.75 c 0,-11.95 -4.83,-22.72 -12.66,-30.56 -7.84,-7.83 -18.61,-12.65 -30.56,-12.66 -11.95,0.01 -22.72,4.83 -30.56,12.66 -7.83,7.84 -12.66,18.61 -12.66,30.56 0,11.96 4.83,22.73 12.66,30.57 7.84,7.83 18.61,12.65 30.56,12.65 11.95,0 22.72,-4.82 30.56,-12.65 7.83,-7.84 12.66,-18.61 12.66,-30.57 h 5.75 5.75 c -0.01,30.23 -24.5,54.72 -54.72,54.72 -30.22,0 -54.71,-24.49 -54.72,-54.72 0.01,-30.22 24.5,-54.71 54.72,-54.71 30.22,0 54.71,24.49 54.72,54.71 h -5.75"
         style="fill:#0d0d0e;fill-opacity:1;fill-rule:nonzero;stroke:none"
         id="path250" />
      <path
         d="m 2364.22,3935.16 h -5.75 c -0.03,-13.8 -11.2,-24.97 -25,-24.99 -13.81,0.02 -24.98,11.19 -25,24.99 0.02,13.81 11.19,24.98 25,25 13.8,-0.02 24.97,-11.19 25,-25 h 5.75 5.74 c 0,20.16 -16.33,36.5 -36.49,36.5 -20.16,0 -36.49,-16.34 -36.5,-36.5 0.01,-20.15 16.34,-36.49 36.5,-36.49 20.16,0 36.49,16.34 36.49,36.49 h -5.74"
         style="fill:#0d0d0e;fill-opacity:1;fill-rule:nonzero;stroke:none"
         id="path252" />
      <path
         d="m 4733.69,2996.34 h -5.75 c -0.01,-18.19 -7.36,-34.6 -19.27,-46.52 -11.92,-11.91 -28.33,-19.26 -46.52,-19.27 -18.18,0.01 -34.59,7.36 -46.51,19.27 -11.91,11.92 -19.26,28.33 -19.27,46.52 0.01,18.18 7.36,34.59 19.27,46.51 11.92,11.92 28.33,19.27 46.51,19.27 18.19,0 34.6,-7.35 46.52,-19.27 11.91,-11.92 19.26,-28.33 19.27,-46.51 h 5.75 5.74 c 0,42.68 -34.59,77.27 -77.28,77.28 -42.68,-0.01 -77.27,-34.6 -77.27,-77.28 0,-42.69 34.59,-77.28 77.27,-77.28 42.69,0 77.28,34.59 77.28,77.28 h -5.74"
         style="fill:#0d0d0e;fill-opacity:1;fill-rule:nonzero;stroke:none"
         id="path254" />
      <path
         d="m 4759.44,2752.67 h -5.75 c -0.02,-12.52 -10.15,-22.64 -22.66,-22.67 -12.51,0.03 -22.64,10.15 -22.66,22.67 0.02,12.51 10.15,22.64 22.66,22.66 12.51,-0.02 22.64,-10.15 22.66,-22.66 h 5.75 5.75 c 0,18.86 -15.29,34.15 -34.16,34.15 -18.87,0 -34.15,-15.29 -34.16,-34.15 0.01,-18.87 15.29,-34.16 34.16,-34.16 18.87,0 34.16,15.29 34.16,34.16 h -5.75"
         style="fill:#0d0d0e;fill-opacity:1;fill-rule:nonzero;stroke:none"
         id="path256" />
      <path
         d="m 3636.63,2168.73 h -5.74 c -0.03,-16.99 -13.78,-30.74 -30.77,-30.77 -16.99,0.03 -30.74,13.78 -30.77,30.77 0.03,16.99 13.78,30.73 30.77,30.76 16.99,-0.03 30.74,-13.77 30.77,-30.76 h 5.74 5.75 c 0,23.34 -18.92,42.26 -42.26,42.26 -23.34,0 -42.26,-18.92 -42.26,-42.26 0,-23.34 18.92,-42.26 42.26,-42.26 23.34,0 42.26,18.92 42.26,42.26 h -5.75"
         style="fill:#0d0d0e;fill-opacity:1;fill-rule:nonzero;stroke:none"
         id="path258" />
      <path
         d="m 3894.15,2275.62 h -5.75 c -0.02,-7.09 -5.75,-12.82 -12.84,-12.84 -7.09,0.02 -12.82,5.75 -12.83,12.84 0.01,7.09 5.75,12.82 12.83,12.83 7.09,-0.01 12.82,-5.75 12.84,-12.83 h 5.75 5.74 c 0,13.44 -10.89,24.33 -24.33,24.33 -13.44,0 -24.33,-10.89 -24.33,-24.33 0,-13.44 10.89,-24.33 24.33,-24.33 13.44,0 24.33,10.89 24.33,24.33 h -5.74"
         style="fill:#0d0d0e;fill-opacity:1;fill-rule:nonzero;stroke:none"
         id="path260" />
      <path
         d="m 2256.04,3381.36 h -5.75 c -0.01,-8.54 -6.92,-15.45 -15.46,-15.47 -8.54,0.02 -15.45,6.93 -15.47,15.47 0.02,8.54 6.93,15.45 15.47,15.46 8.54,-0.01 15.45,-6.92 15.46,-15.46 h 5.75 5.75 c 0,14.89 -12.07,26.96 -26.96,26.96 -14.9,0 -26.96,-12.07 -26.96,-26.96 0,-14.89 12.06,-26.96 26.96,-26.96 14.89,0 26.96,12.07 26.96,26.96 h -5.75"
         style="fill:#0d0d0e;fill-opacity:1;fill-rule:nonzero;stroke:none"
         id="path262" />
      <path
         d="m 2435.53,3205.41 h -5.75 c -0.02,-9.38 -7.61,-16.97 -16.99,-16.99 -9.38,0.02 -16.97,7.61 -16.99,16.99 0.02,9.38 7.61,16.97 16.99,16.99 9.38,-0.02 16.97,-7.61 16.99,-16.99 h 5.75 5.75 c -0.01,15.74 -12.75,28.48 -28.49,28.49 -15.73,-0.01 -28.48,-12.75 -28.48,-28.49 0,-15.73 12.75,-28.48 28.48,-28.48 15.74,0 28.48,12.75 28.49,28.48 h -5.75"
         style="fill:#0d0d0e;fill-opacity:1;fill-rule:nonzero;stroke:none"
         id="path264" />
      <path
         d="m 375.453,1997.84 h -5.75 c -0.031,-19.25 -15.609,-34.83 -34.867,-34.86 -19.254,0.03 -34.832,15.61 -34.867,34.86 0.035,19.26 15.613,34.84 34.867,34.87 19.258,-0.03 34.836,-15.61 34.867,-34.87 h 5.75 5.746 c -0.004,25.61 -20.754,46.36 -46.363,46.37 -25.606,-0.01 -46.359,-20.76 -46.363,-46.37 0.004,-25.6 20.757,-46.36 46.363,-46.36 25.609,0 46.359,20.76 46.363,46.36 h -5.746"
         style="fill:#0d0d0e;fill-opacity:1;fill-rule:nonzero;stroke:none"
         id="path266" />
      <path
         d="m 568.051,1714.51 h 5.75 c -0.004,6.39 -5.184,11.57 -11.578,11.57 -6.399,0 -11.575,-5.18 -11.578,-11.57 0.003,-6.4 5.179,-11.58 11.578,-11.58 6.394,0 11.574,5.18 11.578,11.58 h -5.75 -5.746 l -0.082,-0.08 -0.082,0.08 0.082,0.08 0.082,-0.08 h 5.746"
         style="fill:#0d0d0e;fill-opacity:1;fill-rule:nonzero;stroke:none"
         id="path268" />
      <path
         d="m 2673.36,486.301 c 42.91,-13.199 89.51,-7.821 132.82,4.019 98.47,26.91 187.45,87.328 248.77,168.942 3.97,5.277 2.71,17.039 -2.93,13.59 184.12,-92.262 371.66,-147.762 577.6,-147.461 95.89,0.14 193.08,11.058 282.01,46.918 88.92,35.863 169.36,98.621 213.29,183.851 H 2716.79 l -43.43,-269.859"
         style="fill:#0d0d0e;fill-opacity:1;fill-rule:nonzero;stroke:none"
         id="path270" />
      <path
         d="m 2114.41,770.871 v 332.689 c 0,2.94 -2.38,5.31 -5.31,5.31 -2.93,0 -5.31,-2.37 -5.31,-5.31 V 770.871 c 0,-2.93 2.38,-5.312 5.31,-5.312 2.93,0 5.31,2.382 5.31,5.312"
         style="fill:#0d0d0e;fill-opacity:1;fill-rule:nonzero;stroke:none"
         id="path272" />
      <path
         d="M 2727.36,484.379 H 860.223 V 1103.56 H 2727.36 V 484.379"
         style="fill:#e8841e;fill-opacity:1;fill-rule:nonzero;stroke:none"
         id="path274" />
      <path
         d="M 860.223,979.121 H 2727.36 c 2.93,0 5.31,2.379 5.31,5.309 0,2.929 -2.38,5.308 -5.31,5.308 H 860.223 c -2.93,0 -5.309,-2.379 -5.309,-5.308 0,-2.93 2.379,-5.309 5.309,-5.309"
         style="fill:#0d0d0e;fill-opacity:1;fill-rule:nonzero;stroke:none"
         id="path276" />
      <path
         d="M 860.223,900.199 H 2727.36 c 2.93,0 5.31,2.383 5.31,5.313 0,2.929 -2.38,5.308 -5.31,5.308 H 860.223 c -2.93,0 -5.309,-2.379 -5.309,-5.308 0,-2.93 2.379,-5.313 5.309,-5.313"
         style="fill:#0d0d0e;fill-opacity:1;fill-rule:nonzero;stroke:none"
         id="path278" />
      <path
         d="m 860.223,799.082 h 848.847 c 2.94,0 5.31,2.367 5.31,5.297 0,2.941 -2.37,5.312 -5.31,5.312 H 860.223 c -2.93,0 -5.309,-2.371 -5.309,-5.312 0,-2.93 2.379,-5.297 5.309,-5.297"
         style="fill:#0d0d0e;fill-opacity:1;fill-rule:nonzero;stroke:none"
         id="path280" />
      <path
         d="m 1856.8,677.309 h 624.86 c 2.94,0 5.31,2.382 5.31,5.312 0,2.938 -2.37,5.309 -5.31,5.309 H 1856.8 c -2.93,0 -5.31,-2.371 -5.31,-5.309 0,-2.93 2.38,-5.312 5.31,-5.312"
         style="fill:#0d0d0e;fill-opacity:1;fill-rule:nonzero;stroke:none"
         id="path282" />
      <path
         d="M 860.223,682.621 732.258,532.359 1392.89,682.621 Z"
         style="fill:#f1c2a6;fill-opacity:1;fill-rule:nonzero;stroke:none"
         id="path284" />
      <path
         d="M 860.223,984.43 624.012,830.379 1284.65,980.641 Z"
         style="fill:#ffffff;fill-opacity:1;fill-rule:nonzero;stroke:none"
         id="path286" />
      <path
         d="m 1975.22,793.969 303.75,-215.09 202.69,215.09 z"
         style="fill:#f1c2a6;fill-opacity:1;fill-rule:nonzero;stroke:none"
         id="path288" />
      <path
         d="m 1896.8,788.66 h 742.32 c 2.93,0 5.31,2.379 5.31,5.309 0,2.941 -2.38,5.312 -5.31,5.312 H 1896.8 c -2.93,0 -5.31,-2.371 -5.31,-5.312 0,-2.93 2.38,-5.309 5.31,-5.309"
         style="fill:#0d0d0e;fill-opacity:1;fill-rule:nonzero;stroke:none"
         id="path290" />
      <path
         d="M 2727.36,578.879 H 2389.6 l 432.27,-94.5 z"
         style="fill:#f1c2a6;fill-opacity:1;fill-rule:nonzero;stroke:none"
         id="path292" />
      <path
         d="m 2341.43,573.57 h 385.93 c 2.93,0 5.31,2.379 5.31,5.309 0,2.93 -2.38,5.312 -5.31,5.312 h -385.93 c -2.93,0 -5.31,-2.382 -5.31,-5.312 0,-2.93 2.38,-5.309 5.31,-5.309"
         style="fill:#0d0d0e;fill-opacity:1;fill-rule:nonzero;stroke:none"
         id="path294" />
      <path
         d="M 1907.46,1101.65 V 484.379 c 0,-2.93 2.38,-5.309 5.31,-5.309 2.93,0 5.31,2.379 5.31,5.309 v 617.271 c 0,2.93 -2.38,5.31 -5.31,5.31 -2.93,0 -5.31,-2.38 -5.31,-5.31"
         style="fill:#0d0d0e;fill-opacity:1;fill-rule:nonzero;stroke:none"
         id="path296" />
      <path
         d="m 444.484,2174.18 h -5.75 c -0.023,-12.89 -10.453,-23.32 -23.343,-23.34 -12.887,0.02 -23.321,10.45 -23.344,23.34 0.023,12.89 10.457,23.32 23.344,23.35 12.89,-0.03 23.32,-10.46 23.343,-23.35 h 5.75 5.746 c -0.003,19.25 -15.593,34.84 -34.839,34.84 -19.243,0 -34.836,-15.59 -34.84,-34.84 0.004,-19.24 15.597,-34.83 34.84,-34.84 19.246,0.01 34.836,15.6 34.839,34.84 h -5.746"
         style="fill:#0d0d0e;fill-opacity:1;fill-rule:nonzero;stroke:none"
         id="path298" />
    </g>
  </g>
</svg>
